M48
METRIC,LZ,000.000
;FILE_FORMAT=3:3
;TYPE=PLATED
;Layer: PTH_Through
;EasyEDA v6.5.9, 2022-08-04 21:53:36
;243b00ffacdd401494d35e99a464f0bf,3bbe445d3a7142a2ab69e160ea9428b9,10
;Gerber Generator version 0.2
;Holesize 1 = 0.305 mm
T01C0.305
;Holesize 2 = 0.889 mm
T02C0.889
;Holesize 3 = 0.900 mm
T03C0.900
;Holesize 4 = 0.915 mm
T04C0.915
;Holesize 5 = 0.966 mm
T05C0.966
;Holesize 6 = 1.000 mm
T06C1.000
;Holesize 7 = 1.001 mm
T07C1.001
;Holesize 8 = 1.101 mm
T08C1.101
;Holesize 9 = 1.200 mm
T09C1.200
%
G05
G90
T01
X073055Y-039134
X047227Y-022159
X071506Y-037636
T02
X010173Y-027940
X010173Y-025400
X010173Y-012700
X010173Y-010160
T03
X010160Y-048196
X010160Y-058484
T04
X010173Y-022860
X010173Y-007620
X081153Y-023495
X078613Y-023495
X076073Y-023495
X073533Y-023495
X070993Y-023495
T05
X010160Y-039370
X010160Y-036830
T06
X048258Y-041910
X048258Y-044450
X048258Y-046990
X048261Y-049530
X021660Y-030480G85X021660Y-030480
X021660Y-027940G85X021660Y-027940
X021660Y-025400G85X021660Y-025400
X021660Y-022860G85X021660Y-022860
X021660Y-020320G85X021660Y-020320
X021660Y-017780G85X021660Y-017780
X021660Y-015240G85X021660Y-015240
X021660Y-012700G85X021660Y-012700
X021660Y-010160G85X021660Y-010160
X021660Y-007620G85X021660Y-007620
X021660Y-033020G85X021660Y-033020
X021660Y-035560G85X021660Y-035560
X021660Y-038100G85X021660Y-038100
X021660Y-040640G85X021660Y-040640
X021660Y-043180G85X021660Y-043180
X021660Y-045720G85X021660Y-045720
X021660Y-048260G85X021660Y-048260
X021660Y-050800G85X021660Y-050800
X021660Y-053340G85X021660Y-053340
X021660Y-055880G85X021660Y-055880
X036900Y-055880G85X036900Y-055880
X036900Y-053340G85X036900Y-053340
X036900Y-050800G85X036900Y-050800
X036900Y-048260G85X036900Y-048260
X036900Y-045720G85X036900Y-045720
X036900Y-043180G85X036900Y-043180
X036900Y-040640G85X036900Y-040640
X036900Y-038100G85X036900Y-038100
X036900Y-035560G85X036900Y-035560
X036900Y-033020G85X036900Y-033020
X036900Y-030480G85X036900Y-030480
X036900Y-027940G85X036900Y-027940
X036900Y-025400G85X036900Y-025400
X036900Y-022860G85X036900Y-022860
X036900Y-020320G85X036900Y-020320
X036900Y-017780G85X036900Y-017780
X036900Y-015240G85X036900Y-015240
X036900Y-012700G85X036900Y-012700
X036900Y-010160G85X036900Y-010160
X036900Y-007620G85X036900Y-007620
T07
X082550Y-052070
X082550Y-049530
X082550Y-046990
X082550Y-044450
X082550Y-041910
X082550Y-039370
T08
X091730Y-028651
X096230Y-028651
X091730Y-022149
X096230Y-022149
X091730Y-015951
X096230Y-015951
X091730Y-009449
X096230Y-009449
T09
X052070Y-026670
X054610Y-026670
X057150Y-026670
X059690Y-026670
X059690Y-024130
X057150Y-024130
X054610Y-024130
X052070Y-024130
M30
