G04 Layer: TopLayer*
G04 EasyEDA v6.5.9, 2022-08-04 21:53:36*
G04 243b00ffacdd401494d35e99a464f0bf,3bbe445d3a7142a2ab69e160ea9428b9,10*
G04 Gerber Generator version 0.2*
G04 Scale: 100 percent, Rotated: No, Reflected: No *
G04 Dimensions in millimeters *
G04 leading zeros omitted , absolute positions ,4 integer and 5 decimal *
%FSLAX45Y45*%
%MOMM*%

%ADD10C,0.2540*%
%ADD11C,2.0000*%
%ADD12R,1.5748X1.5748*%
%ADD13C,1.5748*%
%ADD14C,1.6510*%
%ADD15C,1.6500*%
%ADD16C,1.8796*%
%ADD17C,1.5240*%
%ADD18C,1.3995*%
%ADD19C,1.8000*%
%ADD20C,0.6096*%
%ADD21C,1.4500*%
%ADD22C,0.0150*%

%LPD*%
G36*
X500532Y-6324092D02*
G01*
X469900Y-6323126D01*
X440283Y-6320282D01*
X410870Y-6315608D01*
X381812Y-6309106D01*
X353212Y-6300774D01*
X325170Y-6290665D01*
X297840Y-6278778D01*
X271322Y-6265265D01*
X245719Y-6250076D01*
X221081Y-6233312D01*
X197561Y-6215075D01*
X175260Y-6195364D01*
X154178Y-6174282D01*
X134518Y-6151930D01*
X116281Y-6128359D01*
X99568Y-6103721D01*
X84429Y-6078118D01*
X70916Y-6051550D01*
X59080Y-6024219D01*
X49022Y-5996178D01*
X40741Y-5967577D01*
X34290Y-5938520D01*
X29616Y-5909106D01*
X26822Y-5879439D01*
X25908Y-5849416D01*
X25908Y-500532D01*
X26873Y-469900D01*
X29718Y-440283D01*
X34391Y-410870D01*
X40894Y-381812D01*
X49225Y-353212D01*
X59334Y-325170D01*
X71170Y-297840D01*
X84734Y-271322D01*
X99923Y-245719D01*
X116636Y-221081D01*
X134924Y-197561D01*
X154635Y-175260D01*
X175717Y-154178D01*
X198069Y-134518D01*
X221589Y-116281D01*
X246227Y-99568D01*
X271881Y-84429D01*
X298450Y-70916D01*
X325780Y-59080D01*
X353822Y-49022D01*
X382422Y-40741D01*
X411480Y-34290D01*
X440893Y-29616D01*
X470560Y-26822D01*
X500532Y-25908D01*
X10408716Y-25908D01*
X10439349Y-26873D01*
X10469016Y-29718D01*
X10498429Y-34391D01*
X10527487Y-40894D01*
X10556087Y-49225D01*
X10584078Y-59334D01*
X10611408Y-71170D01*
X10637926Y-84734D01*
X10663580Y-99923D01*
X10688167Y-116636D01*
X10711688Y-134924D01*
X10734040Y-154635D01*
X10755071Y-175717D01*
X10774781Y-198069D01*
X10793018Y-221589D01*
X10809732Y-246227D01*
X10824870Y-271881D01*
X10838383Y-298450D01*
X10850168Y-325780D01*
X10860227Y-353822D01*
X10868558Y-382422D01*
X10875010Y-411480D01*
X10879632Y-440893D01*
X10882426Y-470560D01*
X10883392Y-500532D01*
X10883392Y-5849467D01*
X10882376Y-5880049D01*
X10879582Y-5909716D01*
X10874908Y-5939129D01*
X10868355Y-5968187D01*
X10860024Y-5996787D01*
X10849914Y-6024778D01*
X10838078Y-6052108D01*
X10824565Y-6078677D01*
X10809376Y-6104280D01*
X10792612Y-6128918D01*
X10774375Y-6152438D01*
X10754664Y-6174740D01*
X10733582Y-6195771D01*
X10711230Y-6215481D01*
X10687659Y-6233718D01*
X10663021Y-6250432D01*
X10637367Y-6265570D01*
X10610850Y-6279083D01*
X10583519Y-6290868D01*
X10555478Y-6300978D01*
X10526877Y-6309258D01*
X10497820Y-6315710D01*
X10468356Y-6320383D01*
X10438739Y-6323126D01*
X10408716Y-6324092D01*
G37*

%LPC*%
G36*
X10515600Y-457708D02*
G01*
X10530992Y-456742D01*
X10546130Y-453999D01*
X10560812Y-449427D01*
X10574832Y-443077D01*
X10588040Y-435101D01*
X10600131Y-425602D01*
X10611002Y-414731D01*
X10620502Y-402640D01*
X10628477Y-389432D01*
X10634827Y-375412D01*
X10639399Y-360730D01*
X10642142Y-345592D01*
X10643108Y-330200D01*
X10642142Y-314807D01*
X10639399Y-299669D01*
X10634827Y-284988D01*
X10628477Y-270967D01*
X10620502Y-257759D01*
X10611002Y-245668D01*
X10600131Y-234797D01*
X10588040Y-225298D01*
X10574832Y-217322D01*
X10560812Y-210972D01*
X10546130Y-206400D01*
X10530992Y-203657D01*
X10515600Y-202692D01*
X10500207Y-203657D01*
X10485069Y-206400D01*
X10470388Y-210972D01*
X10456367Y-217322D01*
X10443159Y-225298D01*
X10431068Y-234797D01*
X10420197Y-245668D01*
X10410698Y-257759D01*
X10402722Y-270967D01*
X10396372Y-284988D01*
X10391800Y-299669D01*
X10389057Y-314807D01*
X10388092Y-330200D01*
X10389057Y-345592D01*
X10391800Y-360730D01*
X10396372Y-375412D01*
X10402722Y-389432D01*
X10410698Y-402640D01*
X10420197Y-414731D01*
X10431068Y-425602D01*
X10443159Y-435101D01*
X10456367Y-443077D01*
X10470388Y-449427D01*
X10485069Y-453999D01*
X10500207Y-456742D01*
G37*
G36*
X342900Y-6160008D02*
G01*
X358292Y-6159042D01*
X373430Y-6156299D01*
X388112Y-6151727D01*
X402132Y-6145377D01*
X415340Y-6137402D01*
X427431Y-6127902D01*
X438302Y-6117031D01*
X447801Y-6104940D01*
X455777Y-6091732D01*
X462127Y-6077712D01*
X466699Y-6063030D01*
X469442Y-6047892D01*
X470408Y-6032500D01*
X469442Y-6017107D01*
X466699Y-6001969D01*
X462127Y-5987288D01*
X455777Y-5973267D01*
X447801Y-5960059D01*
X438302Y-5947968D01*
X427431Y-5937097D01*
X415340Y-5927598D01*
X402132Y-5919622D01*
X388112Y-5913272D01*
X373430Y-5908700D01*
X358292Y-5905957D01*
X342900Y-5904992D01*
X327507Y-5905957D01*
X312369Y-5908700D01*
X297688Y-5913272D01*
X283667Y-5919622D01*
X270459Y-5927598D01*
X258368Y-5937097D01*
X247497Y-5947968D01*
X237998Y-5960059D01*
X230022Y-5973267D01*
X223672Y-5987288D01*
X219100Y-6001969D01*
X216357Y-6017107D01*
X215392Y-6032500D01*
X216357Y-6047892D01*
X219100Y-6063030D01*
X223672Y-6077712D01*
X230022Y-6091732D01*
X237998Y-6104940D01*
X247497Y-6117031D01*
X258368Y-6127902D01*
X270459Y-6137402D01*
X283667Y-6145377D01*
X297688Y-6151727D01*
X312369Y-6156299D01*
X327507Y-6159042D01*
G37*
G36*
X1008634Y-5967984D02*
G01*
X1023366Y-5967984D01*
X1038047Y-5966206D01*
X1052322Y-5962599D01*
X1066088Y-5957265D01*
X1079093Y-5950254D01*
X1091133Y-5941720D01*
X1102055Y-5931814D01*
X1111656Y-5920587D01*
X1119835Y-5908294D01*
X1126388Y-5895086D01*
X1131316Y-5881166D01*
X1134465Y-5866739D01*
X1135684Y-5855360D01*
X1140409Y-5782106D01*
X1141323Y-5778550D01*
X1143406Y-5775553D01*
X1289354Y-5629605D01*
X1292656Y-5627370D01*
X1296568Y-5626608D01*
X2001723Y-5626608D01*
X2006244Y-5627674D01*
X2027326Y-5638241D01*
X2029663Y-5639816D01*
X2033117Y-5644743D01*
X2041601Y-5655157D01*
X2051405Y-5664301D01*
X2062378Y-5672074D01*
X2074316Y-5678220D01*
X2086965Y-5682742D01*
X2100122Y-5685485D01*
X2113838Y-5686399D01*
X2218131Y-5686399D01*
X2231898Y-5685485D01*
X2245055Y-5682742D01*
X2257704Y-5678220D01*
X2269642Y-5672074D01*
X2280564Y-5664301D01*
X2290419Y-5655157D01*
X2298852Y-5644743D01*
X2305862Y-5633262D01*
X2311196Y-5620969D01*
X2314803Y-5608015D01*
X2316632Y-5594705D01*
X2316632Y-5581294D01*
X2314803Y-5567984D01*
X2311196Y-5555030D01*
X2305862Y-5542737D01*
X2300986Y-5534761D01*
X2299766Y-5531662D01*
X2299614Y-5528310D01*
X2300528Y-5525109D01*
X2315260Y-5494172D01*
X2317292Y-5491327D01*
X2332431Y-5476189D01*
X2335733Y-5473954D01*
X2339644Y-5473192D01*
X3608730Y-5473192D01*
X3612692Y-5474004D01*
X3615994Y-5476290D01*
X3618179Y-5479694D01*
X3618890Y-5483656D01*
X3617925Y-5487619D01*
X3615537Y-5490870D01*
X3612083Y-5492953D01*
X3598265Y-5497779D01*
X3586378Y-5503926D01*
X3575405Y-5511698D01*
X3565601Y-5520842D01*
X3557117Y-5531256D01*
X3550158Y-5542737D01*
X3544773Y-5555030D01*
X3541166Y-5567984D01*
X3539337Y-5581294D01*
X3539337Y-5594705D01*
X3541166Y-5608015D01*
X3544773Y-5620969D01*
X3550158Y-5633262D01*
X3557117Y-5644743D01*
X3565601Y-5655157D01*
X3575405Y-5664301D01*
X3586378Y-5672074D01*
X3598316Y-5678220D01*
X3610965Y-5682742D01*
X3624122Y-5685485D01*
X3637838Y-5686399D01*
X3742131Y-5686399D01*
X3755898Y-5685485D01*
X3769055Y-5682742D01*
X3781704Y-5678220D01*
X3793642Y-5672074D01*
X3804564Y-5664301D01*
X3814419Y-5655157D01*
X3822852Y-5644743D01*
X3829862Y-5633262D01*
X3835196Y-5620969D01*
X3838803Y-5608015D01*
X3840632Y-5594705D01*
X3840632Y-5581294D01*
X3838803Y-5567984D01*
X3835196Y-5555030D01*
X3829862Y-5542737D01*
X3822852Y-5531256D01*
X3814419Y-5520842D01*
X3804564Y-5511698D01*
X3793642Y-5503926D01*
X3781704Y-5497779D01*
X3767937Y-5492953D01*
X3764432Y-5490870D01*
X3762044Y-5487619D01*
X3761130Y-5483656D01*
X3761790Y-5479694D01*
X3763975Y-5476290D01*
X3767328Y-5474004D01*
X3771290Y-5473192D01*
X4589272Y-5473192D01*
X4597298Y-5472379D01*
X4604512Y-5470194D01*
X4611166Y-5466638D01*
X4617415Y-5461508D01*
X4962448Y-5116525D01*
X4965750Y-5114290D01*
X4969611Y-5113528D01*
X8004759Y-5113528D01*
X8008670Y-5114290D01*
X8011972Y-5116525D01*
X8129422Y-5233924D01*
X8135620Y-5239054D01*
X8142325Y-5242610D01*
X8145170Y-5243474D01*
X8147913Y-5244795D01*
X8154670Y-5249367D01*
X8157057Y-5251653D01*
X8158581Y-5254548D01*
X8159140Y-5257800D01*
X8159140Y-5276392D01*
X8159851Y-5282742D01*
X8161731Y-5288178D01*
X8164830Y-5293106D01*
X8168894Y-5297170D01*
X8173821Y-5300268D01*
X8179257Y-5302148D01*
X8185607Y-5302910D01*
X8324392Y-5302910D01*
X8330742Y-5302148D01*
X8336178Y-5300268D01*
X8341106Y-5297170D01*
X8345170Y-5293106D01*
X8348268Y-5288178D01*
X8350148Y-5282742D01*
X8350910Y-5276392D01*
X8350910Y-5137607D01*
X8350148Y-5131257D01*
X8348268Y-5125821D01*
X8345170Y-5120894D01*
X8341106Y-5116830D01*
X8336178Y-5113731D01*
X8330742Y-5111851D01*
X8324392Y-5111140D01*
X8185607Y-5111140D01*
X8179257Y-5111851D01*
X8173821Y-5113731D01*
X8168894Y-5116830D01*
X8164830Y-5120894D01*
X8161731Y-5125821D01*
X8158632Y-5135372D01*
X8156295Y-5138369D01*
X8153044Y-5140248D01*
X8149285Y-5140807D01*
X8145627Y-5139944D01*
X8142478Y-5137810D01*
X8052612Y-5047996D01*
X8046415Y-5042865D01*
X8039709Y-5039309D01*
X8032496Y-5037124D01*
X8024469Y-5036312D01*
X4998212Y-5036312D01*
X4994300Y-5035550D01*
X4990998Y-5033314D01*
X4988814Y-5030063D01*
X4988052Y-5026152D01*
X4988052Y-4823053D01*
X4987239Y-4815027D01*
X4985054Y-4807813D01*
X4981498Y-4801108D01*
X4976368Y-4794910D01*
X4941976Y-4760518D01*
X4939944Y-4757572D01*
X4939030Y-4754118D01*
X4934102Y-4692345D01*
X4933594Y-4689398D01*
X4933289Y-4684877D01*
X4930546Y-4670958D01*
X4925974Y-4657547D01*
X4919726Y-4644847D01*
X4911852Y-4633010D01*
X4902504Y-4622393D01*
X4891836Y-4613046D01*
X4880051Y-4605172D01*
X4867300Y-4598873D01*
X4853889Y-4594301D01*
X4839970Y-4591558D01*
X4825847Y-4590643D01*
X4811674Y-4591558D01*
X4797806Y-4594301D01*
X4784344Y-4598873D01*
X4771644Y-4605172D01*
X4759858Y-4613046D01*
X4749190Y-4622393D01*
X4739843Y-4633010D01*
X4731969Y-4644847D01*
X4725720Y-4657547D01*
X4721148Y-4670958D01*
X4718405Y-4684877D01*
X4717440Y-4699000D01*
X4718405Y-4713173D01*
X4721148Y-4727092D01*
X4725720Y-4740503D01*
X4731969Y-4753203D01*
X4739843Y-4764989D01*
X4749190Y-4775657D01*
X4759858Y-4785004D01*
X4771644Y-4792878D01*
X4784344Y-4799126D01*
X4797806Y-4803698D01*
X4811674Y-4806492D01*
X4881016Y-4812182D01*
X4884470Y-4813046D01*
X4887366Y-4815128D01*
X4907838Y-4835550D01*
X4910023Y-4838852D01*
X4910836Y-4842764D01*
X4910836Y-4861052D01*
X4910074Y-4864811D01*
X4907991Y-4868062D01*
X4904841Y-4870297D01*
X4901082Y-4871161D01*
X4897272Y-4870602D01*
X4893970Y-4868672D01*
X4892090Y-4867046D01*
X4880305Y-4859172D01*
X4873701Y-4855921D01*
X4873701Y-4905400D01*
X4900676Y-4905400D01*
X4904536Y-4906213D01*
X4907838Y-4908397D01*
X4910023Y-4911699D01*
X4910836Y-4915560D01*
X4910836Y-4990439D01*
X4910023Y-4994351D01*
X4907838Y-4997653D01*
X4904536Y-4999837D01*
X4900676Y-5000599D01*
X4873701Y-5000599D01*
X4873701Y-5050129D01*
X4880305Y-5046878D01*
X4892090Y-5039004D01*
X4893970Y-5037378D01*
X4897272Y-5035397D01*
X4901082Y-5034838D01*
X4904841Y-5035753D01*
X4907991Y-5037988D01*
X4910074Y-5041239D01*
X4910836Y-5044998D01*
X4910836Y-5054701D01*
X4910023Y-5058613D01*
X4907838Y-5061915D01*
X4576724Y-5392978D01*
X4573422Y-5395214D01*
X4569561Y-5395976D01*
X3837736Y-5395976D01*
X3833571Y-5395061D01*
X3830167Y-5392521D01*
X3828034Y-5388813D01*
X3827678Y-5384546D01*
X3829100Y-5380532D01*
X3829862Y-5379262D01*
X3835196Y-5366969D01*
X3838803Y-5354015D01*
X3840632Y-5340705D01*
X3840632Y-5327294D01*
X3838803Y-5313984D01*
X3835196Y-5301030D01*
X3829862Y-5288737D01*
X3822852Y-5277256D01*
X3814419Y-5266842D01*
X3804564Y-5257698D01*
X3793642Y-5249926D01*
X3781704Y-5243779D01*
X3769055Y-5239258D01*
X3755898Y-5236514D01*
X3742131Y-5235600D01*
X3637838Y-5235600D01*
X3624122Y-5236514D01*
X3610965Y-5239258D01*
X3598316Y-5243779D01*
X3586378Y-5249926D01*
X3575405Y-5257698D01*
X3565601Y-5266842D01*
X3557117Y-5277256D01*
X3550158Y-5288737D01*
X3544773Y-5301030D01*
X3541166Y-5313984D01*
X3539337Y-5327294D01*
X3539337Y-5340705D01*
X3541166Y-5354015D01*
X3544773Y-5366969D01*
X3550158Y-5379262D01*
X3550920Y-5380532D01*
X3552342Y-5384546D01*
X3551936Y-5388813D01*
X3549853Y-5392521D01*
X3546398Y-5395061D01*
X3542233Y-5395976D01*
X2319934Y-5395976D01*
X2314397Y-5396534D01*
X2309977Y-5395976D01*
X2306218Y-5393588D01*
X2303830Y-5389778D01*
X2303272Y-5385358D01*
X2304694Y-5381142D01*
X2307031Y-5376621D01*
X2234844Y-5376621D01*
X2234844Y-5430875D01*
X2244090Y-5428945D01*
X2248408Y-5428945D01*
X2252319Y-5430774D01*
X2255113Y-5434076D01*
X2256282Y-5438190D01*
X2255672Y-5442458D01*
X2253335Y-5446064D01*
X2241092Y-5458155D01*
X2200960Y-5487619D01*
X2198116Y-5489092D01*
X2194915Y-5489600D01*
X2113838Y-5489600D01*
X2100122Y-5490514D01*
X2086965Y-5493258D01*
X2074316Y-5497779D01*
X2062378Y-5503926D01*
X2051405Y-5511698D01*
X2041601Y-5520842D01*
X2033117Y-5531256D01*
X2029663Y-5536184D01*
X2027326Y-5537758D01*
X2006244Y-5548325D01*
X2001723Y-5549392D01*
X1276858Y-5549392D01*
X1268831Y-5550204D01*
X1261618Y-5552389D01*
X1254912Y-5555945D01*
X1248714Y-5561076D01*
X1088796Y-5720943D01*
X1085799Y-5723026D01*
X1082243Y-5723940D01*
X1008583Y-5728665D01*
X1001420Y-5729376D01*
X986790Y-5732119D01*
X972718Y-5736590D01*
X959307Y-5742736D01*
X946759Y-5750509D01*
X935228Y-5759754D01*
X924966Y-5770372D01*
X916076Y-5782157D01*
X908710Y-5794908D01*
X902969Y-5808522D01*
X898906Y-5822696D01*
X896670Y-5837275D01*
X896213Y-5852058D01*
X897534Y-5866739D01*
X900734Y-5881166D01*
X905611Y-5895086D01*
X912215Y-5908294D01*
X920343Y-5920587D01*
X929944Y-5931814D01*
X940866Y-5941720D01*
X952906Y-5950254D01*
X965911Y-5957265D01*
X979678Y-5962599D01*
X994003Y-5966206D01*
G37*
G36*
X342900Y-457708D02*
G01*
X358292Y-456742D01*
X373430Y-453999D01*
X388112Y-449427D01*
X402132Y-443077D01*
X415340Y-435101D01*
X427431Y-425602D01*
X438302Y-414731D01*
X447801Y-402640D01*
X455777Y-389432D01*
X462127Y-375412D01*
X466699Y-360730D01*
X469442Y-345592D01*
X470408Y-330200D01*
X469442Y-314807D01*
X466699Y-299669D01*
X462127Y-284988D01*
X455777Y-270967D01*
X447801Y-257759D01*
X438302Y-245668D01*
X427431Y-234797D01*
X415340Y-225298D01*
X402132Y-217322D01*
X388112Y-210972D01*
X373430Y-206400D01*
X358292Y-203657D01*
X342900Y-202692D01*
X327507Y-203657D01*
X312369Y-206400D01*
X297688Y-210972D01*
X283667Y-217322D01*
X270459Y-225298D01*
X258368Y-234797D01*
X247497Y-245668D01*
X237998Y-257759D01*
X230022Y-270967D01*
X223672Y-284988D01*
X219100Y-299669D01*
X216357Y-314807D01*
X215392Y-330200D01*
X216357Y-345592D01*
X219100Y-360730D01*
X223672Y-375412D01*
X230022Y-389432D01*
X237998Y-402640D01*
X247497Y-414731D01*
X258368Y-425602D01*
X270459Y-435101D01*
X283667Y-443077D01*
X297688Y-449427D01*
X312369Y-453999D01*
X327507Y-456742D01*
G37*
G36*
X1062990Y-716280D02*
G01*
X1111148Y-716280D01*
X1107897Y-709676D01*
X1100277Y-698296D01*
X1091234Y-688035D01*
X1080973Y-678992D01*
X1069594Y-671372D01*
X1062990Y-668121D01*
G37*
G36*
X2097125Y-5430875D02*
G01*
X2097125Y-5376621D01*
X2024989Y-5376621D01*
X2026157Y-5379262D01*
X2033117Y-5390743D01*
X2041601Y-5401157D01*
X2051405Y-5410301D01*
X2062378Y-5418074D01*
X2074316Y-5424220D01*
X2086965Y-5428742D01*
G37*
G36*
X923442Y-716280D02*
G01*
X971550Y-716280D01*
X971550Y-668121D01*
X964946Y-671372D01*
X953566Y-678992D01*
X943305Y-688035D01*
X934262Y-698296D01*
X926693Y-709676D01*
G37*
G36*
X3758844Y-719378D02*
G01*
X3831031Y-719378D01*
X3829862Y-716737D01*
X3822852Y-705256D01*
X3814419Y-694842D01*
X3804564Y-685698D01*
X3793642Y-677926D01*
X3781704Y-671779D01*
X3769055Y-667258D01*
X3758844Y-665124D01*
G37*
G36*
X3548989Y-719378D02*
G01*
X3621125Y-719378D01*
X3621125Y-665124D01*
X3610965Y-667258D01*
X3598316Y-671779D01*
X3586378Y-677926D01*
X3575405Y-685698D01*
X3565601Y-694842D01*
X3557117Y-705256D01*
X3550158Y-716737D01*
G37*
G36*
X1062990Y-855878D02*
G01*
X1069594Y-852627D01*
X1080973Y-845007D01*
X1091234Y-835964D01*
X1100277Y-825703D01*
X1107897Y-814324D01*
X1111148Y-807720D01*
X1062990Y-807720D01*
G37*
G36*
X2024989Y-5291378D02*
G01*
X2097125Y-5291378D01*
X2097125Y-5237124D01*
X2086965Y-5239258D01*
X2074316Y-5243779D01*
X2062378Y-5249926D01*
X2051405Y-5257698D01*
X2041601Y-5266842D01*
X2033117Y-5277256D01*
X2026157Y-5288737D01*
G37*
G36*
X2234844Y-5291378D02*
G01*
X2307031Y-5291378D01*
X2305862Y-5288737D01*
X2298852Y-5277256D01*
X2290419Y-5266842D01*
X2280564Y-5257698D01*
X2269642Y-5249926D01*
X2257704Y-5243779D01*
X2245055Y-5239258D01*
X2234844Y-5237124D01*
G37*
G36*
X2113838Y-5178399D02*
G01*
X2218131Y-5178399D01*
X2231898Y-5177485D01*
X2245055Y-5174742D01*
X2257704Y-5170220D01*
X2269642Y-5164074D01*
X2280564Y-5156301D01*
X2290419Y-5147157D01*
X2298852Y-5136743D01*
X2305862Y-5125262D01*
X2311196Y-5112969D01*
X2314803Y-5100015D01*
X2316632Y-5086705D01*
X2316632Y-5073294D01*
X2314803Y-5059984D01*
X2311196Y-5047030D01*
X2305862Y-5034737D01*
X2298852Y-5023256D01*
X2290419Y-5012842D01*
X2280564Y-5003698D01*
X2269642Y-4995926D01*
X2257704Y-4989779D01*
X2245055Y-4985258D01*
X2231898Y-4982514D01*
X2218131Y-4981600D01*
X2113838Y-4981600D01*
X2100122Y-4982514D01*
X2086965Y-4985258D01*
X2074316Y-4989779D01*
X2062378Y-4995926D01*
X2051405Y-5003698D01*
X2041601Y-5012842D01*
X2033117Y-5023256D01*
X2026157Y-5034737D01*
X2020773Y-5047030D01*
X2017166Y-5059984D01*
X2015337Y-5073294D01*
X2015337Y-5086705D01*
X2017166Y-5100015D01*
X2020773Y-5112969D01*
X2026157Y-5125262D01*
X2033117Y-5136743D01*
X2041601Y-5147157D01*
X2051405Y-5156301D01*
X2062378Y-5164074D01*
X2074316Y-5170220D01*
X2086965Y-5174742D01*
X2100122Y-5177485D01*
G37*
G36*
X3637838Y-5178399D02*
G01*
X3742131Y-5178399D01*
X3755898Y-5177485D01*
X3769055Y-5174742D01*
X3781704Y-5170220D01*
X3793642Y-5164074D01*
X3804564Y-5156301D01*
X3814419Y-5147157D01*
X3822852Y-5136743D01*
X3829862Y-5125262D01*
X3835196Y-5112969D01*
X3838803Y-5100015D01*
X3840632Y-5086705D01*
X3840632Y-5073294D01*
X3838803Y-5059984D01*
X3835196Y-5047030D01*
X3829862Y-5034737D01*
X3822852Y-5023256D01*
X3814419Y-5012842D01*
X3804564Y-5003698D01*
X3793642Y-4995926D01*
X3781704Y-4989779D01*
X3769055Y-4985258D01*
X3755898Y-4982514D01*
X3742131Y-4981600D01*
X3637838Y-4981600D01*
X3624122Y-4982514D01*
X3610965Y-4985258D01*
X3598316Y-4989779D01*
X3586378Y-4995926D01*
X3575405Y-5003698D01*
X3565601Y-5012842D01*
X3557117Y-5023256D01*
X3550158Y-5034737D01*
X3544773Y-5047030D01*
X3541166Y-5059984D01*
X3539337Y-5073294D01*
X3539337Y-5086705D01*
X3541166Y-5100015D01*
X3544773Y-5112969D01*
X3550158Y-5125262D01*
X3557117Y-5136743D01*
X3565601Y-5147157D01*
X3575405Y-5156301D01*
X3586378Y-5164074D01*
X3598316Y-5170220D01*
X3610965Y-5174742D01*
X3624122Y-5177485D01*
G37*
G36*
X971550Y-855878D02*
G01*
X971550Y-807720D01*
X923442Y-807720D01*
X926693Y-814324D01*
X934262Y-825703D01*
X943305Y-835964D01*
X953566Y-845007D01*
X964946Y-852627D01*
G37*
G36*
X4778502Y-5050129D02*
G01*
X4778502Y-5000599D01*
X4728972Y-5000599D01*
X4732223Y-5007203D01*
X4740097Y-5018989D01*
X4749444Y-5029657D01*
X4760112Y-5039004D01*
X4771898Y-5046878D01*
G37*
G36*
X3621125Y-858875D02*
G01*
X3621125Y-804621D01*
X3548989Y-804621D01*
X3550158Y-807262D01*
X3557117Y-818743D01*
X3565601Y-829157D01*
X3575405Y-838301D01*
X3586378Y-846074D01*
X3598316Y-852220D01*
X3610965Y-856742D01*
G37*
G36*
X8248446Y-5048656D02*
G01*
X8261553Y-5048656D01*
X8274507Y-5046878D01*
X8287105Y-5043322D01*
X8299094Y-5038090D01*
X8310270Y-5031333D01*
X8320430Y-5023053D01*
X8329371Y-5013502D01*
X8336889Y-5002784D01*
X8342934Y-4991201D01*
X8347303Y-4978857D01*
X8349945Y-4966055D01*
X8350859Y-4953000D01*
X8349945Y-4939944D01*
X8347303Y-4927142D01*
X8342934Y-4914798D01*
X8336889Y-4903216D01*
X8329371Y-4892497D01*
X8320430Y-4882946D01*
X8310270Y-4874666D01*
X8299094Y-4867910D01*
X8287105Y-4862677D01*
X8274507Y-4859121D01*
X8261553Y-4857343D01*
X8248446Y-4857343D01*
X8235492Y-4859121D01*
X8222894Y-4862677D01*
X8210905Y-4867910D01*
X8199729Y-4874666D01*
X8189569Y-4882946D01*
X8180628Y-4892497D01*
X8173110Y-4903216D01*
X8167065Y-4914798D01*
X8162696Y-4927142D01*
X8160054Y-4939944D01*
X8159140Y-4953000D01*
X8160054Y-4966055D01*
X8162696Y-4978857D01*
X8167065Y-4991201D01*
X8173110Y-5002784D01*
X8180628Y-5013502D01*
X8189569Y-5023053D01*
X8199729Y-5031333D01*
X8210905Y-5038090D01*
X8222894Y-5043322D01*
X8235492Y-5046878D01*
G37*
G36*
X1008634Y-4939284D02*
G01*
X1023366Y-4939284D01*
X1038047Y-4937455D01*
X1052322Y-4933848D01*
X1066088Y-4928514D01*
X1079093Y-4921554D01*
X1091133Y-4913020D01*
X1102055Y-4903063D01*
X1111656Y-4891887D01*
X1119835Y-4879594D01*
X1126388Y-4866386D01*
X1131316Y-4852466D01*
X1134465Y-4838039D01*
X1135837Y-4823358D01*
X1135380Y-4808575D01*
X1133094Y-4793996D01*
X1129080Y-4779822D01*
X1123289Y-4766208D01*
X1115923Y-4753406D01*
X1106881Y-4741468D01*
X1057148Y-4684826D01*
X1055268Y-4681677D01*
X1054608Y-4678121D01*
X1054608Y-4062679D01*
X1055217Y-4059174D01*
X1057046Y-4056075D01*
X1097280Y-4008831D01*
X1102004Y-4002989D01*
X1109929Y-3991203D01*
X1116177Y-3978503D01*
X1120749Y-3965041D01*
X1123492Y-3951173D01*
X1124458Y-3937000D01*
X1123492Y-3922826D01*
X1120749Y-3908958D01*
X1116177Y-3895496D01*
X1109929Y-3882796D01*
X1102004Y-3871010D01*
X1092657Y-3860342D01*
X1081989Y-3850995D01*
X1070203Y-3843070D01*
X1057503Y-3836822D01*
X1044041Y-3832250D01*
X1030173Y-3829507D01*
X1016000Y-3828542D01*
X1001826Y-3829507D01*
X987958Y-3832250D01*
X974496Y-3836822D01*
X961796Y-3843070D01*
X950010Y-3850995D01*
X939342Y-3860342D01*
X929995Y-3871010D01*
X922070Y-3882796D01*
X915822Y-3895496D01*
X911250Y-3908958D01*
X908507Y-3922826D01*
X907542Y-3937000D01*
X908507Y-3951173D01*
X911250Y-3965041D01*
X915822Y-3978503D01*
X922070Y-3991203D01*
X929995Y-4002989D01*
X934770Y-4008882D01*
X974953Y-4056075D01*
X976782Y-4059174D01*
X977392Y-4062679D01*
X977392Y-4678121D01*
X976731Y-4681677D01*
X974852Y-4684826D01*
X925169Y-4741418D01*
X916076Y-4753406D01*
X908710Y-4766208D01*
X902969Y-4779822D01*
X898906Y-4793996D01*
X896670Y-4808575D01*
X896213Y-4823358D01*
X897534Y-4838039D01*
X900734Y-4852466D01*
X905611Y-4866386D01*
X912215Y-4879594D01*
X920343Y-4891887D01*
X929944Y-4903063D01*
X940866Y-4913020D01*
X952906Y-4921554D01*
X965911Y-4928514D01*
X979678Y-4933848D01*
X994003Y-4937455D01*
G37*
G36*
X3637838Y-4924399D02*
G01*
X3742131Y-4924399D01*
X3755898Y-4923485D01*
X3769055Y-4920742D01*
X3781704Y-4916220D01*
X3793642Y-4910074D01*
X3804564Y-4902301D01*
X3814419Y-4893157D01*
X3822852Y-4882743D01*
X3829862Y-4871262D01*
X3835196Y-4858969D01*
X3838803Y-4846015D01*
X3840632Y-4832705D01*
X3840632Y-4819294D01*
X3838803Y-4805984D01*
X3835196Y-4793030D01*
X3829862Y-4780737D01*
X3822852Y-4769256D01*
X3814419Y-4758842D01*
X3804564Y-4749698D01*
X3793642Y-4741926D01*
X3781704Y-4735779D01*
X3769055Y-4731258D01*
X3755898Y-4728514D01*
X3742131Y-4727600D01*
X3637838Y-4727600D01*
X3624122Y-4728514D01*
X3610965Y-4731258D01*
X3598316Y-4735779D01*
X3586378Y-4741926D01*
X3575405Y-4749698D01*
X3565601Y-4758842D01*
X3557117Y-4769256D01*
X3550158Y-4780737D01*
X3544773Y-4793030D01*
X3541166Y-4805984D01*
X3539337Y-4819294D01*
X3539337Y-4832705D01*
X3541166Y-4846015D01*
X3544773Y-4858969D01*
X3550158Y-4871262D01*
X3557117Y-4882743D01*
X3565601Y-4893157D01*
X3575405Y-4902301D01*
X3586378Y-4910074D01*
X3598316Y-4916220D01*
X3610965Y-4920742D01*
X3624122Y-4923485D01*
G37*
G36*
X2113838Y-4924399D02*
G01*
X2218131Y-4924399D01*
X2231898Y-4923485D01*
X2245055Y-4920742D01*
X2257704Y-4916220D01*
X2269642Y-4910074D01*
X2280564Y-4902301D01*
X2290419Y-4893157D01*
X2298852Y-4882743D01*
X2305862Y-4871262D01*
X2311196Y-4858969D01*
X2314803Y-4846015D01*
X2316632Y-4832705D01*
X2316632Y-4819294D01*
X2314803Y-4805984D01*
X2311196Y-4793030D01*
X2305862Y-4780737D01*
X2298852Y-4769256D01*
X2290419Y-4758842D01*
X2280564Y-4749698D01*
X2269642Y-4741926D01*
X2257704Y-4735779D01*
X2245055Y-4731258D01*
X2231898Y-4728514D01*
X2218131Y-4727600D01*
X2113838Y-4727600D01*
X2100122Y-4728514D01*
X2086965Y-4731258D01*
X2074316Y-4735779D01*
X2062378Y-4741926D01*
X2051405Y-4749698D01*
X2041601Y-4758842D01*
X2033117Y-4769256D01*
X2026157Y-4780737D01*
X2020773Y-4793030D01*
X2017166Y-4805984D01*
X2015337Y-4819294D01*
X2015337Y-4832705D01*
X2017166Y-4846015D01*
X2020773Y-4858969D01*
X2026157Y-4871262D01*
X2033117Y-4882743D01*
X2041601Y-4893157D01*
X2051405Y-4902301D01*
X2062378Y-4910074D01*
X2074316Y-4916220D01*
X2086965Y-4920742D01*
X2100122Y-4923485D01*
G37*
G36*
X4728972Y-4905400D02*
G01*
X4778502Y-4905400D01*
X4778502Y-4855921D01*
X4771898Y-4859172D01*
X4760112Y-4867046D01*
X4749444Y-4876393D01*
X4740097Y-4887010D01*
X4732223Y-4898847D01*
G37*
G36*
X3758844Y-858875D02*
G01*
X3769055Y-856742D01*
X3781704Y-852220D01*
X3793642Y-846074D01*
X3804564Y-838301D01*
X3814419Y-829157D01*
X3822852Y-818743D01*
X3829862Y-807262D01*
X3831031Y-804621D01*
X3758844Y-804621D01*
G37*
G36*
X8248446Y-4794656D02*
G01*
X8261553Y-4794656D01*
X8274507Y-4792878D01*
X8287105Y-4789322D01*
X8299094Y-4784090D01*
X8310270Y-4777333D01*
X8320430Y-4769053D01*
X8329371Y-4759502D01*
X8336889Y-4748784D01*
X8342934Y-4737201D01*
X8347303Y-4724857D01*
X8349945Y-4712055D01*
X8350859Y-4699000D01*
X8349945Y-4685944D01*
X8347303Y-4673142D01*
X8342934Y-4660798D01*
X8336889Y-4649216D01*
X8329371Y-4638497D01*
X8320430Y-4628946D01*
X8310270Y-4620666D01*
X8299094Y-4613910D01*
X8287105Y-4608677D01*
X8274507Y-4605121D01*
X8262162Y-4603394D01*
X8212023Y-4598212D01*
X8208721Y-4597247D01*
X8205876Y-4595266D01*
X6780936Y-3170326D01*
X6774688Y-3165195D01*
X6768033Y-3161639D01*
X6760819Y-3159455D01*
X6752793Y-3158693D01*
X3783126Y-3158693D01*
X3779164Y-3157880D01*
X3775862Y-3155594D01*
X3773678Y-3152190D01*
X3772966Y-3148228D01*
X3773881Y-3144266D01*
X3776268Y-3141014D01*
X3779723Y-3138932D01*
X3781704Y-3138220D01*
X3793642Y-3132074D01*
X3804564Y-3124301D01*
X3814419Y-3115157D01*
X3822852Y-3104743D01*
X3829862Y-3093262D01*
X3835196Y-3080969D01*
X3838803Y-3068015D01*
X3840632Y-3054705D01*
X3840632Y-3041294D01*
X3838803Y-3027984D01*
X3835196Y-3015030D01*
X3829862Y-3002737D01*
X3822852Y-2991256D01*
X3814419Y-2980842D01*
X3810508Y-2977184D01*
X3808171Y-2973933D01*
X3807256Y-2970022D01*
X3807968Y-2966059D01*
X3810152Y-2962656D01*
X3813505Y-2960420D01*
X3817416Y-2959608D01*
X6710781Y-2959608D01*
X6714693Y-2960370D01*
X6717995Y-2962605D01*
X8151266Y-4395876D01*
X8153247Y-4398721D01*
X8154212Y-4402023D01*
X8160003Y-4457852D01*
X8162696Y-4470857D01*
X8167065Y-4483201D01*
X8173110Y-4494784D01*
X8180628Y-4505502D01*
X8189569Y-4515053D01*
X8199729Y-4523333D01*
X8210905Y-4530090D01*
X8222894Y-4535322D01*
X8235492Y-4538878D01*
X8248446Y-4540656D01*
X8261553Y-4540656D01*
X8274507Y-4538878D01*
X8287105Y-4535322D01*
X8299094Y-4530090D01*
X8310270Y-4523333D01*
X8320430Y-4515053D01*
X8329371Y-4505502D01*
X8336889Y-4494784D01*
X8342934Y-4483201D01*
X8347303Y-4470857D01*
X8349945Y-4458055D01*
X8350859Y-4445000D01*
X8349945Y-4431944D01*
X8347303Y-4419142D01*
X8342934Y-4406798D01*
X8336889Y-4395216D01*
X8329371Y-4384497D01*
X8320430Y-4374946D01*
X8310270Y-4366666D01*
X8299094Y-4359910D01*
X8287105Y-4354677D01*
X8274507Y-4351121D01*
X8262162Y-4349394D01*
X8212023Y-4344212D01*
X8208721Y-4343247D01*
X8205876Y-4341266D01*
X6758635Y-2894076D01*
X6752437Y-2888945D01*
X6745731Y-2885389D01*
X6738518Y-2883204D01*
X6730492Y-2882392D01*
X3817416Y-2882392D01*
X3813505Y-2881579D01*
X3810152Y-2879344D01*
X3807968Y-2875940D01*
X3807256Y-2871978D01*
X3808171Y-2868066D01*
X3810508Y-2864815D01*
X3814419Y-2861157D01*
X3822852Y-2850743D01*
X3829862Y-2839262D01*
X3835196Y-2826969D01*
X3838803Y-2814015D01*
X3840632Y-2800705D01*
X3840632Y-2787294D01*
X3838803Y-2773984D01*
X3835196Y-2761030D01*
X3829862Y-2748737D01*
X3822852Y-2737256D01*
X3814419Y-2726842D01*
X3804564Y-2717698D01*
X3793642Y-2709926D01*
X3781704Y-2703779D01*
X3769055Y-2699258D01*
X3755898Y-2696514D01*
X3742131Y-2695600D01*
X3637838Y-2695600D01*
X3624122Y-2696514D01*
X3610965Y-2699258D01*
X3598316Y-2703779D01*
X3586378Y-2709926D01*
X3575405Y-2717698D01*
X3565601Y-2726842D01*
X3557117Y-2737256D01*
X3550158Y-2748737D01*
X3544773Y-2761030D01*
X3541166Y-2773984D01*
X3539337Y-2787294D01*
X3539337Y-2800705D01*
X3541166Y-2814015D01*
X3544773Y-2826969D01*
X3550158Y-2839262D01*
X3557117Y-2850743D01*
X3565601Y-2861157D01*
X3569512Y-2864815D01*
X3571849Y-2868066D01*
X3572713Y-2871978D01*
X3572001Y-2875940D01*
X3569817Y-2879344D01*
X3566515Y-2881579D01*
X3562553Y-2882392D01*
X2821228Y-2882392D01*
X2817317Y-2881630D01*
X2814015Y-2879394D01*
X2317292Y-2382672D01*
X2315260Y-2379827D01*
X2300528Y-2348890D01*
X2299614Y-2345690D01*
X2299766Y-2342337D01*
X2300986Y-2339238D01*
X2305862Y-2331262D01*
X2311196Y-2318969D01*
X2314803Y-2306015D01*
X2316632Y-2292705D01*
X2316632Y-2279294D01*
X2314803Y-2265984D01*
X2311196Y-2253030D01*
X2305862Y-2240737D01*
X2298852Y-2229256D01*
X2290419Y-2218842D01*
X2280564Y-2209698D01*
X2269642Y-2201926D01*
X2257704Y-2195779D01*
X2245055Y-2191258D01*
X2231898Y-2188514D01*
X2218131Y-2187600D01*
X2113838Y-2187600D01*
X2100122Y-2188514D01*
X2087930Y-2191054D01*
X2083612Y-2191004D01*
X2079701Y-2189226D01*
X2076907Y-2185924D01*
X2075738Y-2181809D01*
X2076348Y-2177542D01*
X2078685Y-2173935D01*
X2090928Y-2161844D01*
X2131060Y-2132380D01*
X2133904Y-2130907D01*
X2137054Y-2130399D01*
X2218131Y-2130399D01*
X2231898Y-2129485D01*
X2245055Y-2126742D01*
X2257704Y-2122220D01*
X2269642Y-2116074D01*
X2280564Y-2108301D01*
X2290419Y-2099157D01*
X2298852Y-2088743D01*
X2305862Y-2077262D01*
X2311196Y-2064969D01*
X2314803Y-2052015D01*
X2316632Y-2038705D01*
X2316632Y-2025294D01*
X2314803Y-2011984D01*
X2311196Y-1999030D01*
X2305862Y-1986737D01*
X2298852Y-1975256D01*
X2290419Y-1964842D01*
X2280564Y-1955698D01*
X2269642Y-1947925D01*
X2257704Y-1941779D01*
X2245055Y-1937257D01*
X2231898Y-1934514D01*
X2218131Y-1933600D01*
X2113838Y-1933600D01*
X2100122Y-1934514D01*
X2086965Y-1937257D01*
X2074316Y-1941779D01*
X2062378Y-1947925D01*
X2051405Y-1955698D01*
X2041601Y-1964842D01*
X2033117Y-1975256D01*
X2026157Y-1986737D01*
X2020773Y-1999030D01*
X2017166Y-2011984D01*
X2015337Y-2025294D01*
X2015337Y-2038705D01*
X2017166Y-2052015D01*
X2020773Y-2064969D01*
X2026157Y-2077262D01*
X2030984Y-2085238D01*
X2032254Y-2088337D01*
X2032406Y-2091689D01*
X2031492Y-2094890D01*
X2016709Y-2125878D01*
X2014728Y-2128672D01*
X1985670Y-2157780D01*
X1980539Y-2163978D01*
X1976983Y-2170684D01*
X1974799Y-2177897D01*
X1973986Y-2185924D01*
X1973986Y-2330246D01*
X1974799Y-2338273D01*
X1976983Y-2345486D01*
X1980539Y-2352141D01*
X1985670Y-2358390D01*
X2066289Y-2439009D01*
X2068423Y-2442159D01*
X2069236Y-2445867D01*
X2068677Y-2449576D01*
X2066747Y-2452878D01*
X2051405Y-2463698D01*
X2041601Y-2472842D01*
X2033117Y-2483256D01*
X2026157Y-2494737D01*
X2020773Y-2507030D01*
X2017166Y-2519984D01*
X2015337Y-2533294D01*
X2015337Y-2546705D01*
X2017166Y-2560015D01*
X2020773Y-2572969D01*
X2026157Y-2585262D01*
X2033117Y-2596743D01*
X2041601Y-2607157D01*
X2051405Y-2616301D01*
X2062378Y-2624074D01*
X2074316Y-2630220D01*
X2086965Y-2634742D01*
X2100122Y-2637485D01*
X2113838Y-2638399D01*
X2218131Y-2638399D01*
X2231898Y-2637485D01*
X2245055Y-2634742D01*
X2257704Y-2630220D01*
X2269642Y-2624074D01*
X2280564Y-2616301D01*
X2290419Y-2607157D01*
X2298852Y-2596743D01*
X2305862Y-2585262D01*
X2311196Y-2572969D01*
X2312619Y-2567889D01*
X2314549Y-2564180D01*
X2317851Y-2561539D01*
X2321915Y-2560472D01*
X2326081Y-2561132D01*
X2329586Y-2563418D01*
X2990392Y-3224225D01*
X2996590Y-3229356D01*
X3003296Y-3232912D01*
X3010509Y-3235096D01*
X3018536Y-3235909D01*
X3544773Y-3235909D01*
X3548938Y-3236772D01*
X3552393Y-3239312D01*
X3554476Y-3243021D01*
X3554831Y-3247288D01*
X3553460Y-3251301D01*
X3550158Y-3256737D01*
X3544773Y-3269030D01*
X3541166Y-3281984D01*
X3539337Y-3295294D01*
X3539337Y-3308705D01*
X3541166Y-3322015D01*
X3544773Y-3334969D01*
X3550158Y-3347262D01*
X3557117Y-3358743D01*
X3565601Y-3369157D01*
X3575405Y-3378301D01*
X3586378Y-3386074D01*
X3598316Y-3392220D01*
X3610965Y-3396742D01*
X3624122Y-3399485D01*
X3637838Y-3400399D01*
X3742131Y-3400399D01*
X3755898Y-3399485D01*
X3769055Y-3396742D01*
X3781704Y-3392220D01*
X3793642Y-3386074D01*
X3804564Y-3378301D01*
X3814419Y-3369157D01*
X3822852Y-3358743D01*
X3829862Y-3347262D01*
X3835196Y-3334969D01*
X3838803Y-3322015D01*
X3840632Y-3308705D01*
X3840632Y-3295294D01*
X3838803Y-3281984D01*
X3835196Y-3269030D01*
X3829862Y-3256737D01*
X3826560Y-3251301D01*
X3825138Y-3247288D01*
X3825544Y-3243021D01*
X3827627Y-3239312D01*
X3831082Y-3236772D01*
X3835247Y-3235909D01*
X6733082Y-3235909D01*
X6736943Y-3236671D01*
X6740245Y-3238855D01*
X8151266Y-4649876D01*
X8153247Y-4652721D01*
X8154212Y-4656023D01*
X8160003Y-4711852D01*
X8162696Y-4724857D01*
X8167065Y-4737201D01*
X8173110Y-4748784D01*
X8180628Y-4759502D01*
X8189569Y-4769053D01*
X8199729Y-4777333D01*
X8210905Y-4784090D01*
X8222894Y-4789322D01*
X8235492Y-4792878D01*
G37*
G36*
X3637838Y-4670399D02*
G01*
X3742131Y-4670399D01*
X3755898Y-4669485D01*
X3769055Y-4666742D01*
X3781704Y-4662220D01*
X3793642Y-4656074D01*
X3804564Y-4648301D01*
X3814419Y-4639157D01*
X3822852Y-4628743D01*
X3829862Y-4617262D01*
X3835196Y-4604969D01*
X3838803Y-4592015D01*
X3840632Y-4578705D01*
X3840632Y-4565294D01*
X3838803Y-4551984D01*
X3835196Y-4539030D01*
X3829862Y-4526737D01*
X3822852Y-4515256D01*
X3814419Y-4504842D01*
X3804564Y-4495698D01*
X3793642Y-4487926D01*
X3781704Y-4481779D01*
X3769055Y-4477258D01*
X3755898Y-4474514D01*
X3742131Y-4473600D01*
X3637838Y-4473600D01*
X3624122Y-4474514D01*
X3610965Y-4477258D01*
X3598316Y-4481779D01*
X3586378Y-4487926D01*
X3575405Y-4495698D01*
X3565601Y-4504842D01*
X3557117Y-4515256D01*
X3550158Y-4526737D01*
X3544773Y-4539030D01*
X3541166Y-4551984D01*
X3539337Y-4565294D01*
X3539337Y-4578705D01*
X3541166Y-4592015D01*
X3544773Y-4604969D01*
X3550158Y-4617262D01*
X3557117Y-4628743D01*
X3565601Y-4639157D01*
X3575405Y-4648301D01*
X3586378Y-4656074D01*
X3598316Y-4662220D01*
X3610965Y-4666742D01*
X3624122Y-4669485D01*
G37*
G36*
X2113838Y-4670399D02*
G01*
X2218131Y-4670399D01*
X2231898Y-4669485D01*
X2245055Y-4666742D01*
X2257704Y-4662220D01*
X2269642Y-4656074D01*
X2280564Y-4648301D01*
X2290419Y-4639157D01*
X2298852Y-4628743D01*
X2305862Y-4617262D01*
X2311196Y-4604969D01*
X2314803Y-4592015D01*
X2316632Y-4578705D01*
X2316632Y-4565294D01*
X2314803Y-4551984D01*
X2311196Y-4539030D01*
X2305862Y-4526737D01*
X2298852Y-4515256D01*
X2290419Y-4504842D01*
X2280564Y-4495698D01*
X2269642Y-4487926D01*
X2257704Y-4481779D01*
X2245055Y-4477258D01*
X2231898Y-4474514D01*
X2218131Y-4473600D01*
X2113838Y-4473600D01*
X2100122Y-4474514D01*
X2086965Y-4477258D01*
X2074316Y-4481779D01*
X2062378Y-4487926D01*
X2051405Y-4495698D01*
X2041601Y-4504842D01*
X2033117Y-4515256D01*
X2026157Y-4526737D01*
X2020773Y-4539030D01*
X2017166Y-4551984D01*
X2015337Y-4565294D01*
X2015337Y-4578705D01*
X2017166Y-4592015D01*
X2020773Y-4604969D01*
X2026157Y-4617262D01*
X2033117Y-4628743D01*
X2041601Y-4639157D01*
X2051405Y-4648301D01*
X2062378Y-4656074D01*
X2074316Y-4662220D01*
X2086965Y-4666742D01*
X2100122Y-4669485D01*
G37*
G36*
X4825847Y-4553407D02*
G01*
X4839970Y-4552492D01*
X4853889Y-4549698D01*
X4867300Y-4545126D01*
X4880051Y-4538878D01*
X4891836Y-4531004D01*
X4902504Y-4521657D01*
X4911852Y-4510989D01*
X4919726Y-4499203D01*
X4925974Y-4486503D01*
X4930546Y-4473092D01*
X4933289Y-4459173D01*
X4934204Y-4445000D01*
X4933289Y-4430877D01*
X4930546Y-4416958D01*
X4925974Y-4403547D01*
X4919726Y-4390847D01*
X4911852Y-4379010D01*
X4902504Y-4368393D01*
X4891836Y-4359046D01*
X4880051Y-4351172D01*
X4867300Y-4344873D01*
X4853889Y-4340301D01*
X4839970Y-4337558D01*
X4825847Y-4336643D01*
X4811674Y-4337558D01*
X4797806Y-4340301D01*
X4784344Y-4344873D01*
X4771644Y-4351172D01*
X4759858Y-4359046D01*
X4749190Y-4368393D01*
X4739843Y-4379010D01*
X4731969Y-4390847D01*
X4725720Y-4403547D01*
X4721148Y-4416958D01*
X4718405Y-4430877D01*
X4717440Y-4445000D01*
X4718405Y-4459173D01*
X4721148Y-4473092D01*
X4725720Y-4486503D01*
X4731969Y-4499203D01*
X4739843Y-4510989D01*
X4749190Y-4521657D01*
X4759858Y-4531004D01*
X4771644Y-4538878D01*
X4784344Y-4545126D01*
X4797806Y-4549698D01*
X4811674Y-4552492D01*
G37*
G36*
X2113838Y-860399D02*
G01*
X2218131Y-860399D01*
X2231898Y-859485D01*
X2245055Y-856742D01*
X2257704Y-852220D01*
X2269642Y-846074D01*
X2280564Y-838301D01*
X2290419Y-829157D01*
X2298852Y-818743D01*
X2305862Y-807262D01*
X2311196Y-794969D01*
X2314803Y-782015D01*
X2316632Y-768705D01*
X2316632Y-755294D01*
X2314803Y-741984D01*
X2311196Y-729030D01*
X2305862Y-716737D01*
X2298852Y-705256D01*
X2290419Y-694842D01*
X2280564Y-685698D01*
X2269642Y-677926D01*
X2257704Y-671779D01*
X2245055Y-667258D01*
X2231898Y-664514D01*
X2218131Y-663600D01*
X2113838Y-663600D01*
X2100122Y-664514D01*
X2086965Y-667258D01*
X2074316Y-671779D01*
X2062378Y-677926D01*
X2051405Y-685698D01*
X2041601Y-694842D01*
X2033117Y-705256D01*
X2026157Y-716737D01*
X2020773Y-729030D01*
X2017166Y-741984D01*
X2015337Y-755294D01*
X2015337Y-768705D01*
X2017166Y-782015D01*
X2020773Y-794969D01*
X2026157Y-807262D01*
X2033117Y-818743D01*
X2041601Y-829157D01*
X2051405Y-838301D01*
X2062378Y-846074D01*
X2074316Y-852220D01*
X2086965Y-856742D01*
X2100122Y-859485D01*
G37*
G36*
X2113838Y-4416399D02*
G01*
X2218131Y-4416399D01*
X2231898Y-4415485D01*
X2245055Y-4412742D01*
X2257704Y-4408220D01*
X2269642Y-4402074D01*
X2280564Y-4394301D01*
X2290419Y-4385157D01*
X2298852Y-4374743D01*
X2305862Y-4363262D01*
X2311196Y-4350969D01*
X2314803Y-4338015D01*
X2316632Y-4324705D01*
X2316632Y-4311294D01*
X2314803Y-4297984D01*
X2311196Y-4285030D01*
X2305862Y-4272737D01*
X2300986Y-4264761D01*
X2299766Y-4261662D01*
X2299614Y-4258310D01*
X2300528Y-4255109D01*
X2309926Y-4235399D01*
X2312162Y-4232351D01*
X2315362Y-4230319D01*
X2319070Y-4229608D01*
X3562553Y-4229608D01*
X3566515Y-4230420D01*
X3569817Y-4232656D01*
X3572001Y-4236059D01*
X3572713Y-4240022D01*
X3571849Y-4243933D01*
X3569512Y-4247184D01*
X3565601Y-4250842D01*
X3557117Y-4261256D01*
X3550158Y-4272737D01*
X3544773Y-4285030D01*
X3541166Y-4297984D01*
X3539337Y-4311294D01*
X3539337Y-4324705D01*
X3541166Y-4338015D01*
X3544773Y-4350969D01*
X3550158Y-4363262D01*
X3557117Y-4374743D01*
X3565601Y-4385157D01*
X3575405Y-4394301D01*
X3586378Y-4402074D01*
X3598316Y-4408220D01*
X3610965Y-4412742D01*
X3624122Y-4415485D01*
X3637838Y-4416399D01*
X3742131Y-4416399D01*
X3755898Y-4415485D01*
X3769055Y-4412742D01*
X3781704Y-4408220D01*
X3793642Y-4402074D01*
X3804564Y-4394301D01*
X3814419Y-4385157D01*
X3822852Y-4374743D01*
X3829862Y-4363262D01*
X3835196Y-4350969D01*
X3838803Y-4338015D01*
X3840632Y-4324705D01*
X3840632Y-4311294D01*
X3838803Y-4297984D01*
X3835196Y-4285030D01*
X3829862Y-4272737D01*
X3822852Y-4261256D01*
X3814419Y-4250842D01*
X3810508Y-4247184D01*
X3808171Y-4243933D01*
X3807256Y-4240022D01*
X3807968Y-4236059D01*
X3810152Y-4232656D01*
X3813505Y-4230420D01*
X3817416Y-4229608D01*
X4165041Y-4229608D01*
X4173067Y-4228795D01*
X4180281Y-4226610D01*
X4186986Y-4223054D01*
X4193184Y-4217924D01*
X4289145Y-4122013D01*
X4292447Y-4119778D01*
X4296359Y-4119016D01*
X4724857Y-4119016D01*
X4729124Y-4119930D01*
X4732578Y-4122572D01*
X4734661Y-4126433D01*
X4734915Y-4130751D01*
X4733290Y-4134815D01*
X4731969Y-4136847D01*
X4725720Y-4149547D01*
X4721148Y-4162958D01*
X4718405Y-4176877D01*
X4717440Y-4191000D01*
X4718405Y-4205173D01*
X4721148Y-4219092D01*
X4725720Y-4232503D01*
X4731969Y-4245203D01*
X4739843Y-4256989D01*
X4749190Y-4267657D01*
X4759858Y-4277004D01*
X4771644Y-4284878D01*
X4784344Y-4291126D01*
X4797806Y-4295698D01*
X4811674Y-4298492D01*
X4825847Y-4299407D01*
X4839970Y-4298492D01*
X4853889Y-4295698D01*
X4867300Y-4291126D01*
X4880051Y-4284878D01*
X4891836Y-4277004D01*
X4902504Y-4267657D01*
X4911852Y-4256989D01*
X4919726Y-4245203D01*
X4925974Y-4232503D01*
X4930546Y-4219092D01*
X4933289Y-4205173D01*
X4934204Y-4191000D01*
X4933289Y-4176877D01*
X4930546Y-4162958D01*
X4925974Y-4149547D01*
X4919726Y-4136847D01*
X4918354Y-4134815D01*
X4916779Y-4130751D01*
X4917033Y-4126433D01*
X4919116Y-4122572D01*
X4922570Y-4119930D01*
X4926838Y-4119016D01*
X7137958Y-4119016D01*
X7145985Y-4118203D01*
X7153198Y-4116019D01*
X7159904Y-4112463D01*
X7166102Y-4107332D01*
X7297724Y-3975760D01*
X7301484Y-3973372D01*
X7312710Y-3969410D01*
X7324801Y-3966311D01*
X7333691Y-3962146D01*
X7341768Y-3956507D01*
X7348677Y-3949598D01*
X7354316Y-3941521D01*
X7358481Y-3932631D01*
X7361021Y-3923131D01*
X7361885Y-3913378D01*
X7361021Y-3903573D01*
X7358481Y-3894074D01*
X7354316Y-3885184D01*
X7348677Y-3877106D01*
X7341768Y-3870198D01*
X7333691Y-3864559D01*
X7324801Y-3860393D01*
X7315301Y-3857853D01*
X7305548Y-3856990D01*
X7295743Y-3857853D01*
X7286244Y-3860393D01*
X7277353Y-3864559D01*
X7269276Y-3870198D01*
X7262368Y-3877106D01*
X7256729Y-3885184D01*
X7252563Y-3894074D01*
X7249464Y-3906215D01*
X7245502Y-3917340D01*
X7243114Y-3921150D01*
X7125462Y-4038803D01*
X7122159Y-4041038D01*
X7118248Y-4041800D01*
X4276648Y-4041800D01*
X4268622Y-4042613D01*
X4261408Y-4044797D01*
X4254703Y-4048353D01*
X4248505Y-4053484D01*
X4152544Y-4149394D01*
X4149242Y-4151629D01*
X4145330Y-4152392D01*
X3817416Y-4152392D01*
X3813505Y-4151579D01*
X3810152Y-4149344D01*
X3807968Y-4145940D01*
X3807256Y-4141978D01*
X3808171Y-4138066D01*
X3810508Y-4134815D01*
X3814419Y-4131157D01*
X3822852Y-4120743D01*
X3829862Y-4109262D01*
X3835196Y-4096969D01*
X3838803Y-4084015D01*
X3840632Y-4070705D01*
X3840632Y-4057294D01*
X3838803Y-4043984D01*
X3835196Y-4031030D01*
X3829862Y-4018737D01*
X3822852Y-4007256D01*
X3814419Y-3996842D01*
X3804564Y-3987698D01*
X3793642Y-3979926D01*
X3781704Y-3973779D01*
X3768648Y-3969105D01*
X3765194Y-3967022D01*
X3762806Y-3963771D01*
X3761892Y-3959860D01*
X3762603Y-3955897D01*
X3764787Y-3952494D01*
X3768090Y-3950208D01*
X3772052Y-3949395D01*
X7002983Y-3949395D01*
X7011009Y-3948582D01*
X7018223Y-3946398D01*
X7024878Y-3942842D01*
X7031126Y-3937711D01*
X7142835Y-3826001D01*
X7146594Y-3823614D01*
X7157770Y-3819651D01*
X7169912Y-3816553D01*
X7178802Y-3812438D01*
X7186879Y-3806799D01*
X7193788Y-3799840D01*
X7199426Y-3791813D01*
X7203592Y-3782872D01*
X7206132Y-3773424D01*
X7206996Y-3763619D01*
X7206132Y-3753815D01*
X7203592Y-3744366D01*
X7199426Y-3735425D01*
X7193788Y-3727399D01*
X7186879Y-3720439D01*
X7178802Y-3714800D01*
X7169912Y-3710686D01*
X7160412Y-3708146D01*
X7150658Y-3707282D01*
X7140854Y-3708146D01*
X7131354Y-3710686D01*
X7122464Y-3714800D01*
X7114387Y-3720439D01*
X7107478Y-3727399D01*
X7101840Y-3735425D01*
X7097674Y-3744366D01*
X7094575Y-3756456D01*
X7090613Y-3767632D01*
X7088225Y-3771442D01*
X6990435Y-3869182D01*
X6987133Y-3871417D01*
X6983272Y-3872179D01*
X3837635Y-3872179D01*
X3833469Y-3871264D01*
X3830015Y-3868724D01*
X3827932Y-3865016D01*
X3827576Y-3860749D01*
X3828948Y-3856736D01*
X3829862Y-3855262D01*
X3835196Y-3842969D01*
X3838803Y-3830015D01*
X3840632Y-3816705D01*
X3840632Y-3803294D01*
X3838803Y-3789984D01*
X3835196Y-3777030D01*
X3829862Y-3764737D01*
X3822852Y-3753256D01*
X3814419Y-3742842D01*
X3804564Y-3733698D01*
X3793642Y-3725926D01*
X3781704Y-3719779D01*
X3769055Y-3715258D01*
X3755898Y-3712514D01*
X3742131Y-3711600D01*
X3637838Y-3711600D01*
X3624122Y-3712514D01*
X3611930Y-3715054D01*
X3607612Y-3715004D01*
X3603701Y-3713226D01*
X3600907Y-3709924D01*
X3599738Y-3705809D01*
X3600348Y-3701542D01*
X3602685Y-3697935D01*
X3614928Y-3685844D01*
X3655060Y-3656380D01*
X3657904Y-3654907D01*
X3661054Y-3654399D01*
X3742131Y-3654399D01*
X3755898Y-3653485D01*
X3769055Y-3650742D01*
X3781704Y-3646220D01*
X3793642Y-3640074D01*
X3804564Y-3632301D01*
X3814419Y-3623157D01*
X3822852Y-3612743D01*
X3829862Y-3601262D01*
X3835196Y-3588969D01*
X3838803Y-3576015D01*
X3840632Y-3562705D01*
X3840632Y-3549294D01*
X3838803Y-3535984D01*
X3835196Y-3523030D01*
X3829862Y-3510737D01*
X3822852Y-3499256D01*
X3814419Y-3488842D01*
X3804564Y-3479698D01*
X3793642Y-3471926D01*
X3781704Y-3465779D01*
X3769055Y-3461258D01*
X3755898Y-3458514D01*
X3742131Y-3457600D01*
X3637838Y-3457600D01*
X3624122Y-3458514D01*
X3610965Y-3461258D01*
X3598316Y-3465779D01*
X3586378Y-3471926D01*
X3575405Y-3479698D01*
X3565601Y-3488842D01*
X3557117Y-3499256D01*
X3550158Y-3510737D01*
X3544773Y-3523030D01*
X3541166Y-3535984D01*
X3539337Y-3549294D01*
X3539337Y-3562705D01*
X3541166Y-3576015D01*
X3544773Y-3588969D01*
X3550158Y-3601262D01*
X3554984Y-3609238D01*
X3556254Y-3612337D01*
X3556406Y-3615690D01*
X3555492Y-3618890D01*
X3546094Y-3638600D01*
X3543858Y-3641648D01*
X3540658Y-3643680D01*
X3536899Y-3644392D01*
X2293416Y-3644392D01*
X2289505Y-3643579D01*
X2286152Y-3641344D01*
X2283968Y-3637940D01*
X2283256Y-3633978D01*
X2284171Y-3630066D01*
X2286508Y-3626815D01*
X2290419Y-3623157D01*
X2298852Y-3612743D01*
X2305862Y-3601262D01*
X2311196Y-3588969D01*
X2314803Y-3576015D01*
X2316632Y-3562705D01*
X2316632Y-3549294D01*
X2314803Y-3535984D01*
X2311196Y-3523030D01*
X2305862Y-3510737D01*
X2298852Y-3499256D01*
X2290419Y-3488842D01*
X2280564Y-3479698D01*
X2269642Y-3471926D01*
X2257704Y-3465779D01*
X2245055Y-3461258D01*
X2231898Y-3458514D01*
X2218131Y-3457600D01*
X2113838Y-3457600D01*
X2100122Y-3458514D01*
X2086965Y-3461258D01*
X2074316Y-3465779D01*
X2062378Y-3471926D01*
X2051405Y-3479698D01*
X2041601Y-3488842D01*
X2033117Y-3499256D01*
X2026157Y-3510737D01*
X2020773Y-3523030D01*
X2017166Y-3535984D01*
X2015337Y-3549294D01*
X2015337Y-3562705D01*
X2017166Y-3576015D01*
X2020773Y-3588969D01*
X2026157Y-3601262D01*
X2033117Y-3612743D01*
X2041601Y-3623157D01*
X2045512Y-3626815D01*
X2047849Y-3630066D01*
X2048713Y-3633978D01*
X2048002Y-3637940D01*
X2045817Y-3641344D01*
X2042515Y-3643579D01*
X2038553Y-3644392D01*
X1141679Y-3644392D01*
X1138174Y-3643782D01*
X1135075Y-3641953D01*
X1087831Y-3601720D01*
X1081989Y-3596995D01*
X1070203Y-3589070D01*
X1057503Y-3582822D01*
X1044041Y-3578250D01*
X1030173Y-3575507D01*
X1016000Y-3574542D01*
X1001826Y-3575507D01*
X987958Y-3578250D01*
X974496Y-3582822D01*
X961796Y-3589070D01*
X950010Y-3596995D01*
X939342Y-3606342D01*
X929995Y-3617010D01*
X922070Y-3628796D01*
X915822Y-3641496D01*
X911250Y-3654958D01*
X908507Y-3668826D01*
X907542Y-3683000D01*
X908507Y-3697173D01*
X911250Y-3711041D01*
X915822Y-3724503D01*
X922070Y-3737203D01*
X929995Y-3748989D01*
X939342Y-3759657D01*
X950010Y-3769004D01*
X961796Y-3776929D01*
X974496Y-3783177D01*
X987958Y-3787749D01*
X1001826Y-3790492D01*
X1016000Y-3791458D01*
X1030173Y-3790492D01*
X1044041Y-3787749D01*
X1057503Y-3783177D01*
X1070203Y-3776929D01*
X1081989Y-3769004D01*
X1087882Y-3764229D01*
X1135075Y-3724046D01*
X1138174Y-3722217D01*
X1141679Y-3721608D01*
X2038553Y-3721608D01*
X2042515Y-3722420D01*
X2045817Y-3724656D01*
X2048002Y-3728059D01*
X2048713Y-3732022D01*
X2047849Y-3735933D01*
X2045512Y-3739184D01*
X2041601Y-3742842D01*
X2033117Y-3753256D01*
X2026157Y-3764737D01*
X2020773Y-3777030D01*
X2017166Y-3789984D01*
X2015337Y-3803294D01*
X2015337Y-3816705D01*
X2017166Y-3830015D01*
X2020773Y-3842969D01*
X2026157Y-3855262D01*
X2033117Y-3866743D01*
X2041601Y-3877157D01*
X2051405Y-3886301D01*
X2062378Y-3894074D01*
X2074316Y-3900220D01*
X2086965Y-3904742D01*
X2100122Y-3907485D01*
X2113838Y-3908399D01*
X2218131Y-3908399D01*
X2231898Y-3907485D01*
X2244090Y-3904945D01*
X2248408Y-3904945D01*
X2252319Y-3906774D01*
X2255113Y-3910076D01*
X2256282Y-3914190D01*
X2255672Y-3918458D01*
X2253335Y-3922064D01*
X2241092Y-3934155D01*
X2200960Y-3963619D01*
X2198116Y-3965092D01*
X2194966Y-3965600D01*
X2113838Y-3965600D01*
X2100122Y-3966514D01*
X2086965Y-3969258D01*
X2074316Y-3973779D01*
X2062378Y-3979926D01*
X2051405Y-3987698D01*
X2041601Y-3996842D01*
X2033117Y-4007256D01*
X2026157Y-4018737D01*
X2020773Y-4031030D01*
X2017166Y-4043984D01*
X2015337Y-4057294D01*
X2015337Y-4070705D01*
X2017166Y-4084015D01*
X2020773Y-4096969D01*
X2026157Y-4109262D01*
X2033117Y-4120743D01*
X2041601Y-4131157D01*
X2051405Y-4140301D01*
X2062378Y-4148074D01*
X2074316Y-4154220D01*
X2086965Y-4158742D01*
X2100122Y-4161485D01*
X2113838Y-4162399D01*
X2218131Y-4162399D01*
X2231898Y-4161485D01*
X2244090Y-4158945D01*
X2248408Y-4158945D01*
X2252319Y-4160774D01*
X2255113Y-4164076D01*
X2256282Y-4168190D01*
X2255672Y-4172458D01*
X2253335Y-4176064D01*
X2241092Y-4188155D01*
X2200960Y-4217619D01*
X2198116Y-4219092D01*
X2194915Y-4219600D01*
X2113838Y-4219600D01*
X2100122Y-4220514D01*
X2086965Y-4223258D01*
X2074316Y-4227779D01*
X2062378Y-4233926D01*
X2051405Y-4241698D01*
X2041601Y-4250842D01*
X2033117Y-4261256D01*
X2026157Y-4272737D01*
X2020773Y-4285030D01*
X2017166Y-4297984D01*
X2015337Y-4311294D01*
X2015337Y-4324705D01*
X2017166Y-4338015D01*
X2020773Y-4350969D01*
X2026157Y-4363262D01*
X2033117Y-4374743D01*
X2041601Y-4385157D01*
X2051405Y-4394301D01*
X2062378Y-4402074D01*
X2074316Y-4408220D01*
X2086965Y-4412742D01*
X2100122Y-4415485D01*
G37*
G36*
X3758844Y-973378D02*
G01*
X3831031Y-973378D01*
X3829862Y-970737D01*
X3822852Y-959256D01*
X3814419Y-948842D01*
X3804564Y-939698D01*
X3793642Y-931926D01*
X3781704Y-925779D01*
X3769055Y-921258D01*
X3758844Y-919124D01*
G37*
G36*
X3548989Y-973378D02*
G01*
X3621125Y-973378D01*
X3621125Y-919124D01*
X3610965Y-921258D01*
X3598316Y-925779D01*
X3586378Y-931926D01*
X3575405Y-939698D01*
X3565601Y-948842D01*
X3557117Y-959256D01*
X3550158Y-970737D01*
G37*
G36*
X8213648Y-4277309D02*
G01*
X8213648Y-4232351D01*
X8168690Y-4232351D01*
X8173110Y-4240784D01*
X8180628Y-4251502D01*
X8189569Y-4261053D01*
X8199729Y-4269333D01*
X8210905Y-4276090D01*
G37*
G36*
X8296351Y-4277309D02*
G01*
X8299094Y-4276090D01*
X8310270Y-4269333D01*
X8320430Y-4261053D01*
X8329371Y-4251502D01*
X8336889Y-4240784D01*
X8341309Y-4232351D01*
X8296351Y-4232351D01*
G37*
G36*
X7111593Y-1056640D02*
G01*
X7130389Y-1056640D01*
X7149134Y-1054760D01*
X7167575Y-1050950D01*
X7185558Y-1045311D01*
X7202881Y-1037894D01*
X7219340Y-1028750D01*
X7234783Y-1017981D01*
X7249058Y-1005738D01*
X7262063Y-992073D01*
X7273544Y-977188D01*
X7283551Y-961186D01*
X7291831Y-944321D01*
X7298385Y-926642D01*
X7303058Y-908405D01*
X7305954Y-889812D01*
X7306868Y-871016D01*
X7305954Y-852169D01*
X7303058Y-833577D01*
X7298385Y-815340D01*
X7291831Y-797661D01*
X7283551Y-780796D01*
X7273544Y-764794D01*
X7262063Y-749909D01*
X7249058Y-736244D01*
X7234783Y-724001D01*
X7219340Y-713232D01*
X7202881Y-704088D01*
X7185558Y-696671D01*
X7167575Y-691032D01*
X7149134Y-687222D01*
X7130389Y-685342D01*
X7111593Y-685342D01*
X7092848Y-687222D01*
X7074408Y-691032D01*
X7056424Y-696671D01*
X7039102Y-704088D01*
X7022642Y-713232D01*
X7007199Y-724001D01*
X6992924Y-736244D01*
X6979920Y-749909D01*
X6968439Y-764794D01*
X6958431Y-780796D01*
X6950151Y-797661D01*
X6943598Y-815340D01*
X6938924Y-833577D01*
X6936028Y-852169D01*
X6935114Y-871016D01*
X6936028Y-889812D01*
X6938924Y-908405D01*
X6943598Y-926642D01*
X6950151Y-944321D01*
X6958431Y-961186D01*
X6968439Y-977188D01*
X6979920Y-992073D01*
X6992924Y-1005738D01*
X7007199Y-1017981D01*
X7022642Y-1028750D01*
X7039102Y-1037894D01*
X7056424Y-1045311D01*
X7074408Y-1050950D01*
X7092848Y-1054760D01*
G37*
G36*
X8106613Y-1056690D02*
G01*
X8125409Y-1056690D01*
X8144154Y-1054760D01*
X8162594Y-1051001D01*
X8180578Y-1045362D01*
X8197900Y-1037894D01*
X8214359Y-1028750D01*
X8229803Y-1018032D01*
X8244078Y-1005738D01*
X8257082Y-992124D01*
X8268563Y-977188D01*
X8278571Y-961237D01*
X8286851Y-944321D01*
X8293404Y-926642D01*
X8298078Y-908456D01*
X8300974Y-889812D01*
X8301888Y-871016D01*
X8300974Y-852220D01*
X8298078Y-833577D01*
X8293404Y-815390D01*
X8286851Y-797712D01*
X8278571Y-780796D01*
X8268563Y-764844D01*
X8257082Y-749909D01*
X8244078Y-736295D01*
X8229803Y-724001D01*
X8214359Y-713282D01*
X8197900Y-704138D01*
X8180578Y-696671D01*
X8162594Y-691032D01*
X8144154Y-687273D01*
X8125409Y-685342D01*
X8106613Y-685342D01*
X8087868Y-687273D01*
X8069427Y-691032D01*
X8051444Y-696671D01*
X8034121Y-704138D01*
X8017662Y-713282D01*
X8002219Y-724001D01*
X7987944Y-736295D01*
X7974939Y-749909D01*
X7963458Y-764844D01*
X7953451Y-780796D01*
X7945170Y-797712D01*
X7938617Y-815390D01*
X7933944Y-833577D01*
X7931048Y-852220D01*
X7930134Y-871016D01*
X7931048Y-889812D01*
X7933944Y-908456D01*
X7938617Y-926642D01*
X7945170Y-944321D01*
X7953451Y-961237D01*
X7963458Y-977188D01*
X7974939Y-992124D01*
X7987944Y-1005738D01*
X8002219Y-1018032D01*
X8017662Y-1028750D01*
X8034121Y-1037894D01*
X8051444Y-1045362D01*
X8069427Y-1051001D01*
X8087868Y-1054760D01*
G37*
G36*
X8296351Y-4149648D02*
G01*
X8341309Y-4149648D01*
X8336889Y-4141215D01*
X8329371Y-4130497D01*
X8320430Y-4120946D01*
X8310270Y-4112666D01*
X8299094Y-4105910D01*
X8296351Y-4104690D01*
G37*
G36*
X8168690Y-4149648D02*
G01*
X8213648Y-4149648D01*
X8213648Y-4104690D01*
X8210905Y-4105910D01*
X8199729Y-4112666D01*
X8189569Y-4120946D01*
X8180628Y-4130497D01*
X8173110Y-4141215D01*
G37*
G36*
X8248446Y-4032656D02*
G01*
X8261553Y-4032656D01*
X8274507Y-4030878D01*
X8287105Y-4027322D01*
X8299094Y-4022090D01*
X8310270Y-4015333D01*
X8320430Y-4007053D01*
X8329371Y-3997502D01*
X8336889Y-3986784D01*
X8342934Y-3975201D01*
X8347303Y-3962857D01*
X8349945Y-3950055D01*
X8350859Y-3937000D01*
X8349945Y-3923944D01*
X8347303Y-3911142D01*
X8342934Y-3898798D01*
X8336889Y-3887215D01*
X8329371Y-3876497D01*
X8320430Y-3866946D01*
X8310270Y-3858666D01*
X8299094Y-3851910D01*
X8287105Y-3846677D01*
X8274507Y-3843121D01*
X8261553Y-3841343D01*
X8248446Y-3841343D01*
X8235492Y-3843121D01*
X8222894Y-3846677D01*
X8210905Y-3851910D01*
X8199729Y-3858666D01*
X8189569Y-3866946D01*
X8180628Y-3876497D01*
X8173110Y-3887215D01*
X8167065Y-3898798D01*
X8162696Y-3911142D01*
X8160054Y-3923944D01*
X8159140Y-3937000D01*
X8160054Y-3950055D01*
X8162696Y-3962857D01*
X8167065Y-3975201D01*
X8173110Y-3986784D01*
X8180628Y-3997502D01*
X8189569Y-4007053D01*
X8199729Y-4015333D01*
X8210905Y-4022090D01*
X8222894Y-4027322D01*
X8235492Y-4030878D01*
G37*
G36*
X9623044Y-1060754D02*
G01*
X9637572Y-1059840D01*
X9651847Y-1057148D01*
X9665716Y-1052626D01*
X9678873Y-1046429D01*
X9691166Y-1038656D01*
X9702393Y-1029360D01*
X9712350Y-1018743D01*
X9720884Y-1006957D01*
X9727895Y-994206D01*
X9733280Y-980694D01*
X9736886Y-966571D01*
X9738715Y-952144D01*
X9738715Y-937615D01*
X9736886Y-923188D01*
X9733280Y-909066D01*
X9727895Y-895553D01*
X9720884Y-882802D01*
X9712350Y-871016D01*
X9702393Y-860399D01*
X9691166Y-851103D01*
X9678873Y-843330D01*
X9665716Y-837133D01*
X9651847Y-832612D01*
X9637572Y-829919D01*
X9623044Y-829005D01*
X9608515Y-829919D01*
X9594240Y-832612D01*
X9580372Y-837133D01*
X9567214Y-843330D01*
X9554921Y-851103D01*
X9543694Y-860399D01*
X9533737Y-871016D01*
X9525203Y-882802D01*
X9518192Y-895553D01*
X9512808Y-909066D01*
X9509201Y-923188D01*
X9507372Y-937615D01*
X9507372Y-952144D01*
X9509201Y-966571D01*
X9512808Y-980694D01*
X9518192Y-994206D01*
X9525203Y-1006957D01*
X9533737Y-1018743D01*
X9543694Y-1029360D01*
X9554921Y-1038656D01*
X9567214Y-1046429D01*
X9580372Y-1052626D01*
X9594240Y-1057148D01*
X9608515Y-1059840D01*
G37*
G36*
X9172956Y-1060754D02*
G01*
X9187484Y-1059840D01*
X9201759Y-1057148D01*
X9215628Y-1052626D01*
X9228785Y-1046429D01*
X9241078Y-1038656D01*
X9252305Y-1029360D01*
X9262262Y-1018743D01*
X9270796Y-1006957D01*
X9277807Y-994206D01*
X9283192Y-980694D01*
X9286798Y-966571D01*
X9288627Y-952144D01*
X9288627Y-937615D01*
X9286798Y-923188D01*
X9283192Y-909066D01*
X9277807Y-895553D01*
X9270796Y-882802D01*
X9262262Y-871016D01*
X9252305Y-860399D01*
X9241078Y-851103D01*
X9228785Y-843330D01*
X9215628Y-837133D01*
X9201759Y-832612D01*
X9187484Y-829919D01*
X9172956Y-829005D01*
X9158427Y-829919D01*
X9144152Y-832612D01*
X9130284Y-837133D01*
X9117126Y-843330D01*
X9104833Y-851103D01*
X9093606Y-860399D01*
X9083649Y-871016D01*
X9075115Y-882802D01*
X9068104Y-895553D01*
X9062720Y-909066D01*
X9059113Y-923188D01*
X9057284Y-937615D01*
X9057284Y-952144D01*
X9059113Y-966571D01*
X9062720Y-980694D01*
X9068104Y-994206D01*
X9075115Y-1006957D01*
X9083649Y-1018743D01*
X9093606Y-1029360D01*
X9104833Y-1038656D01*
X9117126Y-1046429D01*
X9130284Y-1052626D01*
X9144152Y-1057148D01*
X9158427Y-1059840D01*
G37*
G36*
X3758844Y-1112875D02*
G01*
X3769055Y-1110742D01*
X3781704Y-1106220D01*
X3793642Y-1100074D01*
X3804564Y-1092301D01*
X3814419Y-1083157D01*
X3822852Y-1072743D01*
X3829862Y-1061262D01*
X3831031Y-1058621D01*
X3758844Y-1058621D01*
G37*
G36*
X3621125Y-1112875D02*
G01*
X3621125Y-1058621D01*
X3548989Y-1058621D01*
X3550158Y-1061262D01*
X3557117Y-1072743D01*
X3565601Y-1083157D01*
X3575405Y-1092301D01*
X3586378Y-1100074D01*
X3598316Y-1106220D01*
X3610965Y-1110742D01*
G37*
G36*
X2113838Y-1114399D02*
G01*
X2218131Y-1114399D01*
X2231898Y-1113485D01*
X2245055Y-1110742D01*
X2257704Y-1106220D01*
X2269642Y-1100074D01*
X2280564Y-1092301D01*
X2290419Y-1083157D01*
X2298852Y-1072743D01*
X2305862Y-1061262D01*
X2311196Y-1048969D01*
X2314803Y-1036015D01*
X2316632Y-1022705D01*
X2316632Y-1009294D01*
X2314803Y-995984D01*
X2311196Y-983030D01*
X2305862Y-970737D01*
X2298852Y-959256D01*
X2290419Y-948842D01*
X2280564Y-939698D01*
X2269642Y-931926D01*
X2257704Y-925779D01*
X2245055Y-921258D01*
X2231898Y-918514D01*
X2218131Y-917600D01*
X2113838Y-917600D01*
X2100122Y-918514D01*
X2086965Y-921258D01*
X2074316Y-925779D01*
X2062378Y-931926D01*
X2051405Y-939698D01*
X2041601Y-948842D01*
X2033117Y-959256D01*
X2026157Y-970737D01*
X2020773Y-983030D01*
X2017166Y-995984D01*
X2015337Y-1009294D01*
X2015337Y-1022705D01*
X2017166Y-1036015D01*
X2020773Y-1048969D01*
X2026157Y-1061262D01*
X2033117Y-1072743D01*
X2041601Y-1083157D01*
X2051405Y-1092301D01*
X2062378Y-1100074D01*
X2074316Y-1106220D01*
X2086965Y-1110742D01*
X2100122Y-1113485D01*
G37*
G36*
X1017269Y-1120648D02*
G01*
X1030935Y-1119733D01*
X1044346Y-1117041D01*
X1057300Y-1112672D01*
X1069594Y-1106627D01*
X1080973Y-1099007D01*
X1091234Y-1089964D01*
X1100277Y-1079703D01*
X1107897Y-1068324D01*
X1113942Y-1056030D01*
X1118362Y-1043076D01*
X1121003Y-1029665D01*
X1121918Y-1016000D01*
X1121003Y-1002334D01*
X1118362Y-988923D01*
X1113942Y-975969D01*
X1107897Y-963676D01*
X1100277Y-952296D01*
X1091234Y-942035D01*
X1080973Y-932992D01*
X1069594Y-925372D01*
X1057300Y-919327D01*
X1044346Y-914958D01*
X1030935Y-912266D01*
X1017269Y-911352D01*
X1003604Y-912266D01*
X990193Y-914958D01*
X977239Y-919327D01*
X964946Y-925372D01*
X953566Y-932992D01*
X943305Y-942035D01*
X934262Y-952296D01*
X926693Y-963676D01*
X920597Y-975969D01*
X916228Y-988923D01*
X913536Y-1002334D01*
X912672Y-1016000D01*
X913536Y-1029665D01*
X916228Y-1043076D01*
X920597Y-1056030D01*
X926693Y-1068324D01*
X934262Y-1079703D01*
X943305Y-1089964D01*
X953566Y-1099007D01*
X964946Y-1106627D01*
X977239Y-1112672D01*
X990193Y-1117041D01*
X1003604Y-1119733D01*
G37*
G36*
X2113838Y-3400399D02*
G01*
X2218131Y-3400399D01*
X2231898Y-3399485D01*
X2245055Y-3396742D01*
X2257704Y-3392220D01*
X2269642Y-3386074D01*
X2280564Y-3378301D01*
X2290419Y-3369157D01*
X2298852Y-3358743D01*
X2305862Y-3347262D01*
X2311196Y-3334969D01*
X2314803Y-3322015D01*
X2316632Y-3308705D01*
X2316632Y-3295294D01*
X2314803Y-3281984D01*
X2311196Y-3269030D01*
X2305862Y-3256737D01*
X2298852Y-3245256D01*
X2290419Y-3234842D01*
X2280564Y-3225698D01*
X2269642Y-3217926D01*
X2257704Y-3211779D01*
X2245055Y-3207258D01*
X2231898Y-3204514D01*
X2218131Y-3203600D01*
X2113838Y-3203600D01*
X2100122Y-3204514D01*
X2086965Y-3207258D01*
X2074316Y-3211779D01*
X2062378Y-3217926D01*
X2051405Y-3225698D01*
X2041601Y-3234842D01*
X2033117Y-3245256D01*
X2026157Y-3256737D01*
X2020773Y-3269030D01*
X2017166Y-3281984D01*
X2015337Y-3295294D01*
X2015337Y-3308705D01*
X2017166Y-3322015D01*
X2020773Y-3334969D01*
X2026157Y-3347262D01*
X2033117Y-3358743D01*
X2041601Y-3369157D01*
X2051405Y-3378301D01*
X2062378Y-3386074D01*
X2074316Y-3392220D01*
X2086965Y-3396742D01*
X2100122Y-3399485D01*
G37*
G36*
X9674402Y-1543761D02*
G01*
X9726777Y-1543761D01*
X9720884Y-1533042D01*
X9712350Y-1521256D01*
X9702393Y-1510639D01*
X9691166Y-1501343D01*
X9678873Y-1493570D01*
X9674402Y-1491437D01*
G37*
G36*
X2113838Y-3146399D02*
G01*
X2218131Y-3146399D01*
X2231898Y-3145485D01*
X2245055Y-3142742D01*
X2257704Y-3138220D01*
X2269642Y-3132074D01*
X2280564Y-3124301D01*
X2290419Y-3115157D01*
X2298852Y-3104743D01*
X2305862Y-3093262D01*
X2311196Y-3080969D01*
X2314803Y-3068015D01*
X2316632Y-3054705D01*
X2316632Y-3041294D01*
X2314803Y-3027984D01*
X2311196Y-3015030D01*
X2305862Y-3002737D01*
X2298852Y-2991256D01*
X2290419Y-2980842D01*
X2280564Y-2971698D01*
X2269642Y-2963926D01*
X2257704Y-2957779D01*
X2245055Y-2953258D01*
X2231898Y-2950514D01*
X2218131Y-2949600D01*
X2113838Y-2949600D01*
X2100122Y-2950514D01*
X2086965Y-2953258D01*
X2074316Y-2957779D01*
X2062378Y-2963926D01*
X2051405Y-2971698D01*
X2041601Y-2980842D01*
X2033117Y-2991256D01*
X2026157Y-3002737D01*
X2020773Y-3015030D01*
X2017166Y-3027984D01*
X2015337Y-3041294D01*
X2015337Y-3054705D01*
X2017166Y-3068015D01*
X2020773Y-3080969D01*
X2026157Y-3093262D01*
X2033117Y-3104743D01*
X2041601Y-3115157D01*
X2051405Y-3124301D01*
X2062378Y-3132074D01*
X2074316Y-3138220D01*
X2086965Y-3142742D01*
X2100122Y-3145485D01*
G37*
G36*
X9172956Y-2980994D02*
G01*
X9187484Y-2980080D01*
X9201759Y-2977388D01*
X9215628Y-2972866D01*
X9228785Y-2966669D01*
X9241078Y-2958896D01*
X9252305Y-2949600D01*
X9262262Y-2938983D01*
X9270796Y-2927197D01*
X9277807Y-2914446D01*
X9283192Y-2900934D01*
X9286798Y-2886811D01*
X9288627Y-2872384D01*
X9288627Y-2857855D01*
X9286798Y-2843428D01*
X9283192Y-2829306D01*
X9277807Y-2815793D01*
X9270796Y-2803042D01*
X9262262Y-2791256D01*
X9252305Y-2780639D01*
X9241078Y-2771343D01*
X9228785Y-2763570D01*
X9215628Y-2757373D01*
X9201759Y-2752852D01*
X9187484Y-2750159D01*
X9172956Y-2749245D01*
X9158427Y-2750159D01*
X9144152Y-2752852D01*
X9130284Y-2757373D01*
X9117126Y-2763570D01*
X9104833Y-2771343D01*
X9093606Y-2780639D01*
X9083649Y-2791256D01*
X9075115Y-2803042D01*
X9068104Y-2815793D01*
X9062720Y-2829306D01*
X9059113Y-2843428D01*
X9057284Y-2857855D01*
X9057284Y-2872384D01*
X9059113Y-2886811D01*
X9062720Y-2900934D01*
X9068104Y-2914446D01*
X9075115Y-2927197D01*
X9083649Y-2938983D01*
X9093606Y-2949600D01*
X9104833Y-2958896D01*
X9117126Y-2966669D01*
X9130284Y-2972866D01*
X9144152Y-2977388D01*
X9158427Y-2980080D01*
G37*
G36*
X9623044Y-2980994D02*
G01*
X9637572Y-2980080D01*
X9651847Y-2977388D01*
X9665716Y-2972866D01*
X9678873Y-2966669D01*
X9691166Y-2958896D01*
X9702393Y-2949600D01*
X9712350Y-2938983D01*
X9720884Y-2927197D01*
X9727895Y-2914446D01*
X9733280Y-2900934D01*
X9736886Y-2886811D01*
X9738715Y-2872384D01*
X9738715Y-2857855D01*
X9736886Y-2843428D01*
X9733280Y-2829306D01*
X9727895Y-2815793D01*
X9720884Y-2803042D01*
X9712350Y-2791256D01*
X9702393Y-2780639D01*
X9691166Y-2771343D01*
X9678873Y-2763570D01*
X9665716Y-2757373D01*
X9651847Y-2752852D01*
X9637572Y-2750159D01*
X9623044Y-2749245D01*
X9608515Y-2750159D01*
X9594240Y-2752852D01*
X9580372Y-2757373D01*
X9567214Y-2763570D01*
X9554921Y-2771343D01*
X9543694Y-2780639D01*
X9533737Y-2791256D01*
X9525203Y-2803042D01*
X9518192Y-2815793D01*
X9512808Y-2829306D01*
X9509201Y-2843428D01*
X9507372Y-2857855D01*
X9507372Y-2872384D01*
X9509201Y-2886811D01*
X9512808Y-2900934D01*
X9518192Y-2914446D01*
X9525203Y-2927197D01*
X9533737Y-2938983D01*
X9543694Y-2949600D01*
X9554921Y-2958896D01*
X9567214Y-2966669D01*
X9580372Y-2972866D01*
X9594240Y-2977388D01*
X9608515Y-2980080D01*
G37*
G36*
X1062990Y-2898648D02*
G01*
X1095451Y-2898648D01*
X1101750Y-2897936D01*
X1107236Y-2896006D01*
X1112113Y-2892958D01*
X1116228Y-2888843D01*
X1119327Y-2883966D01*
X1121206Y-2878480D01*
X1121918Y-2872181D01*
X1121918Y-2839720D01*
X1062990Y-2839720D01*
G37*
G36*
X939088Y-2898648D02*
G01*
X971550Y-2898648D01*
X971550Y-2839720D01*
X912621Y-2839720D01*
X912621Y-2872181D01*
X913333Y-2878480D01*
X915263Y-2883966D01*
X918311Y-2888843D01*
X922426Y-2892958D01*
X927303Y-2896006D01*
X932789Y-2897936D01*
G37*
G36*
X2113838Y-2892399D02*
G01*
X2218131Y-2892399D01*
X2231898Y-2891485D01*
X2245055Y-2888742D01*
X2257704Y-2884220D01*
X2269642Y-2878074D01*
X2280564Y-2870301D01*
X2290419Y-2861157D01*
X2298852Y-2850743D01*
X2305862Y-2839262D01*
X2311196Y-2826969D01*
X2314803Y-2814015D01*
X2316632Y-2800705D01*
X2316632Y-2787294D01*
X2314803Y-2773984D01*
X2311196Y-2761030D01*
X2305862Y-2748737D01*
X2298852Y-2737256D01*
X2290419Y-2726842D01*
X2280564Y-2717698D01*
X2269642Y-2709926D01*
X2257704Y-2703779D01*
X2245055Y-2699258D01*
X2231898Y-2696514D01*
X2218131Y-2695600D01*
X2113838Y-2695600D01*
X2100122Y-2696514D01*
X2086965Y-2699258D01*
X2074316Y-2703779D01*
X2062378Y-2709926D01*
X2051405Y-2717698D01*
X2041601Y-2726842D01*
X2033117Y-2737256D01*
X2026157Y-2748737D01*
X2020773Y-2761030D01*
X2017166Y-2773984D01*
X2015337Y-2787294D01*
X2015337Y-2800705D01*
X2017166Y-2814015D01*
X2020773Y-2826969D01*
X2026157Y-2839262D01*
X2033117Y-2850743D01*
X2041601Y-2861157D01*
X2051405Y-2870301D01*
X2062378Y-2878074D01*
X2074316Y-2884220D01*
X2086965Y-2888742D01*
X2100122Y-2891485D01*
G37*
G36*
X9519310Y-1543761D02*
G01*
X9571685Y-1543761D01*
X9571685Y-1491437D01*
X9567214Y-1493570D01*
X9554921Y-1501343D01*
X9543694Y-1510639D01*
X9533737Y-1521256D01*
X9525203Y-1533042D01*
G37*
G36*
X5207000Y-2792882D02*
G01*
X5222189Y-2791968D01*
X5237124Y-2789224D01*
X5251653Y-2784703D01*
X5265521Y-2778455D01*
X5278526Y-2770581D01*
X5290464Y-2761234D01*
X5301234Y-2750464D01*
X5310581Y-2738526D01*
X5318455Y-2725521D01*
X5324754Y-2711602D01*
X5326938Y-2708402D01*
X5330190Y-2706319D01*
X5334000Y-2705608D01*
X5337810Y-2706319D01*
X5341061Y-2708402D01*
X5343245Y-2711602D01*
X5349544Y-2725521D01*
X5357418Y-2738526D01*
X5366766Y-2750464D01*
X5377535Y-2761234D01*
X5389473Y-2770581D01*
X5402478Y-2778455D01*
X5416346Y-2784703D01*
X5430875Y-2789224D01*
X5445810Y-2791968D01*
X5461000Y-2792882D01*
X5476189Y-2791968D01*
X5491124Y-2789224D01*
X5505653Y-2784703D01*
X5519521Y-2778455D01*
X5532526Y-2770581D01*
X5544464Y-2761234D01*
X5555234Y-2750464D01*
X5564581Y-2738526D01*
X5572455Y-2725521D01*
X5578754Y-2711602D01*
X5580938Y-2708402D01*
X5584190Y-2706319D01*
X5588000Y-2705608D01*
X5591810Y-2706319D01*
X5595061Y-2708402D01*
X5597245Y-2711602D01*
X5603544Y-2725521D01*
X5611418Y-2738526D01*
X5620766Y-2750464D01*
X5631535Y-2761234D01*
X5643473Y-2770581D01*
X5656478Y-2778455D01*
X5670346Y-2784703D01*
X5684875Y-2789224D01*
X5699810Y-2791968D01*
X5715000Y-2792882D01*
X5730189Y-2791968D01*
X5745124Y-2789224D01*
X5759653Y-2784703D01*
X5773521Y-2778455D01*
X5786526Y-2770581D01*
X5798464Y-2761234D01*
X5809234Y-2750464D01*
X5818581Y-2738526D01*
X5826455Y-2725521D01*
X5832754Y-2711602D01*
X5834938Y-2708402D01*
X5838190Y-2706319D01*
X5842000Y-2705608D01*
X5845810Y-2706319D01*
X5849061Y-2708402D01*
X5851245Y-2711602D01*
X5857544Y-2725521D01*
X5865418Y-2738526D01*
X5874766Y-2750464D01*
X5885535Y-2761234D01*
X5897473Y-2770581D01*
X5910478Y-2778455D01*
X5924346Y-2784703D01*
X5938875Y-2789224D01*
X5953810Y-2791968D01*
X5969000Y-2792882D01*
X5984189Y-2791968D01*
X5999124Y-2789224D01*
X6013653Y-2784703D01*
X6027521Y-2778455D01*
X6040526Y-2770581D01*
X6052718Y-2761030D01*
X6112103Y-2708198D01*
X6115253Y-2706268D01*
X6118860Y-2705608D01*
X7797292Y-2705608D01*
X7805318Y-2704795D01*
X7812531Y-2702610D01*
X7819237Y-2699054D01*
X7825435Y-2693924D01*
X8060029Y-2459380D01*
X8062874Y-2457348D01*
X8066278Y-2456434D01*
X8122208Y-2451354D01*
X8135620Y-2449525D01*
X8148777Y-2445918D01*
X8161324Y-2440635D01*
X8173059Y-2433675D01*
X8183778Y-2425192D01*
X8193278Y-2415387D01*
X8201355Y-2404414D01*
X8207908Y-2392476D01*
X8212785Y-2379726D01*
X8215985Y-2366467D01*
X8217306Y-2352903D01*
X8216849Y-2339289D01*
X8214614Y-2325827D01*
X8210550Y-2312822D01*
X8204809Y-2300427D01*
X8197494Y-2288946D01*
X8188706Y-2278532D01*
X8178546Y-2269388D01*
X8167319Y-2261666D01*
X8155178Y-2255520D01*
X8142274Y-2251049D01*
X8128914Y-2248306D01*
X8115300Y-2247392D01*
X8101685Y-2248306D01*
X8088325Y-2251049D01*
X8075422Y-2255520D01*
X8063280Y-2261666D01*
X8052053Y-2269388D01*
X8041894Y-2278532D01*
X8033105Y-2288946D01*
X8025790Y-2300427D01*
X8020050Y-2312822D01*
X8015986Y-2325827D01*
X8013700Y-2339543D01*
X8008366Y-2398522D01*
X8007451Y-2401925D01*
X8005419Y-2404770D01*
X7784795Y-2625394D01*
X7781493Y-2627630D01*
X7777581Y-2628392D01*
X6118860Y-2628392D01*
X6115253Y-2627731D01*
X6112103Y-2625801D01*
X6052616Y-2572867D01*
X6040526Y-2563418D01*
X6027521Y-2555544D01*
X6013602Y-2549245D01*
X6010402Y-2547061D01*
X6008319Y-2543810D01*
X6007608Y-2540000D01*
X6008319Y-2536190D01*
X6010402Y-2532938D01*
X6013602Y-2530754D01*
X6027521Y-2524455D01*
X6040526Y-2516581D01*
X6052464Y-2507234D01*
X6063234Y-2496464D01*
X6072581Y-2484526D01*
X6080455Y-2471521D01*
X6086703Y-2457653D01*
X6091224Y-2443124D01*
X6093968Y-2428189D01*
X6094882Y-2413000D01*
X6093968Y-2397810D01*
X6091224Y-2382875D01*
X6086703Y-2368346D01*
X6080455Y-2354478D01*
X6072581Y-2341473D01*
X6063234Y-2329535D01*
X6052464Y-2318766D01*
X6040526Y-2309418D01*
X6027521Y-2301544D01*
X6013653Y-2295296D01*
X5999124Y-2290775D01*
X5984189Y-2288032D01*
X5969000Y-2287117D01*
X5953810Y-2288032D01*
X5938875Y-2290775D01*
X5924346Y-2295296D01*
X5910478Y-2301544D01*
X5897473Y-2309418D01*
X5885535Y-2318766D01*
X5874766Y-2329535D01*
X5865418Y-2341473D01*
X5857544Y-2354478D01*
X5851245Y-2368397D01*
X5849061Y-2371598D01*
X5845810Y-2373680D01*
X5842000Y-2374392D01*
X5838190Y-2373680D01*
X5834938Y-2371598D01*
X5832754Y-2368397D01*
X5826455Y-2354478D01*
X5818581Y-2341473D01*
X5809234Y-2329535D01*
X5798464Y-2318766D01*
X5786526Y-2309418D01*
X5773521Y-2301544D01*
X5759653Y-2295296D01*
X5745124Y-2290775D01*
X5730189Y-2288032D01*
X5715000Y-2287117D01*
X5699810Y-2288032D01*
X5684875Y-2290775D01*
X5670346Y-2295296D01*
X5656478Y-2301544D01*
X5643473Y-2309418D01*
X5631535Y-2318766D01*
X5620766Y-2329535D01*
X5611418Y-2341473D01*
X5603544Y-2354478D01*
X5597245Y-2368397D01*
X5595061Y-2371598D01*
X5591810Y-2373680D01*
X5588000Y-2374392D01*
X5584190Y-2373680D01*
X5580938Y-2371598D01*
X5578754Y-2368397D01*
X5572455Y-2354478D01*
X5564581Y-2341473D01*
X5555234Y-2329535D01*
X5544464Y-2318766D01*
X5532526Y-2309418D01*
X5519521Y-2301544D01*
X5505653Y-2295296D01*
X5491124Y-2290775D01*
X5476189Y-2288032D01*
X5461000Y-2287117D01*
X5445810Y-2288032D01*
X5430875Y-2290775D01*
X5416346Y-2295296D01*
X5402478Y-2301544D01*
X5389473Y-2309418D01*
X5377535Y-2318766D01*
X5366766Y-2329535D01*
X5357418Y-2341473D01*
X5349544Y-2354478D01*
X5343245Y-2368397D01*
X5338775Y-2382875D01*
X5336032Y-2397810D01*
X5335117Y-2413000D01*
X5336032Y-2428189D01*
X5338775Y-2443124D01*
X5343245Y-2457602D01*
X5349544Y-2471521D01*
X5357418Y-2484526D01*
X5366766Y-2496464D01*
X5377535Y-2507234D01*
X5389473Y-2516581D01*
X5402478Y-2524455D01*
X5416397Y-2530754D01*
X5419598Y-2532938D01*
X5421680Y-2536190D01*
X5422392Y-2540000D01*
X5421680Y-2543810D01*
X5419598Y-2547061D01*
X5416397Y-2549245D01*
X5402478Y-2555544D01*
X5389473Y-2563418D01*
X5377535Y-2572766D01*
X5366766Y-2583535D01*
X5357418Y-2595473D01*
X5349544Y-2608478D01*
X5343245Y-2622397D01*
X5341061Y-2625598D01*
X5337810Y-2627680D01*
X5334000Y-2628392D01*
X5330190Y-2627680D01*
X5326938Y-2625598D01*
X5324754Y-2622397D01*
X5318455Y-2608478D01*
X5310581Y-2595473D01*
X5301234Y-2583535D01*
X5290464Y-2572766D01*
X5278526Y-2563418D01*
X5265521Y-2555544D01*
X5251602Y-2549245D01*
X5237124Y-2544775D01*
X5222189Y-2542032D01*
X5207000Y-2541117D01*
X5191810Y-2542032D01*
X5176875Y-2544775D01*
X5162397Y-2549245D01*
X5148478Y-2555544D01*
X5135473Y-2563418D01*
X5123535Y-2572766D01*
X5112766Y-2583535D01*
X5103418Y-2595473D01*
X5095544Y-2608478D01*
X5089296Y-2622346D01*
X5084775Y-2636875D01*
X5082032Y-2651810D01*
X5081117Y-2667000D01*
X5082032Y-2682189D01*
X5084775Y-2697124D01*
X5089296Y-2711653D01*
X5095544Y-2725521D01*
X5103418Y-2738526D01*
X5112766Y-2750464D01*
X5123535Y-2761234D01*
X5135473Y-2770581D01*
X5148478Y-2778455D01*
X5162346Y-2784703D01*
X5176875Y-2789224D01*
X5191810Y-2791968D01*
G37*
G36*
X2113838Y-1622399D02*
G01*
X2218131Y-1622399D01*
X2231898Y-1621485D01*
X2245055Y-1618742D01*
X2257704Y-1614220D01*
X2269642Y-1608074D01*
X2280564Y-1600301D01*
X2290419Y-1591157D01*
X2298852Y-1580743D01*
X2305862Y-1569262D01*
X2311196Y-1556969D01*
X2314803Y-1544015D01*
X2316632Y-1530705D01*
X2316632Y-1517294D01*
X2314803Y-1503984D01*
X2311196Y-1491030D01*
X2305862Y-1478737D01*
X2298852Y-1467256D01*
X2290419Y-1456842D01*
X2280564Y-1447698D01*
X2269642Y-1439926D01*
X2259126Y-1434490D01*
X2255672Y-1431594D01*
X2253843Y-1427530D01*
X2253894Y-1423060D01*
X2255926Y-1419047D01*
X2259431Y-1416304D01*
X2263800Y-1415338D01*
X3582822Y-1415338D01*
X3590848Y-1414526D01*
X3597706Y-1412494D01*
X3604717Y-1408785D01*
X3610965Y-1403654D01*
X3618737Y-1396085D01*
X3654907Y-1370279D01*
X3657701Y-1368907D01*
X3660800Y-1368399D01*
X3742131Y-1368399D01*
X3755898Y-1367485D01*
X3769055Y-1364742D01*
X3781704Y-1360220D01*
X3793642Y-1354074D01*
X3804564Y-1346301D01*
X3814419Y-1337157D01*
X3822852Y-1326743D01*
X3829862Y-1315262D01*
X3835196Y-1302969D01*
X3838803Y-1290015D01*
X3840632Y-1276705D01*
X3840632Y-1263294D01*
X3838803Y-1249984D01*
X3835196Y-1237030D01*
X3829862Y-1224737D01*
X3822852Y-1213256D01*
X3814419Y-1202842D01*
X3804564Y-1193698D01*
X3793642Y-1185926D01*
X3781704Y-1179779D01*
X3769055Y-1175258D01*
X3755898Y-1172514D01*
X3742131Y-1171600D01*
X3637838Y-1171600D01*
X3624122Y-1172514D01*
X3610965Y-1175258D01*
X3598316Y-1179779D01*
X3586378Y-1185926D01*
X3575405Y-1193698D01*
X3565601Y-1202842D01*
X3557117Y-1213256D01*
X3550158Y-1224737D01*
X3544773Y-1237030D01*
X3541166Y-1249984D01*
X3539337Y-1263294D01*
X3539337Y-1276705D01*
X3541166Y-1290015D01*
X3544773Y-1302969D01*
X3550158Y-1315262D01*
X3554628Y-1322679D01*
X3556050Y-1326692D01*
X3555644Y-1330960D01*
X3553561Y-1334668D01*
X3550158Y-1337208D01*
X3545941Y-1338122D01*
X2310028Y-1338122D01*
X2305862Y-1337208D01*
X2302408Y-1334668D01*
X2300325Y-1330960D01*
X2299970Y-1326692D01*
X2301341Y-1322679D01*
X2305862Y-1315262D01*
X2311196Y-1302969D01*
X2314803Y-1290015D01*
X2316632Y-1276705D01*
X2316632Y-1263294D01*
X2314803Y-1249984D01*
X2311196Y-1237030D01*
X2305862Y-1224737D01*
X2298852Y-1213256D01*
X2290419Y-1202842D01*
X2280564Y-1193698D01*
X2269642Y-1185926D01*
X2257704Y-1179779D01*
X2245055Y-1175258D01*
X2231898Y-1172514D01*
X2218131Y-1171600D01*
X2113838Y-1171600D01*
X2100122Y-1172514D01*
X2086965Y-1175258D01*
X2074316Y-1179779D01*
X2062378Y-1185926D01*
X2051405Y-1193698D01*
X2041601Y-1202842D01*
X2033117Y-1213256D01*
X2026157Y-1224737D01*
X2020773Y-1237030D01*
X2017166Y-1249984D01*
X2015337Y-1263294D01*
X2015337Y-1276705D01*
X2017166Y-1290015D01*
X2020773Y-1302969D01*
X2026157Y-1315262D01*
X2030628Y-1322679D01*
X2032050Y-1326692D01*
X2031644Y-1330960D01*
X2029561Y-1334668D01*
X2026157Y-1337208D01*
X2021941Y-1338122D01*
X1250899Y-1338122D01*
X1246987Y-1337310D01*
X1243685Y-1335125D01*
X1151636Y-1243076D01*
X1145387Y-1237945D01*
X1138732Y-1234389D01*
X1135938Y-1233525D01*
X1133144Y-1232204D01*
X1126388Y-1227582D01*
X1124000Y-1225296D01*
X1122476Y-1222400D01*
X1121918Y-1219200D01*
X1121918Y-1191818D01*
X1121206Y-1185519D01*
X1119327Y-1180033D01*
X1116228Y-1175156D01*
X1112113Y-1171041D01*
X1107236Y-1167993D01*
X1101750Y-1166063D01*
X1095451Y-1165352D01*
X939088Y-1165352D01*
X932789Y-1166063D01*
X927303Y-1167993D01*
X922426Y-1171041D01*
X918311Y-1175156D01*
X915263Y-1180033D01*
X913333Y-1185519D01*
X912621Y-1191818D01*
X912621Y-1348181D01*
X913333Y-1354480D01*
X915263Y-1359966D01*
X918311Y-1364843D01*
X922426Y-1368958D01*
X927303Y-1372006D01*
X932789Y-1373936D01*
X939088Y-1374648D01*
X1095451Y-1374648D01*
X1101750Y-1373936D01*
X1107236Y-1372006D01*
X1112113Y-1368958D01*
X1116228Y-1364843D01*
X1119327Y-1359966D01*
X1121206Y-1354480D01*
X1121918Y-1347063D01*
X1122680Y-1343202D01*
X1124915Y-1339900D01*
X1128217Y-1337716D01*
X1132078Y-1336903D01*
X1135989Y-1337716D01*
X1139291Y-1339900D01*
X1203045Y-1403654D01*
X1209243Y-1408785D01*
X1215948Y-1412341D01*
X1223162Y-1414526D01*
X1231188Y-1415338D01*
X2068220Y-1415338D01*
X2072589Y-1416304D01*
X2076094Y-1419047D01*
X2078075Y-1423060D01*
X2078177Y-1427530D01*
X2076297Y-1431594D01*
X2072893Y-1434490D01*
X2062378Y-1439926D01*
X2051405Y-1447698D01*
X2041601Y-1456842D01*
X2033117Y-1467256D01*
X2026157Y-1478737D01*
X2020773Y-1491030D01*
X2017166Y-1503984D01*
X2015337Y-1517294D01*
X2015337Y-1530705D01*
X2017166Y-1544015D01*
X2020773Y-1556969D01*
X2026157Y-1569262D01*
X2033117Y-1580743D01*
X2041601Y-1591157D01*
X2051405Y-1600301D01*
X2062378Y-1608074D01*
X2074316Y-1614220D01*
X2086965Y-1618742D01*
X2100122Y-1621485D01*
G37*
G36*
X3637838Y-1622399D02*
G01*
X3742131Y-1622399D01*
X3755898Y-1621485D01*
X3769055Y-1618742D01*
X3781704Y-1614220D01*
X3793642Y-1608074D01*
X3804564Y-1600301D01*
X3814419Y-1591157D01*
X3822852Y-1580743D01*
X3829862Y-1569262D01*
X3835196Y-1556969D01*
X3838803Y-1544015D01*
X3840632Y-1530705D01*
X3840632Y-1517294D01*
X3838803Y-1503984D01*
X3835196Y-1491030D01*
X3829862Y-1478737D01*
X3822852Y-1467256D01*
X3814419Y-1456842D01*
X3804564Y-1447698D01*
X3793642Y-1439926D01*
X3781704Y-1433779D01*
X3769055Y-1429258D01*
X3755898Y-1426514D01*
X3742131Y-1425600D01*
X3637838Y-1425600D01*
X3624122Y-1426514D01*
X3610965Y-1429258D01*
X3598316Y-1433779D01*
X3586378Y-1439926D01*
X3575405Y-1447698D01*
X3565601Y-1456842D01*
X3557117Y-1467256D01*
X3550158Y-1478737D01*
X3544773Y-1491030D01*
X3541166Y-1503984D01*
X3539337Y-1517294D01*
X3539337Y-1530705D01*
X3541166Y-1544015D01*
X3544773Y-1556969D01*
X3550158Y-1569262D01*
X3557117Y-1580743D01*
X3565601Y-1591157D01*
X3575405Y-1600301D01*
X3586378Y-1608074D01*
X3598316Y-1614220D01*
X3610965Y-1618742D01*
X3624122Y-1621485D01*
G37*
G36*
X9674402Y-1698802D02*
G01*
X9678873Y-1696669D01*
X9691166Y-1688896D01*
X9702393Y-1679600D01*
X9712350Y-1668983D01*
X9720884Y-1657197D01*
X9726777Y-1646478D01*
X9674402Y-1646478D01*
G37*
G36*
X1062990Y-2748280D02*
G01*
X1121918Y-2748280D01*
X1121918Y-2715818D01*
X1121206Y-2709519D01*
X1119327Y-2704033D01*
X1116228Y-2699156D01*
X1112113Y-2695041D01*
X1107236Y-2691993D01*
X1101750Y-2690063D01*
X1095451Y-2689352D01*
X1062990Y-2689352D01*
G37*
G36*
X912621Y-2748280D02*
G01*
X971550Y-2748280D01*
X971550Y-2689352D01*
X939088Y-2689352D01*
X932789Y-2690063D01*
X927303Y-2691993D01*
X922426Y-2695041D01*
X918311Y-2699156D01*
X915263Y-2704033D01*
X913333Y-2709519D01*
X912621Y-2715818D01*
G37*
G36*
X1017269Y-2644648D02*
G01*
X1030935Y-2643733D01*
X1044346Y-2641041D01*
X1057300Y-2636672D01*
X1069594Y-2630627D01*
X1080973Y-2623007D01*
X1091234Y-2613964D01*
X1100277Y-2603703D01*
X1107897Y-2592324D01*
X1113942Y-2580030D01*
X1118362Y-2567076D01*
X1121003Y-2553665D01*
X1121918Y-2540000D01*
X1121003Y-2526334D01*
X1118362Y-2512923D01*
X1113942Y-2499969D01*
X1107897Y-2487676D01*
X1100277Y-2476296D01*
X1091234Y-2466035D01*
X1080973Y-2456992D01*
X1069594Y-2449372D01*
X1057300Y-2443327D01*
X1044346Y-2438958D01*
X1030935Y-2436266D01*
X1017269Y-2435352D01*
X1003604Y-2436266D01*
X990193Y-2438958D01*
X977239Y-2443327D01*
X964946Y-2449372D01*
X953566Y-2456992D01*
X943305Y-2466035D01*
X934262Y-2476296D01*
X926693Y-2487676D01*
X920597Y-2499969D01*
X916228Y-2512923D01*
X913536Y-2526334D01*
X912672Y-2540000D01*
X913536Y-2553665D01*
X916228Y-2567076D01*
X920597Y-2580030D01*
X926693Y-2592324D01*
X934262Y-2603703D01*
X943305Y-2613964D01*
X953566Y-2623007D01*
X964946Y-2630627D01*
X977239Y-2636672D01*
X990193Y-2641041D01*
X1003604Y-2643733D01*
G37*
G36*
X10515600Y-6160008D02*
G01*
X10530992Y-6159042D01*
X10546130Y-6156299D01*
X10560812Y-6151727D01*
X10574832Y-6145377D01*
X10588040Y-6137402D01*
X10600131Y-6127902D01*
X10611002Y-6117031D01*
X10620502Y-6104940D01*
X10628477Y-6091732D01*
X10634827Y-6077712D01*
X10639399Y-6063030D01*
X10642142Y-6047892D01*
X10643108Y-6032500D01*
X10642142Y-6017107D01*
X10639399Y-6001969D01*
X10634827Y-5987288D01*
X10628477Y-5973267D01*
X10620502Y-5960059D01*
X10611002Y-5947968D01*
X10600131Y-5937097D01*
X10588040Y-5927598D01*
X10574832Y-5919622D01*
X10560812Y-5913272D01*
X10546130Y-5908700D01*
X10530992Y-5905957D01*
X10515600Y-5904992D01*
X10500207Y-5905957D01*
X10485069Y-5908700D01*
X10470388Y-5913272D01*
X10456367Y-5919622D01*
X10443159Y-5927598D01*
X10431068Y-5937097D01*
X10420197Y-5947968D01*
X10410698Y-5960059D01*
X10402722Y-5973267D01*
X10396372Y-5987288D01*
X10391800Y-6001969D01*
X10389057Y-6017107D01*
X10388092Y-6032500D01*
X10389057Y-6047892D01*
X10391800Y-6063030D01*
X10396372Y-6077712D01*
X10402722Y-6091732D01*
X10410698Y-6104940D01*
X10420197Y-6117031D01*
X10431068Y-6127902D01*
X10443159Y-6137402D01*
X10456367Y-6145377D01*
X10470388Y-6151727D01*
X10485069Y-6156299D01*
X10500207Y-6159042D01*
G37*
G36*
X9571685Y-1698802D02*
G01*
X9571685Y-1646478D01*
X9519310Y-1646478D01*
X9525203Y-1657197D01*
X9533737Y-1668983D01*
X9543694Y-1679600D01*
X9554921Y-1688896D01*
X9567214Y-1696669D01*
G37*
G36*
X2113838Y-1876399D02*
G01*
X2218131Y-1876399D01*
X2231898Y-1875485D01*
X2245055Y-1872742D01*
X2257704Y-1868220D01*
X2269642Y-1862074D01*
X2280564Y-1854301D01*
X2290419Y-1845157D01*
X2298852Y-1834743D01*
X2305862Y-1823262D01*
X2311196Y-1810969D01*
X2314803Y-1798015D01*
X2316632Y-1784705D01*
X2316632Y-1771294D01*
X2314803Y-1757984D01*
X2311196Y-1745030D01*
X2305862Y-1732737D01*
X2298852Y-1721256D01*
X2290419Y-1710842D01*
X2280564Y-1701698D01*
X2269642Y-1693925D01*
X2257704Y-1687779D01*
X2245055Y-1683257D01*
X2231898Y-1680514D01*
X2218131Y-1679600D01*
X2113838Y-1679600D01*
X2100122Y-1680514D01*
X2086965Y-1683257D01*
X2074316Y-1687779D01*
X2062378Y-1693925D01*
X2051405Y-1701698D01*
X2041601Y-1710842D01*
X2033117Y-1721256D01*
X2026157Y-1732737D01*
X2020773Y-1745030D01*
X2017166Y-1757984D01*
X2015337Y-1771294D01*
X2015337Y-1784705D01*
X2017166Y-1798015D01*
X2020773Y-1810969D01*
X2026157Y-1823262D01*
X2033117Y-1834743D01*
X2041601Y-1845157D01*
X2051405Y-1854301D01*
X2062378Y-1862074D01*
X2074316Y-1868220D01*
X2086965Y-1872742D01*
X2100122Y-1875485D01*
G37*
G36*
X3637838Y-1876399D02*
G01*
X3742131Y-1876399D01*
X3755898Y-1875485D01*
X3769055Y-1872742D01*
X3781704Y-1868220D01*
X3793642Y-1862074D01*
X3804564Y-1854301D01*
X3814419Y-1845157D01*
X3822852Y-1834743D01*
X3829862Y-1823262D01*
X3835196Y-1810969D01*
X3838803Y-1798015D01*
X3840632Y-1784705D01*
X3840632Y-1771294D01*
X3838803Y-1757984D01*
X3835196Y-1745030D01*
X3829862Y-1732737D01*
X3822852Y-1721256D01*
X3814419Y-1710842D01*
X3804564Y-1701698D01*
X3793642Y-1693925D01*
X3781704Y-1687779D01*
X3769055Y-1683257D01*
X3755898Y-1680514D01*
X3742131Y-1679600D01*
X3637838Y-1679600D01*
X3624122Y-1680514D01*
X3610965Y-1683257D01*
X3598316Y-1687779D01*
X3586378Y-1693925D01*
X3575405Y-1701698D01*
X3565601Y-1710842D01*
X3557117Y-1721256D01*
X3550158Y-1732737D01*
X3544773Y-1745030D01*
X3541166Y-1757984D01*
X3539337Y-1771294D01*
X3539337Y-1784705D01*
X3541166Y-1798015D01*
X3544773Y-1810969D01*
X3550158Y-1823262D01*
X3557117Y-1834743D01*
X3565601Y-1845157D01*
X3575405Y-1854301D01*
X3586378Y-1862074D01*
X3598316Y-1868220D01*
X3610965Y-1872742D01*
X3624122Y-1875485D01*
G37*
G36*
X5263337Y-2525420D02*
G01*
X5265521Y-2524455D01*
X5278526Y-2516581D01*
X5290464Y-2507234D01*
X5301234Y-2496464D01*
X5310581Y-2484526D01*
X5318455Y-2471521D01*
X5319420Y-2469337D01*
X5263337Y-2469337D01*
G37*
G36*
X5150662Y-2525420D02*
G01*
X5150662Y-2469337D01*
X5094579Y-2469337D01*
X5095544Y-2471521D01*
X5103418Y-2484526D01*
X5112766Y-2496464D01*
X5123535Y-2507234D01*
X5135473Y-2516581D01*
X5148478Y-2524455D01*
G37*
G36*
X7346492Y-2451354D02*
G01*
X7360107Y-2451354D01*
X7373620Y-2449525D01*
X7386777Y-2445918D01*
X7399324Y-2440635D01*
X7411059Y-2433675D01*
X7421778Y-2425192D01*
X7431278Y-2415387D01*
X7439355Y-2404414D01*
X7445908Y-2392476D01*
X7450785Y-2379726D01*
X7453985Y-2366467D01*
X7455306Y-2352903D01*
X7454849Y-2339289D01*
X7452614Y-2325827D01*
X7448550Y-2312822D01*
X7442809Y-2300427D01*
X7435494Y-2288946D01*
X7426706Y-2278532D01*
X7416546Y-2269388D01*
X7405319Y-2261666D01*
X7393178Y-2255520D01*
X7380274Y-2251049D01*
X7366914Y-2248306D01*
X7353300Y-2247392D01*
X7339685Y-2248306D01*
X7326325Y-2251049D01*
X7313422Y-2255520D01*
X7301280Y-2261666D01*
X7290053Y-2269388D01*
X7279894Y-2278532D01*
X7271105Y-2288946D01*
X7263790Y-2300427D01*
X7258050Y-2312822D01*
X7253986Y-2325827D01*
X7251750Y-2339289D01*
X7251293Y-2352903D01*
X7252614Y-2366467D01*
X7255814Y-2379726D01*
X7260691Y-2392476D01*
X7267244Y-2404414D01*
X7275322Y-2415387D01*
X7284821Y-2425192D01*
X7295540Y-2433675D01*
X7307275Y-2440635D01*
X7319822Y-2445918D01*
X7332980Y-2449525D01*
G37*
G36*
X7092492Y-2451354D02*
G01*
X7106107Y-2451354D01*
X7119620Y-2449525D01*
X7132777Y-2445918D01*
X7145324Y-2440635D01*
X7157059Y-2433675D01*
X7167778Y-2425192D01*
X7177278Y-2415387D01*
X7185355Y-2404414D01*
X7191908Y-2392476D01*
X7196785Y-2379726D01*
X7199985Y-2366467D01*
X7201306Y-2352903D01*
X7200849Y-2339289D01*
X7198614Y-2325827D01*
X7194550Y-2312822D01*
X7188809Y-2300427D01*
X7181494Y-2288946D01*
X7172706Y-2278532D01*
X7162546Y-2269388D01*
X7151319Y-2261666D01*
X7139178Y-2255520D01*
X7126274Y-2251049D01*
X7112914Y-2248306D01*
X7099300Y-2247392D01*
X7085685Y-2248306D01*
X7072325Y-2251049D01*
X7059422Y-2255520D01*
X7047280Y-2261666D01*
X7036053Y-2269388D01*
X7025894Y-2278532D01*
X7017105Y-2288946D01*
X7009790Y-2300427D01*
X7004050Y-2312822D01*
X6999986Y-2325827D01*
X6997750Y-2339289D01*
X6997293Y-2352903D01*
X6998614Y-2366467D01*
X7001814Y-2379726D01*
X7006691Y-2392476D01*
X7013244Y-2404414D01*
X7021322Y-2415387D01*
X7030821Y-2425192D01*
X7041540Y-2433675D01*
X7053275Y-2440635D01*
X7065822Y-2445918D01*
X7078980Y-2449525D01*
G37*
G36*
X7600492Y-2451354D02*
G01*
X7614107Y-2451354D01*
X7627620Y-2449525D01*
X7640777Y-2445918D01*
X7653324Y-2440635D01*
X7665059Y-2433675D01*
X7675778Y-2425192D01*
X7685278Y-2415387D01*
X7693355Y-2404414D01*
X7699908Y-2392476D01*
X7704785Y-2379726D01*
X7707985Y-2366467D01*
X7709306Y-2352903D01*
X7708849Y-2339289D01*
X7706614Y-2325827D01*
X7702550Y-2312822D01*
X7696809Y-2300427D01*
X7689494Y-2288946D01*
X7680706Y-2278532D01*
X7670546Y-2269388D01*
X7659319Y-2261666D01*
X7647178Y-2255520D01*
X7634274Y-2251049D01*
X7620914Y-2248306D01*
X7607300Y-2247392D01*
X7593685Y-2248306D01*
X7580325Y-2251049D01*
X7567422Y-2255520D01*
X7555280Y-2261666D01*
X7544053Y-2269388D01*
X7533894Y-2278532D01*
X7525105Y-2288946D01*
X7517790Y-2300427D01*
X7512050Y-2312822D01*
X7507986Y-2325827D01*
X7505750Y-2339289D01*
X7505293Y-2352903D01*
X7506614Y-2366467D01*
X7509814Y-2379726D01*
X7514691Y-2392476D01*
X7521244Y-2404414D01*
X7529322Y-2415387D01*
X7538821Y-2425192D01*
X7549540Y-2433675D01*
X7561275Y-2440635D01*
X7573822Y-2445918D01*
X7586980Y-2449525D01*
G37*
G36*
X7816850Y-2441295D02*
G01*
X7816850Y-2393950D01*
X7769504Y-2393950D01*
X7775244Y-2404414D01*
X7783322Y-2415387D01*
X7792821Y-2425192D01*
X7803540Y-2433675D01*
X7815275Y-2440635D01*
G37*
G36*
X7905750Y-2441295D02*
G01*
X7907324Y-2440635D01*
X7919059Y-2433675D01*
X7929778Y-2425192D01*
X7939278Y-2415387D01*
X7947355Y-2404414D01*
X7953095Y-2393950D01*
X7905750Y-2393950D01*
G37*
G36*
X1017269Y-2390648D02*
G01*
X1030935Y-2389733D01*
X1044346Y-2387041D01*
X1057300Y-2382672D01*
X1069594Y-2376627D01*
X1080973Y-2369007D01*
X1091234Y-2359964D01*
X1100277Y-2349703D01*
X1107897Y-2338324D01*
X1113942Y-2326030D01*
X1118362Y-2313076D01*
X1121003Y-2299665D01*
X1121918Y-2286000D01*
X1121003Y-2272334D01*
X1118362Y-2258923D01*
X1113942Y-2245969D01*
X1107897Y-2233676D01*
X1100277Y-2222296D01*
X1091234Y-2212035D01*
X1080973Y-2202992D01*
X1069594Y-2195372D01*
X1057300Y-2189327D01*
X1044346Y-2184958D01*
X1030935Y-2182266D01*
X1017269Y-2181352D01*
X1003604Y-2182266D01*
X990193Y-2184958D01*
X977239Y-2189327D01*
X964946Y-2195372D01*
X953566Y-2202992D01*
X943305Y-2212035D01*
X934262Y-2222296D01*
X926693Y-2233676D01*
X920597Y-2245969D01*
X916228Y-2258923D01*
X913536Y-2272334D01*
X912672Y-2286000D01*
X913536Y-2299665D01*
X916228Y-2313076D01*
X920597Y-2326030D01*
X926693Y-2338324D01*
X934262Y-2349703D01*
X943305Y-2359964D01*
X953566Y-2369007D01*
X964946Y-2376627D01*
X977239Y-2382672D01*
X990193Y-2387041D01*
X1003604Y-2389733D01*
G37*
G36*
X7905750Y-2305050D02*
G01*
X7952943Y-2305050D01*
X7950809Y-2300427D01*
X7943494Y-2288946D01*
X7934706Y-2278532D01*
X7924546Y-2269388D01*
X7913319Y-2261666D01*
X7905750Y-2257856D01*
G37*
G36*
X7769656Y-2305050D02*
G01*
X7816850Y-2305050D01*
X7816850Y-2257856D01*
X7809280Y-2261666D01*
X7798053Y-2269388D01*
X7787894Y-2278532D01*
X7779105Y-2288946D01*
X7771790Y-2300427D01*
G37*
G36*
X9224314Y-2318562D02*
G01*
X9228785Y-2316429D01*
X9241078Y-2308656D01*
X9252305Y-2299360D01*
X9262262Y-2288743D01*
X9270796Y-2276957D01*
X9276689Y-2266238D01*
X9224314Y-2266238D01*
G37*
G36*
X5094579Y-2356662D02*
G01*
X5150662Y-2356662D01*
X5150662Y-2300579D01*
X5148478Y-2301544D01*
X5135473Y-2309418D01*
X5123535Y-2318766D01*
X5112766Y-2329535D01*
X5103418Y-2341473D01*
X5095544Y-2354478D01*
G37*
G36*
X5263337Y-2356662D02*
G01*
X5319420Y-2356662D01*
X5318455Y-2354478D01*
X5310581Y-2341473D01*
X5301234Y-2329535D01*
X5290464Y-2318766D01*
X5278526Y-2309418D01*
X5265521Y-2301544D01*
X5263337Y-2300579D01*
G37*
G36*
X9121597Y-2318562D02*
G01*
X9121597Y-2266238D01*
X9069222Y-2266238D01*
X9075115Y-2276957D01*
X9083649Y-2288743D01*
X9093606Y-2299360D01*
X9104833Y-2308656D01*
X9117126Y-2316429D01*
G37*
G36*
X3637838Y-2638399D02*
G01*
X3742131Y-2638399D01*
X3755898Y-2637485D01*
X3769055Y-2634742D01*
X3781704Y-2630220D01*
X3793642Y-2624074D01*
X3804564Y-2616301D01*
X3814419Y-2607157D01*
X3822852Y-2596743D01*
X3829862Y-2585262D01*
X3835196Y-2572969D01*
X3838803Y-2560015D01*
X3840632Y-2546705D01*
X3840632Y-2533294D01*
X3838803Y-2519984D01*
X3835196Y-2507030D01*
X3829862Y-2494737D01*
X3824986Y-2486761D01*
X3823766Y-2483662D01*
X3823614Y-2480310D01*
X3824528Y-2477109D01*
X3839260Y-2446172D01*
X3841292Y-2443327D01*
X4146804Y-2137816D01*
X4150106Y-2135632D01*
X4153966Y-2134870D01*
X9068206Y-2134870D01*
X9072524Y-2135835D01*
X9076029Y-2138527D01*
X9078061Y-2142490D01*
X9078163Y-2146909D01*
X9076436Y-2150973D01*
X9075115Y-2152802D01*
X9069222Y-2163521D01*
X9121597Y-2163521D01*
X9121597Y-2145030D01*
X9122359Y-2141118D01*
X9124594Y-2137816D01*
X9127896Y-2135632D01*
X9131757Y-2134870D01*
X9214154Y-2134870D01*
X9218015Y-2135632D01*
X9221317Y-2137816D01*
X9223552Y-2141118D01*
X9224314Y-2145030D01*
X9224314Y-2163521D01*
X9276689Y-2163521D01*
X9270796Y-2152802D01*
X9269476Y-2150973D01*
X9267748Y-2146909D01*
X9267850Y-2142490D01*
X9269882Y-2138527D01*
X9273387Y-2135835D01*
X9277705Y-2134870D01*
X9484207Y-2134870D01*
X9488068Y-2135632D01*
X9491370Y-2137816D01*
X9499549Y-2145995D01*
X9501632Y-2148992D01*
X9502495Y-2152497D01*
X9507372Y-2222042D01*
X9509201Y-2236571D01*
X9512808Y-2250694D01*
X9518192Y-2264206D01*
X9525203Y-2276957D01*
X9533737Y-2288743D01*
X9543694Y-2299360D01*
X9554921Y-2308656D01*
X9567214Y-2316429D01*
X9580372Y-2322626D01*
X9594240Y-2327148D01*
X9608515Y-2329840D01*
X9623044Y-2330754D01*
X9637572Y-2329840D01*
X9651847Y-2327148D01*
X9665716Y-2322626D01*
X9678873Y-2316429D01*
X9691166Y-2308656D01*
X9702393Y-2299360D01*
X9712350Y-2288743D01*
X9720884Y-2276957D01*
X9727895Y-2264206D01*
X9733280Y-2250694D01*
X9736886Y-2236571D01*
X9738715Y-2222144D01*
X9738715Y-2207615D01*
X9736886Y-2193188D01*
X9733280Y-2179066D01*
X9727895Y-2165553D01*
X9720884Y-2152802D01*
X9712350Y-2141016D01*
X9702393Y-2130399D01*
X9691166Y-2121103D01*
X9678873Y-2113330D01*
X9665716Y-2107133D01*
X9651847Y-2102612D01*
X9637572Y-2099919D01*
X9629902Y-2099157D01*
X9560661Y-2094331D01*
X9557156Y-2093468D01*
X9554159Y-2091385D01*
X9532061Y-2069287D01*
X9525812Y-2064156D01*
X9519158Y-2060600D01*
X9511944Y-2058416D01*
X9503918Y-2057654D01*
X4134256Y-2057654D01*
X4126229Y-2058416D01*
X4119016Y-2060600D01*
X4112361Y-2064156D01*
X4106113Y-2069287D01*
X3854348Y-2321052D01*
X3850640Y-2323439D01*
X3846271Y-2323998D01*
X3842054Y-2322626D01*
X3838803Y-2319629D01*
X3837178Y-2315514D01*
X3837381Y-2311146D01*
X3838803Y-2306015D01*
X3840632Y-2292705D01*
X3840632Y-2279294D01*
X3838803Y-2265984D01*
X3835196Y-2253030D01*
X3829862Y-2240737D01*
X3824986Y-2232761D01*
X3823766Y-2229662D01*
X3823614Y-2226310D01*
X3824528Y-2223109D01*
X3839260Y-2192172D01*
X3841292Y-2189327D01*
X4393895Y-1636725D01*
X4397197Y-1634489D01*
X4401108Y-1633728D01*
X9036913Y-1633728D01*
X9040520Y-1634388D01*
X9043619Y-1636217D01*
X9095994Y-1681784D01*
X9104833Y-1688896D01*
X9117126Y-1696669D01*
X9130284Y-1702866D01*
X9144152Y-1707388D01*
X9158427Y-1710080D01*
X9172956Y-1710994D01*
X9187484Y-1710080D01*
X9201759Y-1707388D01*
X9215628Y-1702866D01*
X9228785Y-1696669D01*
X9241078Y-1688896D01*
X9252305Y-1679600D01*
X9262262Y-1668983D01*
X9270796Y-1657197D01*
X9277807Y-1644446D01*
X9283192Y-1630933D01*
X9286798Y-1616811D01*
X9288627Y-1602384D01*
X9288627Y-1587855D01*
X9286798Y-1573428D01*
X9283192Y-1559306D01*
X9277807Y-1545793D01*
X9270796Y-1533042D01*
X9262262Y-1521256D01*
X9252305Y-1510639D01*
X9241078Y-1501343D01*
X9228785Y-1493570D01*
X9215628Y-1487373D01*
X9201759Y-1482852D01*
X9187484Y-1480159D01*
X9172956Y-1479245D01*
X9158427Y-1480159D01*
X9144152Y-1482852D01*
X9130284Y-1487373D01*
X9117126Y-1493570D01*
X9104833Y-1501343D01*
X9095994Y-1508455D01*
X9043619Y-1554022D01*
X9040520Y-1555851D01*
X9036964Y-1556512D01*
X4381398Y-1556512D01*
X4373372Y-1557324D01*
X4366158Y-1559509D01*
X4359452Y-1563065D01*
X4353255Y-1568196D01*
X3854348Y-2067052D01*
X3850640Y-2069439D01*
X3846271Y-2069998D01*
X3842054Y-2068626D01*
X3838803Y-2065629D01*
X3837178Y-2061514D01*
X3837381Y-2057146D01*
X3838803Y-2052015D01*
X3840632Y-2038705D01*
X3840632Y-2025294D01*
X3838803Y-2011984D01*
X3835196Y-1999030D01*
X3829862Y-1986737D01*
X3822852Y-1975256D01*
X3814419Y-1964842D01*
X3804564Y-1955698D01*
X3793642Y-1947925D01*
X3781704Y-1941779D01*
X3769055Y-1937257D01*
X3755898Y-1934514D01*
X3742131Y-1933600D01*
X3637838Y-1933600D01*
X3624122Y-1934514D01*
X3610965Y-1937257D01*
X3598316Y-1941779D01*
X3586378Y-1947925D01*
X3575405Y-1955698D01*
X3565601Y-1964842D01*
X3557117Y-1975256D01*
X3550158Y-1986737D01*
X3544773Y-1999030D01*
X3541166Y-2011984D01*
X3539337Y-2025294D01*
X3539337Y-2038705D01*
X3541166Y-2052015D01*
X3544773Y-2064969D01*
X3550158Y-2077262D01*
X3557117Y-2088743D01*
X3565601Y-2099157D01*
X3575405Y-2108301D01*
X3586378Y-2116074D01*
X3598316Y-2122220D01*
X3610965Y-2126742D01*
X3624122Y-2129485D01*
X3637838Y-2130399D01*
X3742131Y-2130399D01*
X3755898Y-2129485D01*
X3768090Y-2126945D01*
X3772408Y-2126945D01*
X3776319Y-2128774D01*
X3779113Y-2132076D01*
X3780282Y-2136190D01*
X3779672Y-2140458D01*
X3777335Y-2144064D01*
X3765092Y-2156155D01*
X3724960Y-2185619D01*
X3722115Y-2187092D01*
X3718915Y-2187600D01*
X3637838Y-2187600D01*
X3624122Y-2188514D01*
X3610965Y-2191258D01*
X3598316Y-2195779D01*
X3586378Y-2201926D01*
X3575405Y-2209698D01*
X3565601Y-2218842D01*
X3557117Y-2229256D01*
X3550158Y-2240737D01*
X3544773Y-2253030D01*
X3541166Y-2265984D01*
X3539337Y-2279294D01*
X3539337Y-2292705D01*
X3541166Y-2306015D01*
X3544773Y-2318969D01*
X3550158Y-2331262D01*
X3557117Y-2342743D01*
X3565601Y-2353157D01*
X3575405Y-2362301D01*
X3586378Y-2370074D01*
X3598316Y-2376220D01*
X3610965Y-2380742D01*
X3624122Y-2383485D01*
X3637838Y-2384399D01*
X3742131Y-2384399D01*
X3755898Y-2383485D01*
X3768090Y-2380945D01*
X3772408Y-2380945D01*
X3776319Y-2382774D01*
X3779113Y-2386076D01*
X3780282Y-2390190D01*
X3779672Y-2394458D01*
X3777335Y-2398064D01*
X3765092Y-2410155D01*
X3724960Y-2439619D01*
X3722115Y-2441092D01*
X3718915Y-2441600D01*
X3637838Y-2441600D01*
X3624122Y-2442514D01*
X3610965Y-2445258D01*
X3598316Y-2449779D01*
X3586378Y-2455926D01*
X3575405Y-2463698D01*
X3565601Y-2472842D01*
X3557117Y-2483256D01*
X3550158Y-2494737D01*
X3544773Y-2507030D01*
X3541166Y-2519984D01*
X3539337Y-2533294D01*
X3539337Y-2546705D01*
X3541166Y-2560015D01*
X3544773Y-2572969D01*
X3550158Y-2585262D01*
X3557117Y-2596743D01*
X3565601Y-2607157D01*
X3575405Y-2616301D01*
X3586378Y-2624074D01*
X3598316Y-2630220D01*
X3610965Y-2634742D01*
X3624122Y-2637485D01*
G37*

%LPD*%
G36*
X6035141Y-2592019D02*
G01*
X6035141Y-2741980D01*
X6105144Y-2679700D01*
X6105144Y-2654300D01*
G37*
G36*
X5194300Y-2276856D02*
G01*
X5132019Y-2346858D01*
X5281980Y-2346858D01*
X5219700Y-2276856D01*
G37*
G36*
X1095857Y-757072D02*
G01*
X1012342Y-840587D01*
X1084072Y-846785D01*
X1102055Y-828802D01*
G37*
G36*
X954074Y-3991610D02*
G01*
X1003300Y-4049369D01*
X1028700Y-4049369D01*
X1077925Y-3991610D01*
G37*
G36*
X1070610Y-3621074D02*
G01*
X1070610Y-3744925D01*
X1128369Y-3695700D01*
X1128369Y-3670300D01*
G37*
G36*
X4908194Y-4693818D02*
G01*
X4820716Y-4781346D01*
X4896307Y-4787392D01*
X4914290Y-4769459D01*
G37*
G36*
X4771542Y-4891125D02*
G01*
X4713782Y-4940300D01*
X4713782Y-4965700D01*
X4771542Y-5014874D01*
G37*
G36*
X1003300Y-4691684D02*
G01*
X945489Y-4757470D01*
X1086459Y-4757470D01*
X1028700Y-4691684D01*
G37*
G36*
X1097483Y-5748883D02*
G01*
X1010107Y-5754522D01*
X1109776Y-5854242D01*
X1115466Y-5766866D01*
G37*
G36*
X8039252Y-2344724D02*
G01*
X8032953Y-2413863D01*
X8050936Y-2431846D01*
X8120075Y-2425547D01*
G37*
G36*
X7848600Y-2245766D02*
G01*
X7804150Y-2299106D01*
X7918450Y-2299106D01*
X7874000Y-2245766D01*
G37*
G36*
X8196630Y-4622647D02*
G01*
X8178647Y-4640630D01*
X8185150Y-4703368D01*
X8259368Y-4629150D01*
G37*
G36*
X8196630Y-4368647D02*
G01*
X8178647Y-4386630D01*
X8185150Y-4449368D01*
X8259368Y-4375150D01*
G37*
G36*
X9113418Y-2147366D02*
G01*
X9050426Y-2202180D01*
X9050426Y-2227580D01*
X9113418Y-2282393D01*
G37*
G36*
X9545370Y-2119274D02*
G01*
X9527438Y-2137206D01*
X9533229Y-2220518D01*
X9628682Y-2125065D01*
G37*
G36*
X9113418Y-1527606D02*
G01*
X9050426Y-1582420D01*
X9050426Y-1607820D01*
X9113418Y-1662633D01*
G37*
G36*
X7275118Y-3911447D02*
G01*
X7267194Y-3933698D01*
X7285177Y-3951681D01*
X7307427Y-3943756D01*
G37*
G36*
X4753152Y-2214016D02*
G01*
X4720844Y-2246325D01*
X4738065Y-2249220D01*
X4756048Y-2231237D01*
G37*
G36*
X7120229Y-3761689D02*
G01*
X7112304Y-3783990D01*
X7130288Y-3801922D01*
X7152538Y-3794048D01*
G37*
G36*
X1096010Y-1238250D02*
G01*
X1096010Y-1301750D01*
X1123950Y-1282700D01*
X1123950Y-1257300D01*
G37*
G36*
X8185150Y-5175250D02*
G01*
X8157057Y-5194300D01*
X8157057Y-5219700D01*
X8185150Y-5238750D01*
G37*
G36*
X2267356Y-2339543D02*
G01*
X2206752Y-2358491D01*
X2258669Y-2396591D01*
X2294585Y-2396591D01*
G37*
G36*
X2064664Y-2085543D02*
G01*
X2037435Y-2142591D01*
X2073351Y-2142591D01*
X2125268Y-2104491D01*
G37*
G36*
X2258669Y-3953408D02*
G01*
X2206752Y-3991508D01*
X2267356Y-4010456D01*
X2294585Y-3953408D01*
G37*
G36*
X2258669Y-4207408D02*
G01*
X2206752Y-4245508D01*
X2267356Y-4264456D01*
X2294585Y-4207408D01*
G37*
G36*
X2258669Y-5223408D02*
G01*
X2206752Y-5261508D01*
X2267356Y-5280456D01*
X2294585Y-5223408D01*
G37*
G36*
X2048306Y-5556250D02*
G01*
X2010206Y-5575300D01*
X2010206Y-5600700D01*
X2048306Y-5619750D01*
G37*
G36*
X2258669Y-5477408D02*
G01*
X2206752Y-5515508D01*
X2267356Y-5534456D01*
X2294585Y-5477408D01*
G37*
G36*
X3588664Y-3609543D02*
G01*
X3561435Y-3666591D01*
X3597351Y-3666591D01*
X3649268Y-3628491D01*
G37*
G36*
X3782669Y-2429408D02*
G01*
X3730751Y-2467508D01*
X3791356Y-2486456D01*
X3818585Y-2429408D01*
G37*
G36*
X3782669Y-2175408D02*
G01*
X3730751Y-2213508D01*
X3791356Y-2232456D01*
X3818585Y-2175408D01*
G37*
G36*
X3588664Y-1323543D02*
G01*
X3574338Y-1367739D01*
X3601262Y-1376680D01*
X3649268Y-1342491D01*
G37*
G36*
X3561435Y-905408D02*
G01*
X3588664Y-962456D01*
X3649268Y-943508D01*
X3597351Y-905408D01*
G37*
D10*
X3690111Y-2540000D02*
G01*
X4133850Y-2096262D01*
X9504425Y-2096262D01*
X9623043Y-2214879D01*
X3690111Y-2286000D02*
G01*
X4380991Y-1595120D01*
X9172956Y-1595120D01*
X1016000Y-4819650D02*
G01*
X1016000Y-3937000D01*
X3690111Y-3556000D02*
G01*
X3563111Y-3683000D01*
X1016000Y-3683000D01*
X2166111Y-4064000D02*
G01*
X2319274Y-3910837D01*
X7003541Y-3910837D01*
X7150608Y-3763518D01*
X8115300Y-2349500D02*
G01*
X7797800Y-2667000D01*
X5969000Y-2667000D01*
X3690111Y-1270000D02*
G01*
X3583431Y-1376679D01*
X1230629Y-1376679D01*
X1123950Y-1270000D01*
X1017270Y-1270000D02*
G01*
X1123950Y-1270000D01*
X2166111Y-5588000D02*
G01*
X1276350Y-5588000D01*
X1016000Y-5848350D01*
X8255000Y-5207000D02*
G01*
X8156956Y-5207000D01*
X8157057Y-5207000D02*
G01*
X8024977Y-5074920D01*
X4949418Y-5074920D01*
X4825872Y-4699000D02*
G01*
X4949418Y-4822545D01*
X4949418Y-5074920D01*
X4949443Y-5074920D02*
G01*
X4589779Y-5434584D01*
X2319527Y-5434584D01*
X2166111Y-5588000D01*
X3690111Y-1016000D02*
G01*
X3563111Y-889000D01*
X1144270Y-889000D01*
X1017270Y-762000D01*
X2166111Y-5334000D02*
G01*
X2547111Y-4953000D01*
X4826000Y-4953000D01*
X7861300Y-2349500D02*
G01*
X7861300Y-2240229D01*
X9172956Y-2214879D02*
G01*
X7886649Y-2214879D01*
X7861300Y-2240229D01*
X5207000Y-2240229D02*
G01*
X5207000Y-2413000D01*
X7861300Y-2240229D02*
G01*
X5207000Y-2240229D01*
X5207000Y-2240229D02*
G01*
X4747056Y-2240229D01*
X4722749Y-2215921D01*
X8255000Y-4699000D02*
G01*
X6753352Y-3197352D01*
X3018027Y-3197352D01*
X2233675Y-2413000D01*
X2094991Y-2413000D01*
X2012695Y-2330704D01*
X2012695Y-2185415D01*
X2166111Y-2032000D01*
X7305547Y-3913378D02*
G01*
X7138415Y-4080510D01*
X4276090Y-4080510D01*
X4165600Y-4191000D01*
X2293111Y-4191000D01*
X2166111Y-4318000D01*
X8255000Y-4445000D02*
G01*
X6731000Y-2921000D01*
X2801111Y-2921000D01*
X2166111Y-2286000D01*
D11*
G01*
X5207000Y-2667000D03*
G01*
X5461000Y-2667000D03*
G01*
X5715000Y-2667000D03*
G01*
X5969000Y-2667000D03*
G01*
X5969000Y-2413000D03*
G01*
X5715000Y-2413000D03*
G01*
X5461000Y-2413000D03*
G01*
X5207000Y-2413000D03*
D12*
G01*
X1017277Y-2794000D03*
D13*
G01*
X1017277Y-2540000D03*
G01*
X1017277Y-2286000D03*
D12*
G01*
X1017277Y-1270000D03*
D13*
G01*
X1017277Y-1016000D03*
G01*
X1017277Y-762000D03*
D14*
G01*
X1016000Y-3937000D03*
G01*
X1016000Y-3683000D03*
D15*
G01*
X4825872Y-4191000D03*
G01*
X4825872Y-4445000D03*
G01*
X4825872Y-4699000D03*
G01*
X4826127Y-4953000D03*
D16*
G01*
X1015994Y-4819642D03*
G01*
X1015994Y-5848342D03*
D17*
G01*
X8115300Y-2349500D03*
G01*
X7861300Y-2349500D03*
G01*
X7607300Y-2349500D03*
G01*
X7353300Y-2349500D03*
G01*
X7099300Y-2349500D03*
G36*
X8185022Y-5137022D02*
G01*
X8324977Y-5137022D01*
X8324977Y-5276977D01*
X8185022Y-5276977D01*
G37*
D18*
G01*
X8255000Y-4953000D03*
G01*
X8255000Y-4699000D03*
G01*
X8255000Y-4445000D03*
G01*
X8255000Y-4191000D03*
G01*
X8255000Y-3937000D03*
D19*
G01*
X9172956Y-2865120D03*
G01*
X9623043Y-2865120D03*
G01*
X9172956Y-2214879D03*
G01*
X9623043Y-2214879D03*
G01*
X9172956Y-1595120D03*
G01*
X9623043Y-1595120D03*
G01*
X9172956Y-944879D03*
G01*
X9623043Y-944879D03*
D20*
G01*
X7305522Y-3913352D03*
G01*
X4722749Y-2215921D03*
G01*
X7150633Y-3763619D03*
D21*
X2113511Y-3048000D02*
G01*
X2218509Y-3048000D01*
X2113511Y-2794000D02*
G01*
X2218509Y-2794000D01*
X2113511Y-2540000D02*
G01*
X2218509Y-2540000D01*
X2113511Y-2286000D02*
G01*
X2218509Y-2286000D01*
X2113511Y-2032000D02*
G01*
X2218509Y-2032000D01*
X2113511Y-1778000D02*
G01*
X2218509Y-1778000D01*
X2113511Y-1524000D02*
G01*
X2218509Y-1524000D01*
X2113511Y-1270000D02*
G01*
X2218509Y-1270000D01*
X2113511Y-1016000D02*
G01*
X2218509Y-1016000D01*
X2113511Y-762000D02*
G01*
X2218509Y-762000D01*
X2113511Y-3302000D02*
G01*
X2218509Y-3302000D01*
X2113511Y-3556000D02*
G01*
X2218509Y-3556000D01*
X2113511Y-3810000D02*
G01*
X2218509Y-3810000D01*
X2113511Y-4064000D02*
G01*
X2218509Y-4064000D01*
X2113511Y-4318000D02*
G01*
X2218509Y-4318000D01*
X2113511Y-4572000D02*
G01*
X2218509Y-4572000D01*
X2113511Y-4826000D02*
G01*
X2218509Y-4826000D01*
X2113511Y-5080000D02*
G01*
X2218509Y-5080000D01*
X2113511Y-5334000D02*
G01*
X2218509Y-5334000D01*
X2113511Y-5588000D02*
G01*
X2218509Y-5588000D01*
X3637511Y-5588000D02*
G01*
X3742509Y-5588000D01*
X3637511Y-5334000D02*
G01*
X3742509Y-5334000D01*
X3637511Y-5080000D02*
G01*
X3742509Y-5080000D01*
X3637511Y-4826000D02*
G01*
X3742509Y-4826000D01*
X3637511Y-4572000D02*
G01*
X3742509Y-4572000D01*
X3637511Y-4318000D02*
G01*
X3742509Y-4318000D01*
X3637511Y-4064000D02*
G01*
X3742509Y-4064000D01*
X3637511Y-3810000D02*
G01*
X3742509Y-3810000D01*
X3637511Y-3556000D02*
G01*
X3742509Y-3556000D01*
X3637511Y-3302000D02*
G01*
X3742509Y-3302000D01*
X3637511Y-3048000D02*
G01*
X3742509Y-3048000D01*
X3637511Y-2794000D02*
G01*
X3742509Y-2794000D01*
X3637511Y-2540000D02*
G01*
X3742509Y-2540000D01*
X3637511Y-2286000D02*
G01*
X3742509Y-2286000D01*
X3637511Y-2032000D02*
G01*
X3742509Y-2032000D01*
X3637511Y-1778000D02*
G01*
X3742509Y-1778000D01*
X3637511Y-1524000D02*
G01*
X3742509Y-1524000D01*
X3637511Y-1270000D02*
G01*
X3742509Y-1270000D01*
X3637511Y-1016000D02*
G01*
X3742509Y-1016000D01*
X3637511Y-762000D02*
G01*
X3742509Y-762000D01*
M02*
