G04 Layer: TopSilkscreenLayer*
G04 EasyEDA v6.5.9, 2022-08-04 21:53:36*
G04 243b00ffacdd401494d35e99a464f0bf,3bbe445d3a7142a2ab69e160ea9428b9,10*
G04 Gerber Generator version 0.2*
G04 Scale: 100 percent, Rotated: No, Reflected: No *
G04 Dimensions in millimeters *
G04 leading zeros omitted , absolute positions ,4 integer and 5 decimal *
%FSLAX45Y45*%
%MOMM*%

%ADD10C,0.2032*%
%ADD11C,0.1524*%
%ADD12C,0.2500*%
%ADD13C,0.2000*%
%ADD14C,0.2540*%
%ADD15C,0.0159*%

%LPD*%
D10*
X9955022Y-1574800D02*
G01*
X10148824Y-1574800D01*
X9955022Y-1574800D02*
G01*
X9955022Y-1491742D01*
X9964165Y-1464055D01*
X9973309Y-1454657D01*
X9991852Y-1445513D01*
X10010393Y-1445513D01*
X10028936Y-1454657D01*
X10038079Y-1464055D01*
X10047224Y-1491742D01*
X10047224Y-1574800D02*
G01*
X10047224Y-1491742D01*
X10056622Y-1464055D01*
X10065765Y-1454657D01*
X10084308Y-1445513D01*
X10111993Y-1445513D01*
X10130536Y-1454657D01*
X10139679Y-1464055D01*
X10148824Y-1491742D01*
X10148824Y-1574800D01*
X9955022Y-1384554D02*
G01*
X10148824Y-1384554D01*
X9955022Y-1384554D02*
G01*
X9955022Y-1264412D01*
X10047224Y-1384554D02*
G01*
X10047224Y-1310639D01*
X10148824Y-1384554D02*
G01*
X10148824Y-1264412D01*
X9955022Y-1203452D02*
G01*
X10148824Y-1203452D01*
X9955022Y-1203452D02*
G01*
X9955022Y-1083310D01*
X10047224Y-1203452D02*
G01*
X10047224Y-1129537D01*
X10148824Y-1203452D02*
G01*
X10148824Y-1083310D01*
X9955022Y-1022350D02*
G01*
X10148824Y-1022350D01*
X9955022Y-1022350D02*
G01*
X9955022Y-939292D01*
X9964165Y-911605D01*
X9973309Y-902462D01*
X9991852Y-893063D01*
X10019538Y-893063D01*
X10038079Y-902462D01*
X10047224Y-911605D01*
X10056622Y-939292D01*
X10056622Y-1022350D01*
X9955022Y-2794000D02*
G01*
X10148824Y-2794000D01*
X10148824Y-2794000D02*
G01*
X10148824Y-2683255D01*
X9955022Y-2622295D02*
G01*
X10148824Y-2622295D01*
X9955022Y-2622295D02*
G01*
X9955022Y-2502154D01*
X10047224Y-2622295D02*
G01*
X10047224Y-2548381D01*
X10148824Y-2622295D02*
G01*
X10148824Y-2502154D01*
X9955022Y-2441194D02*
G01*
X10148824Y-2441194D01*
X9955022Y-2441194D02*
G01*
X9955022Y-2376423D01*
X9964165Y-2348737D01*
X9982708Y-2330450D01*
X10001250Y-2321052D01*
X10028936Y-2311907D01*
X10074909Y-2311907D01*
X10102850Y-2321052D01*
X10121138Y-2330450D01*
X10139679Y-2348737D01*
X10148824Y-2376423D01*
X10148824Y-2441194D01*
X10463022Y-3810000D02*
G01*
X10555224Y-3736086D01*
X10656824Y-3736086D01*
X10463022Y-3662171D02*
G01*
X10555224Y-3736086D01*
X10463022Y-3601212D02*
G01*
X10656824Y-3601212D01*
X10463022Y-3601212D02*
G01*
X10463022Y-3481070D01*
X10555224Y-3601212D02*
G01*
X10555224Y-3527297D01*
X10656824Y-3601212D02*
G01*
X10656824Y-3481070D01*
X10463022Y-3420110D02*
G01*
X10656824Y-3420110D01*
X10656824Y-3420110D02*
G01*
X10656824Y-3309365D01*
X10463022Y-3248405D02*
G01*
X10656824Y-3248405D01*
X10656824Y-3248405D02*
G01*
X10656824Y-3137662D01*
X10463022Y-3021329D02*
G01*
X10472165Y-3039618D01*
X10490708Y-3058160D01*
X10509250Y-3067304D01*
X10536936Y-3076702D01*
X10582909Y-3076702D01*
X10610850Y-3067304D01*
X10629138Y-3058160D01*
X10647679Y-3039618D01*
X10656824Y-3021329D01*
X10656824Y-2984245D01*
X10647679Y-2965704D01*
X10629138Y-2947415D01*
X10610850Y-2938018D01*
X10582909Y-2928873D01*
X10536936Y-2928873D01*
X10509250Y-2938018D01*
X10490708Y-2947415D01*
X10472165Y-2965704D01*
X10463022Y-2984245D01*
X10463022Y-3021329D01*
X10463022Y-2867913D02*
G01*
X10656824Y-2821686D01*
X10463022Y-2775457D02*
G01*
X10656824Y-2821686D01*
X10463022Y-2775457D02*
G01*
X10656824Y-2729229D01*
X10463022Y-2683255D02*
G01*
X10656824Y-2729229D01*
D11*
X5567679Y-240792D02*
G01*
X5567679Y-235712D01*
X5573013Y-225297D01*
X5578093Y-219963D01*
X5588508Y-214884D01*
X5609336Y-214884D01*
X5619750Y-219963D01*
X5624829Y-225297D01*
X5630163Y-235712D01*
X5630163Y-246126D01*
X5624829Y-256539D01*
X5614670Y-272034D01*
X5562600Y-323850D01*
X5635243Y-323850D01*
X5674868Y-297942D02*
G01*
X5669534Y-303276D01*
X5674868Y-308355D01*
X5679947Y-303276D01*
X5674868Y-297942D01*
X5776722Y-214884D02*
G01*
X5724652Y-214884D01*
X5719572Y-261620D01*
X5724652Y-256539D01*
X5740400Y-251205D01*
X5755893Y-251205D01*
X5771388Y-256539D01*
X5781802Y-266700D01*
X5787136Y-282447D01*
X5787136Y-292862D01*
X5781802Y-308355D01*
X5771388Y-318770D01*
X5755893Y-323850D01*
X5740400Y-323850D01*
X5724652Y-318770D01*
X5719572Y-313689D01*
X5714238Y-303276D01*
X5873241Y-214884D02*
G01*
X5821425Y-287528D01*
X5899150Y-287528D01*
X5873241Y-214884D02*
G01*
X5873241Y-323850D01*
X5933440Y-360426D02*
G01*
X6027165Y-360426D01*
X6066536Y-240792D02*
G01*
X6066536Y-235712D01*
X6071870Y-225297D01*
X6076950Y-219963D01*
X6087363Y-214884D01*
X6108191Y-214884D01*
X6118606Y-219963D01*
X6123686Y-225297D01*
X6129020Y-235712D01*
X6129020Y-246126D01*
X6123686Y-256539D01*
X6113272Y-272034D01*
X6061456Y-323850D01*
X6134100Y-323850D01*
X6168390Y-214884D02*
G01*
X6241034Y-323850D01*
X6241034Y-214884D02*
G01*
X6168390Y-323850D01*
X6327393Y-214884D02*
G01*
X6275324Y-287528D01*
X6353302Y-287528D01*
X6327393Y-214884D02*
G01*
X6327393Y-323850D01*
D10*
X5207000Y-1708657D02*
G01*
X5207000Y-1830070D01*
X5207000Y-1708657D02*
G01*
X5281929Y-1708657D01*
X5207000Y-1766570D02*
G01*
X5253227Y-1766570D01*
X5207000Y-1830070D02*
G01*
X5281929Y-1830070D01*
X5401056Y-1725929D02*
G01*
X5389372Y-1714500D01*
X5372100Y-1708657D01*
X5348986Y-1708657D01*
X5331713Y-1714500D01*
X5320029Y-1725929D01*
X5320029Y-1737613D01*
X5325872Y-1749044D01*
X5331713Y-1754886D01*
X5343143Y-1760728D01*
X5377941Y-1772157D01*
X5389372Y-1778000D01*
X5395213Y-1783842D01*
X5401056Y-1795271D01*
X5401056Y-1812544D01*
X5389372Y-1824228D01*
X5372100Y-1830070D01*
X5348986Y-1830070D01*
X5331713Y-1824228D01*
X5320029Y-1812544D01*
X5439156Y-1708657D02*
G01*
X5439156Y-1830070D01*
X5439156Y-1708657D02*
G01*
X5490972Y-1708657D01*
X5508243Y-1714500D01*
X5514086Y-1720342D01*
X5519927Y-1731771D01*
X5519927Y-1749044D01*
X5514086Y-1760728D01*
X5508243Y-1766570D01*
X5490972Y-1772157D01*
X5439156Y-1772157D01*
X5558027Y-1778000D02*
G01*
X5661913Y-1778000D01*
X5734558Y-1708657D02*
G01*
X5717286Y-1714500D01*
X5705856Y-1731771D01*
X5700013Y-1760728D01*
X5700013Y-1778000D01*
X5705856Y-1806955D01*
X5717286Y-1824228D01*
X5734558Y-1830070D01*
X5746241Y-1830070D01*
X5763513Y-1824228D01*
X5774943Y-1806955D01*
X5780786Y-1778000D01*
X5780786Y-1760728D01*
X5774943Y-1731771D01*
X5763513Y-1714500D01*
X5746241Y-1708657D01*
X5734558Y-1708657D01*
X5818886Y-1731771D02*
G01*
X5830570Y-1725929D01*
X5847841Y-1708657D01*
X5847841Y-1830070D01*
X5966713Y-1725929D02*
G01*
X5955029Y-1714500D01*
X5937758Y-1708657D01*
X5914643Y-1708657D01*
X5897372Y-1714500D01*
X5885941Y-1725929D01*
X5885941Y-1737613D01*
X5891529Y-1749044D01*
X5897372Y-1754886D01*
X5909056Y-1760728D01*
X5943600Y-1772157D01*
X5955029Y-1778000D01*
X5960872Y-1783842D01*
X5966713Y-1795271D01*
X5966713Y-1812544D01*
X5955029Y-1824228D01*
X5937758Y-1830070D01*
X5914643Y-1830070D01*
X5897372Y-1824228D01*
X5885941Y-1812544D01*
D11*
X749561Y-2565400D02*
G01*
X858527Y-2565400D01*
X749561Y-2565400D02*
G01*
X749561Y-2518663D01*
X754641Y-2503170D01*
X759975Y-2497836D01*
X770389Y-2492755D01*
X780803Y-2492755D01*
X791217Y-2497836D01*
X796297Y-2503170D01*
X801377Y-2518663D01*
X801377Y-2565400D02*
G01*
X801377Y-2518663D01*
X806711Y-2503170D01*
X811791Y-2497836D01*
X822205Y-2492755D01*
X837953Y-2492755D01*
X848367Y-2497836D01*
X853447Y-2503170D01*
X858527Y-2518663D01*
X858527Y-2565400D01*
X749561Y-2458465D02*
G01*
X858527Y-2458465D01*
X749561Y-2458465D02*
G01*
X749561Y-2390902D01*
X801377Y-2458465D02*
G01*
X801377Y-2416810D01*
X858527Y-2458465D02*
G01*
X858527Y-2390902D01*
X749561Y-2356612D02*
G01*
X858527Y-2356612D01*
X749561Y-2356612D02*
G01*
X749561Y-2289047D01*
X801377Y-2356612D02*
G01*
X801377Y-2314955D01*
X858527Y-2356612D02*
G01*
X858527Y-2289047D01*
X749561Y-2254757D02*
G01*
X858527Y-2254757D01*
X749561Y-2254757D02*
G01*
X749561Y-2208021D01*
X754641Y-2192273D01*
X759975Y-2187194D01*
X770389Y-2181860D01*
X785883Y-2181860D01*
X796297Y-2187194D01*
X801377Y-2192273D01*
X806711Y-2208021D01*
X806711Y-2254757D01*
X749561Y-1041400D02*
G01*
X858527Y-1041400D01*
X749561Y-1041400D02*
G01*
X749561Y-1005078D01*
X754641Y-989329D01*
X765055Y-979170D01*
X775469Y-973836D01*
X791217Y-968755D01*
X817125Y-968755D01*
X832619Y-973836D01*
X843033Y-979170D01*
X853447Y-989329D01*
X858527Y-1005078D01*
X858527Y-1041400D01*
X749561Y-934465D02*
G01*
X858527Y-934465D01*
X749561Y-861568D02*
G01*
X858527Y-861568D01*
X801377Y-934465D02*
G01*
X801377Y-861568D01*
X749561Y-790955D02*
G01*
X858527Y-790955D01*
X749561Y-827278D02*
G01*
X749561Y-754634D01*
X770389Y-720344D02*
G01*
X765055Y-709929D01*
X749561Y-694436D01*
X858527Y-694436D01*
X770389Y-660145D02*
G01*
X765055Y-649731D01*
X749561Y-633984D01*
X858527Y-633984D01*
X570484Y-3937000D02*
G01*
X679450Y-3937000D01*
X679450Y-3937000D02*
G01*
X679450Y-3874770D01*
X570484Y-3840479D02*
G01*
X679450Y-3840479D01*
X570484Y-3840479D02*
G01*
X570484Y-3772915D01*
X622300Y-3840479D02*
G01*
X622300Y-3798823D01*
X679450Y-3840479D02*
G01*
X679450Y-3772915D01*
X570484Y-3738626D02*
G01*
X679450Y-3738626D01*
X570484Y-3738626D02*
G01*
X570484Y-3702050D01*
X575563Y-3686555D01*
X585978Y-3676142D01*
X596392Y-3671062D01*
X612139Y-3665728D01*
X638047Y-3665728D01*
X653542Y-3671062D01*
X663955Y-3676142D01*
X674370Y-3686555D01*
X679450Y-3702050D01*
X679450Y-3738626D01*
X591312Y-3631437D02*
G01*
X585978Y-3621023D01*
X570484Y-3605529D01*
X679450Y-3605529D01*
X4516526Y-4547971D02*
G01*
X4521606Y-4558385D01*
X4532020Y-4568799D01*
X4542434Y-4574133D01*
X4558182Y-4579213D01*
X4584090Y-4579213D01*
X4599584Y-4574133D01*
X4609998Y-4568799D01*
X4620412Y-4558385D01*
X4625492Y-4547971D01*
X4625492Y-4527143D01*
X4620412Y-4516983D01*
X4609998Y-4506569D01*
X4599584Y-4501235D01*
X4584090Y-4496155D01*
X4558182Y-4496155D01*
X4542434Y-4501235D01*
X4532020Y-4506569D01*
X4521606Y-4516983D01*
X4516526Y-4527143D01*
X4516526Y-4547971D01*
X4516526Y-4461865D02*
G01*
X4625492Y-4461865D01*
X4625492Y-4461865D02*
G01*
X4625492Y-4399381D01*
X4516526Y-4365091D02*
G01*
X4625492Y-4365091D01*
X4516526Y-4365091D02*
G01*
X4516526Y-4297527D01*
X4568342Y-4365091D02*
G01*
X4568342Y-4323689D01*
X4625492Y-4365091D02*
G01*
X4625492Y-4297527D01*
X4516526Y-4263237D02*
G01*
X4625492Y-4263237D01*
X4516526Y-4263237D02*
G01*
X4516526Y-4226915D01*
X4521606Y-4211421D01*
X4532020Y-4201007D01*
X4542434Y-4195673D01*
X4558182Y-4190593D01*
X4584090Y-4190593D01*
X4599584Y-4195673D01*
X4609998Y-4201007D01*
X4620412Y-4211421D01*
X4625492Y-4226915D01*
X4625492Y-4263237D01*
X4537354Y-4156303D02*
G01*
X4532020Y-4145889D01*
X4516526Y-4130395D01*
X4625492Y-4130395D01*
D12*
X5785218Y-5147561D02*
G01*
X5899769Y-5147561D01*
X5785218Y-5111493D02*
G01*
X5899769Y-5111493D01*
X5812647Y-4993639D02*
G01*
X5801733Y-4999230D01*
X5790808Y-5010147D01*
X5785218Y-5021071D01*
X5785218Y-5042918D01*
X5790808Y-5053835D01*
X5801733Y-5064757D01*
X5812647Y-5070094D01*
X5828908Y-5075684D01*
X5856079Y-5075684D01*
X5872599Y-5070094D01*
X5883518Y-5064757D01*
X5894438Y-5053835D01*
X5899769Y-5042918D01*
X5899769Y-5021071D01*
X5894438Y-5010147D01*
X5883518Y-4999230D01*
X5872599Y-4993639D01*
X5850747Y-4957823D02*
G01*
X5850747Y-4859530D01*
X5812647Y-4741671D02*
G01*
X5801733Y-4747257D01*
X5790808Y-4758184D01*
X5785218Y-4769101D01*
X5785218Y-4790945D01*
X5790808Y-4801875D01*
X5801733Y-4812789D01*
X5812647Y-4818123D01*
X5828908Y-4823711D01*
X5856079Y-4823711D01*
X5872599Y-4818123D01*
X5883518Y-4812789D01*
X5894438Y-4801875D01*
X5899769Y-4790945D01*
X5899769Y-4769101D01*
X5894438Y-4758184D01*
X5883518Y-4747257D01*
X5872599Y-4741671D01*
X5823569Y-4678423D02*
G01*
X5828908Y-4689345D01*
X5839833Y-4700275D01*
X5856079Y-4705857D01*
X5867008Y-4705857D01*
X5883518Y-4700275D01*
X5894438Y-4689345D01*
X5899769Y-4678423D01*
X5899769Y-4662175D01*
X5894438Y-4651245D01*
X5883518Y-4640323D01*
X5867008Y-4634989D01*
X5856079Y-4634989D01*
X5839833Y-4640323D01*
X5828908Y-4651245D01*
X5823569Y-4662175D01*
X5823569Y-4678423D01*
X5823569Y-4598926D02*
G01*
X5899769Y-4598926D01*
X5845418Y-4598926D02*
G01*
X5828908Y-4582411D01*
X5823569Y-4571489D01*
X5823569Y-4555236D01*
X5828908Y-4544311D01*
X5845418Y-4538979D01*
X5899769Y-4538979D01*
X5823569Y-4502917D02*
G01*
X5899769Y-4502917D01*
X5845418Y-4502917D02*
G01*
X5828908Y-4486653D01*
X5823569Y-4475731D01*
X5823569Y-4459226D01*
X5828908Y-4448299D01*
X5845418Y-4442965D01*
X5899769Y-4442965D01*
X5856079Y-4406897D02*
G01*
X5856079Y-4341365D01*
X5845418Y-4341365D01*
X5834499Y-4346953D01*
X5828908Y-4352289D01*
X5823569Y-4363217D01*
X5823569Y-4379721D01*
X5828908Y-4390644D01*
X5839833Y-4401568D01*
X5856079Y-4406897D01*
X5867008Y-4406897D01*
X5883518Y-4401568D01*
X5894438Y-4390644D01*
X5899769Y-4379721D01*
X5899769Y-4363217D01*
X5894438Y-4352289D01*
X5883518Y-4341365D01*
X5839833Y-4240021D02*
G01*
X5828908Y-4250944D01*
X5823569Y-4261868D01*
X5823569Y-4278121D01*
X5828908Y-4289044D01*
X5839833Y-4299968D01*
X5856079Y-4305551D01*
X5867008Y-4305551D01*
X5883518Y-4299968D01*
X5894438Y-4289044D01*
X5899769Y-4278121D01*
X5899769Y-4261868D01*
X5894438Y-4250944D01*
X5883518Y-4240021D01*
X5785218Y-4187695D02*
G01*
X5877933Y-4187695D01*
X5894438Y-4182107D01*
X5899769Y-4171185D01*
X5899769Y-4160268D01*
X5823569Y-4203951D02*
G01*
X5823569Y-4165851D01*
X5823569Y-4097025D02*
G01*
X5828908Y-4107939D01*
X5839833Y-4118861D01*
X5856079Y-4124449D01*
X5867008Y-4124449D01*
X5883518Y-4118861D01*
X5894438Y-4107939D01*
X5899769Y-4097025D01*
X5899769Y-4080761D01*
X5894438Y-4069839D01*
X5883518Y-4058925D01*
X5867008Y-4053586D01*
X5856079Y-4053586D01*
X5839833Y-4058925D01*
X5828908Y-4069839D01*
X5823569Y-4080761D01*
X5823569Y-4097025D01*
X5823569Y-4017515D02*
G01*
X5899769Y-4017515D01*
X5856079Y-4017515D02*
G01*
X5839833Y-4011929D01*
X5828908Y-4001007D01*
X5823569Y-3990086D01*
X5823569Y-3973829D01*
X5560684Y-4939281D02*
G01*
X5566018Y-4955539D01*
X5582269Y-4966467D01*
X5609709Y-4972047D01*
X5625960Y-4972047D01*
X5653389Y-4966467D01*
X5669650Y-4955539D01*
X5674984Y-4939281D01*
X5674984Y-4928367D01*
X5669650Y-4911849D01*
X5653389Y-4900929D01*
X5625960Y-4895593D01*
X5609709Y-4895593D01*
X5582269Y-4900929D01*
X5566018Y-4911849D01*
X5560684Y-4928367D01*
X5560684Y-4939281D01*
X5647809Y-4854194D02*
G01*
X5653389Y-4859530D01*
X5658726Y-4854194D01*
X5653389Y-4848603D01*
X5647809Y-4854194D01*
X5598784Y-4741671D02*
G01*
X5615038Y-4747257D01*
X5625960Y-4758184D01*
X5631550Y-4774435D01*
X5631550Y-4780023D01*
X5625960Y-4796284D01*
X5615038Y-4807201D01*
X5598784Y-4812789D01*
X5593199Y-4812789D01*
X5576938Y-4807201D01*
X5566018Y-4796284D01*
X5560684Y-4780023D01*
X5560684Y-4774435D01*
X5566018Y-4758184D01*
X5576938Y-4747257D01*
X5598784Y-4741671D01*
X5625960Y-4741671D01*
X5653389Y-4747257D01*
X5669650Y-4758184D01*
X5674984Y-4774435D01*
X5674984Y-4785357D01*
X5669650Y-4801875D01*
X5658726Y-4807201D01*
X5576938Y-4640323D02*
G01*
X5566018Y-4645657D01*
X5560684Y-4662175D01*
X5560684Y-4673089D01*
X5566018Y-4689345D01*
X5582269Y-4700275D01*
X5609709Y-4705857D01*
X5636884Y-4705857D01*
X5658726Y-4700275D01*
X5669650Y-4689345D01*
X5674984Y-4673089D01*
X5674984Y-4667501D01*
X5669650Y-4651245D01*
X5658726Y-4640323D01*
X5642475Y-4634735D01*
X5636884Y-4634735D01*
X5620626Y-4640323D01*
X5609709Y-4651245D01*
X5604118Y-4667501D01*
X5604118Y-4673089D01*
X5609709Y-4689345D01*
X5620626Y-4700275D01*
X5636884Y-4705857D01*
X5571347Y-4587999D02*
G01*
X5566018Y-4593336D01*
X5560684Y-4587999D01*
X5566018Y-4582411D01*
X5576938Y-4582411D01*
X5587860Y-4587999D01*
X5593199Y-4593336D01*
X5587860Y-4587999D02*
G01*
X5598784Y-4598926D01*
X5609709Y-4598926D01*
X5615038Y-4593336D01*
X5609709Y-4587999D01*
X5604118Y-4593336D01*
X5609709Y-4598926D01*
X5560684Y-4513831D02*
G01*
X5566018Y-4524753D01*
X5576938Y-4535680D01*
X5587860Y-4541017D01*
X5604118Y-4546597D01*
X5631550Y-4546597D01*
X5647809Y-4541017D01*
X5658726Y-4535680D01*
X5669650Y-4524753D01*
X5674984Y-4513831D01*
X5674984Y-4491989D01*
X5669650Y-4481065D01*
X5658726Y-4470143D01*
X5647809Y-4464557D01*
X5631550Y-4459226D01*
X5604118Y-4459226D01*
X5587860Y-4464557D01*
X5576938Y-4470143D01*
X5566018Y-4481065D01*
X5560684Y-4491989D01*
X5560684Y-4513831D01*
X5560684Y-4423153D02*
G01*
X5674984Y-4423153D01*
X5674984Y-4423153D02*
G01*
X5674984Y-4357880D01*
X5560684Y-4321807D02*
G01*
X5674984Y-4321807D01*
X5560684Y-4321807D02*
G01*
X5560684Y-4250944D01*
X5615038Y-4321807D02*
G01*
X5615038Y-4278121D01*
X5674984Y-4321807D02*
G01*
X5674984Y-4250944D01*
X5560684Y-4214873D02*
G01*
X5674984Y-4214873D01*
X5560684Y-4214873D02*
G01*
X5560684Y-4176773D01*
X5566018Y-4160268D01*
X5576938Y-4149344D01*
X5587860Y-4144007D01*
X5604118Y-4138421D01*
X5631550Y-4138421D01*
X5647809Y-4144007D01*
X5658726Y-4149344D01*
X5669650Y-4160268D01*
X5674984Y-4176773D01*
X5674984Y-4214873D01*
D11*
X684789Y-5384800D02*
G01*
X793755Y-5384800D01*
X684789Y-5384800D02*
G01*
X684789Y-5338063D01*
X689869Y-5322570D01*
X695203Y-5317236D01*
X705617Y-5312155D01*
X716031Y-5312155D01*
X726445Y-5317236D01*
X731525Y-5322570D01*
X736605Y-5338063D01*
X736605Y-5384800D01*
X736605Y-5348478D02*
G01*
X793755Y-5312155D01*
X705617Y-5277865D02*
G01*
X700283Y-5267452D01*
X684789Y-5251704D01*
X793755Y-5251704D01*
X2921000Y-341884D02*
G01*
X2921000Y-419862D01*
X2926079Y-435355D01*
X2936493Y-445770D01*
X2952241Y-450850D01*
X2962656Y-450850D01*
X2978150Y-445770D01*
X2988563Y-435355D01*
X2993643Y-419862D01*
X2993643Y-341884D01*
X3027934Y-362712D02*
G01*
X3038347Y-357378D01*
X3054095Y-341884D01*
X3054095Y-450850D01*
D13*
X1776587Y-739731D02*
G01*
X1801987Y-806533D01*
X1827387Y-739731D02*
G01*
X1801987Y-806533D01*
X1848469Y-739731D02*
G01*
X1848469Y-806533D01*
X1848469Y-739731D02*
G01*
X1877171Y-739731D01*
X1886569Y-742779D01*
X1889871Y-746081D01*
X1892919Y-752431D01*
X1892919Y-758781D01*
X1889871Y-765131D01*
X1886569Y-768179D01*
X1877171Y-771481D01*
X1848469Y-771481D02*
G01*
X1877171Y-771481D01*
X1886569Y-774529D01*
X1889871Y-777831D01*
X1892919Y-784181D01*
X1892919Y-793833D01*
X1889871Y-800183D01*
X1886569Y-803231D01*
X1877171Y-806533D01*
X1848469Y-806533D01*
X1939401Y-739731D02*
G01*
X1914001Y-806533D01*
X1939401Y-739731D02*
G01*
X1965055Y-806533D01*
X1923653Y-784181D02*
G01*
X1955403Y-784181D01*
X2008235Y-739731D02*
G01*
X2008235Y-806533D01*
X1985883Y-739731D02*
G01*
X2030587Y-739731D01*
X1785015Y-970739D02*
G01*
X1785015Y-1037541D01*
X1785015Y-970739D02*
G01*
X1813717Y-970739D01*
X1823115Y-974041D01*
X1826417Y-977089D01*
X1829465Y-983439D01*
X1829465Y-993091D01*
X1826417Y-999441D01*
X1823115Y-1002489D01*
X1813717Y-1005791D01*
X1785015Y-1005791D01*
X1898299Y-986741D02*
G01*
X1894997Y-980391D01*
X1888647Y-974041D01*
X1882297Y-970739D01*
X1869597Y-970739D01*
X1863247Y-974041D01*
X1856897Y-980391D01*
X1853595Y-986741D01*
X1850547Y-996139D01*
X1850547Y-1012141D01*
X1853595Y-1021793D01*
X1856897Y-1028143D01*
X1863247Y-1034493D01*
X1869597Y-1037541D01*
X1882297Y-1037541D01*
X1888647Y-1034493D01*
X1894997Y-1028143D01*
X1898299Y-1021793D01*
X1919381Y-983439D02*
G01*
X1925731Y-980391D01*
X1935129Y-970739D01*
X1935129Y-1037541D01*
X1962561Y-970739D02*
G01*
X1997613Y-970739D01*
X1978563Y-996139D01*
X1987961Y-996139D01*
X1994311Y-999441D01*
X1997613Y-1002489D01*
X2000661Y-1012141D01*
X2000661Y-1018491D01*
X1997613Y-1028143D01*
X1991263Y-1034493D01*
X1981611Y-1037541D01*
X1972213Y-1037541D01*
X1962561Y-1034493D01*
X1959259Y-1031191D01*
X1956211Y-1024841D01*
X1785015Y-1224739D02*
G01*
X1785015Y-1291541D01*
X1785015Y-1224739D02*
G01*
X1813717Y-1224739D01*
X1823115Y-1228041D01*
X1826417Y-1231089D01*
X1829465Y-1237439D01*
X1829465Y-1247091D01*
X1826417Y-1253441D01*
X1823115Y-1256489D01*
X1813717Y-1259791D01*
X1785015Y-1259791D01*
X1898299Y-1240741D02*
G01*
X1894997Y-1234391D01*
X1888647Y-1228041D01*
X1882297Y-1224739D01*
X1869597Y-1224739D01*
X1863247Y-1228041D01*
X1856897Y-1234391D01*
X1853595Y-1240741D01*
X1850547Y-1250139D01*
X1850547Y-1266141D01*
X1853595Y-1275793D01*
X1856897Y-1282143D01*
X1863247Y-1288493D01*
X1869597Y-1291541D01*
X1882297Y-1291541D01*
X1888647Y-1288493D01*
X1894997Y-1282143D01*
X1898299Y-1275793D01*
X1919381Y-1237439D02*
G01*
X1925731Y-1234391D01*
X1935129Y-1224739D01*
X1935129Y-1291541D01*
X1987961Y-1224739D02*
G01*
X1956211Y-1269189D01*
X2003963Y-1269189D01*
X1987961Y-1224739D02*
G01*
X1987961Y-1291541D01*
X1785015Y-1478739D02*
G01*
X1785015Y-1545541D01*
X1785015Y-1478739D02*
G01*
X1813717Y-1478739D01*
X1823115Y-1482041D01*
X1826417Y-1485089D01*
X1829465Y-1491439D01*
X1829465Y-1501091D01*
X1826417Y-1507441D01*
X1823115Y-1510489D01*
X1813717Y-1513791D01*
X1785015Y-1513791D01*
X1898299Y-1494741D02*
G01*
X1894997Y-1488391D01*
X1888647Y-1482041D01*
X1882297Y-1478739D01*
X1869597Y-1478739D01*
X1863247Y-1482041D01*
X1856897Y-1488391D01*
X1853595Y-1494741D01*
X1850547Y-1504139D01*
X1850547Y-1520141D01*
X1853595Y-1529793D01*
X1856897Y-1536143D01*
X1863247Y-1542493D01*
X1869597Y-1545541D01*
X1882297Y-1545541D01*
X1888647Y-1542493D01*
X1894997Y-1536143D01*
X1898299Y-1529793D01*
X1919381Y-1491439D02*
G01*
X1925731Y-1488391D01*
X1935129Y-1478739D01*
X1935129Y-1545541D01*
X1994311Y-1478739D02*
G01*
X1962561Y-1478739D01*
X1959259Y-1507441D01*
X1962561Y-1504139D01*
X1972213Y-1501091D01*
X1981611Y-1501091D01*
X1991263Y-1504139D01*
X1997613Y-1510489D01*
X2000661Y-1520141D01*
X2000661Y-1526491D01*
X1997613Y-1536143D01*
X1991263Y-1542493D01*
X1981611Y-1545541D01*
X1972213Y-1545541D01*
X1962561Y-1542493D01*
X1959259Y-1539191D01*
X1956211Y-1532841D01*
X1789308Y-1720623D02*
G01*
X1789308Y-1787425D01*
X1789308Y-1720623D02*
G01*
X1818010Y-1720623D01*
X1827408Y-1723925D01*
X1830710Y-1726973D01*
X1833758Y-1733323D01*
X1833758Y-1742975D01*
X1830710Y-1749325D01*
X1827408Y-1752373D01*
X1818010Y-1755675D01*
X1789308Y-1755675D01*
X1880240Y-1720623D02*
G01*
X1854840Y-1787425D01*
X1880240Y-1720623D02*
G01*
X1905640Y-1787425D01*
X1864492Y-1765073D02*
G01*
X1896242Y-1765073D01*
X1945772Y-1720623D02*
G01*
X1936374Y-1723925D01*
X1930024Y-1733323D01*
X1926722Y-1749325D01*
X1926722Y-1758723D01*
X1930024Y-1774725D01*
X1936374Y-1784377D01*
X1945772Y-1787425D01*
X1952122Y-1787425D01*
X1961774Y-1784377D01*
X1968124Y-1774725D01*
X1971172Y-1758723D01*
X1971172Y-1749325D01*
X1968124Y-1733323D01*
X1961774Y-1723925D01*
X1952122Y-1720623D01*
X1945772Y-1720623D01*
X1776608Y-1989863D02*
G01*
X1776608Y-2056665D01*
X1776608Y-1989863D02*
G01*
X1805310Y-1989863D01*
X1814708Y-1993165D01*
X1818010Y-1996213D01*
X1821058Y-2002563D01*
X1821058Y-2012215D01*
X1818010Y-2018565D01*
X1814708Y-2021613D01*
X1805310Y-2024915D01*
X1776608Y-2024915D01*
X1867540Y-1989863D02*
G01*
X1842140Y-2056665D01*
X1867540Y-1989863D02*
G01*
X1892940Y-2056665D01*
X1851792Y-2034313D02*
G01*
X1883542Y-2034313D01*
X1914022Y-2002563D02*
G01*
X1920372Y-1999515D01*
X1930024Y-1989863D01*
X1930024Y-2056665D01*
X1789308Y-2238783D02*
G01*
X1789308Y-2305585D01*
X1789308Y-2238783D02*
G01*
X1818010Y-2238783D01*
X1827408Y-2242085D01*
X1830710Y-2245133D01*
X1833758Y-2251483D01*
X1833758Y-2261135D01*
X1830710Y-2267485D01*
X1827408Y-2270533D01*
X1818010Y-2273835D01*
X1789308Y-2273835D01*
X1880240Y-2238783D02*
G01*
X1854840Y-2305585D01*
X1880240Y-2238783D02*
G01*
X1905640Y-2305585D01*
X1864492Y-2283233D02*
G01*
X1896242Y-2283233D01*
X1930024Y-2254785D02*
G01*
X1930024Y-2251483D01*
X1933072Y-2245133D01*
X1936374Y-2242085D01*
X1942724Y-2238783D01*
X1955424Y-2238783D01*
X1961774Y-2242085D01*
X1964822Y-2245133D01*
X1968124Y-2251483D01*
X1968124Y-2257833D01*
X1964822Y-2264183D01*
X1958472Y-2273835D01*
X1926722Y-2305585D01*
X1971172Y-2305585D01*
X1791848Y-2495323D02*
G01*
X1791848Y-2562125D01*
X1791848Y-2495323D02*
G01*
X1820550Y-2495323D01*
X1829948Y-2498625D01*
X1833250Y-2501673D01*
X1836298Y-2508023D01*
X1836298Y-2517675D01*
X1833250Y-2524025D01*
X1829948Y-2527073D01*
X1820550Y-2530375D01*
X1791848Y-2530375D01*
X1882780Y-2495323D02*
G01*
X1857380Y-2562125D01*
X1882780Y-2495323D02*
G01*
X1908180Y-2562125D01*
X1867032Y-2539773D02*
G01*
X1898782Y-2539773D01*
X1935612Y-2495323D02*
G01*
X1970664Y-2495323D01*
X1951614Y-2520723D01*
X1961012Y-2520723D01*
X1967362Y-2524025D01*
X1970664Y-2527073D01*
X1973712Y-2536725D01*
X1973712Y-2543075D01*
X1970664Y-2552727D01*
X1964314Y-2559077D01*
X1954662Y-2562125D01*
X1945264Y-2562125D01*
X1935612Y-2559077D01*
X1932564Y-2555775D01*
X1929262Y-2549425D01*
X1791848Y-2751863D02*
G01*
X1791848Y-2818665D01*
X1791848Y-2751863D02*
G01*
X1820550Y-2751863D01*
X1829948Y-2755165D01*
X1833250Y-2758213D01*
X1836298Y-2764563D01*
X1836298Y-2774215D01*
X1833250Y-2780565D01*
X1829948Y-2783613D01*
X1820550Y-2786915D01*
X1791848Y-2786915D01*
X1882780Y-2751863D02*
G01*
X1857380Y-2818665D01*
X1882780Y-2751863D02*
G01*
X1908180Y-2818665D01*
X1867032Y-2796313D02*
G01*
X1898782Y-2796313D01*
X1961012Y-2751863D02*
G01*
X1929262Y-2796313D01*
X1977014Y-2796313D01*
X1961012Y-2751863D02*
G01*
X1961012Y-2818665D01*
X1784228Y-3005863D02*
G01*
X1784228Y-3072665D01*
X1784228Y-3005863D02*
G01*
X1812930Y-3005863D01*
X1822328Y-3009165D01*
X1825630Y-3012213D01*
X1828678Y-3018563D01*
X1828678Y-3028215D01*
X1825630Y-3034565D01*
X1822328Y-3037613D01*
X1812930Y-3040915D01*
X1784228Y-3040915D01*
X1875160Y-3005863D02*
G01*
X1849760Y-3072665D01*
X1875160Y-3005863D02*
G01*
X1900560Y-3072665D01*
X1859412Y-3050313D02*
G01*
X1891162Y-3050313D01*
X1959742Y-3005863D02*
G01*
X1927992Y-3005863D01*
X1924944Y-3034565D01*
X1927992Y-3031263D01*
X1937644Y-3028215D01*
X1947042Y-3028215D01*
X1956694Y-3031263D01*
X1963044Y-3037613D01*
X1966092Y-3047265D01*
X1966092Y-3053615D01*
X1963044Y-3063267D01*
X1956694Y-3069617D01*
X1947042Y-3072665D01*
X1937644Y-3072665D01*
X1927992Y-3069617D01*
X1924944Y-3066315D01*
X1921642Y-3059965D01*
X1796928Y-3254783D02*
G01*
X1796928Y-3321585D01*
X1796928Y-3254783D02*
G01*
X1825630Y-3254783D01*
X1835028Y-3258085D01*
X1838330Y-3261133D01*
X1841378Y-3267483D01*
X1841378Y-3277135D01*
X1838330Y-3283485D01*
X1835028Y-3286533D01*
X1825630Y-3289835D01*
X1796928Y-3289835D01*
X1887860Y-3254783D02*
G01*
X1862460Y-3321585D01*
X1887860Y-3254783D02*
G01*
X1913260Y-3321585D01*
X1872112Y-3299233D02*
G01*
X1903862Y-3299233D01*
X1972442Y-3264435D02*
G01*
X1969394Y-3258085D01*
X1959742Y-3254783D01*
X1953392Y-3254783D01*
X1943994Y-3258085D01*
X1937644Y-3267483D01*
X1934342Y-3283485D01*
X1934342Y-3299233D01*
X1937644Y-3312187D01*
X1943994Y-3318537D01*
X1953392Y-3321585D01*
X1956694Y-3321585D01*
X1966092Y-3318537D01*
X1972442Y-3312187D01*
X1975744Y-3302535D01*
X1975744Y-3299233D01*
X1972442Y-3289835D01*
X1966092Y-3283485D01*
X1956694Y-3280183D01*
X1953392Y-3280183D01*
X1943994Y-3283485D01*
X1937644Y-3289835D01*
X1934342Y-3299233D01*
X1799468Y-3511323D02*
G01*
X1799468Y-3578125D01*
X1799468Y-3511323D02*
G01*
X1828170Y-3511323D01*
X1837568Y-3514625D01*
X1840870Y-3517673D01*
X1843918Y-3524023D01*
X1843918Y-3533675D01*
X1840870Y-3540025D01*
X1837568Y-3543073D01*
X1828170Y-3546375D01*
X1799468Y-3546375D01*
X1890400Y-3511323D02*
G01*
X1865000Y-3578125D01*
X1890400Y-3511323D02*
G01*
X1915800Y-3578125D01*
X1874652Y-3555773D02*
G01*
X1906402Y-3555773D01*
X1981332Y-3511323D02*
G01*
X1949582Y-3578125D01*
X1936882Y-3511323D02*
G01*
X1981332Y-3511323D01*
X1799468Y-3767863D02*
G01*
X1799468Y-3834665D01*
X1799468Y-3767863D02*
G01*
X1828170Y-3767863D01*
X1837568Y-3771165D01*
X1840870Y-3774213D01*
X1843918Y-3780563D01*
X1843918Y-3790215D01*
X1840870Y-3796565D01*
X1837568Y-3799613D01*
X1828170Y-3802915D01*
X1799468Y-3802915D01*
X1865000Y-3767863D02*
G01*
X1865000Y-3834665D01*
X1865000Y-3767863D02*
G01*
X1893702Y-3767863D01*
X1903100Y-3771165D01*
X1906402Y-3774213D01*
X1909450Y-3780563D01*
X1909450Y-3786913D01*
X1906402Y-3793263D01*
X1903100Y-3796565D01*
X1893702Y-3799613D01*
X1865000Y-3799613D02*
G01*
X1893702Y-3799613D01*
X1903100Y-3802915D01*
X1906402Y-3805963D01*
X1909450Y-3812313D01*
X1909450Y-3821965D01*
X1906402Y-3828315D01*
X1903100Y-3831617D01*
X1893702Y-3834665D01*
X1865000Y-3834665D01*
X1949582Y-3767863D02*
G01*
X1940184Y-3771165D01*
X1933834Y-3780563D01*
X1930532Y-3796565D01*
X1930532Y-3805963D01*
X1933834Y-3821965D01*
X1940184Y-3831617D01*
X1949582Y-3834665D01*
X1955932Y-3834665D01*
X1965584Y-3831617D01*
X1971934Y-3821965D01*
X1974982Y-3805963D01*
X1974982Y-3796565D01*
X1971934Y-3780563D01*
X1965584Y-3771165D01*
X1955932Y-3767863D01*
X1949582Y-3767863D01*
X1791848Y-4021863D02*
G01*
X1791848Y-4088665D01*
X1791848Y-4021863D02*
G01*
X1820550Y-4021863D01*
X1829948Y-4025165D01*
X1833250Y-4028213D01*
X1836298Y-4034563D01*
X1836298Y-4044215D01*
X1833250Y-4050565D01*
X1829948Y-4053613D01*
X1820550Y-4056915D01*
X1791848Y-4056915D01*
X1857380Y-4021863D02*
G01*
X1857380Y-4088665D01*
X1857380Y-4021863D02*
G01*
X1886082Y-4021863D01*
X1895480Y-4025165D01*
X1898782Y-4028213D01*
X1901830Y-4034563D01*
X1901830Y-4040913D01*
X1898782Y-4047263D01*
X1895480Y-4050565D01*
X1886082Y-4053613D01*
X1857380Y-4053613D02*
G01*
X1886082Y-4053613D01*
X1895480Y-4056915D01*
X1898782Y-4059963D01*
X1901830Y-4066313D01*
X1901830Y-4075965D01*
X1898782Y-4082315D01*
X1895480Y-4085617D01*
X1886082Y-4088665D01*
X1857380Y-4088665D01*
X1922912Y-4034563D02*
G01*
X1929262Y-4031515D01*
X1938914Y-4021863D01*
X1938914Y-4088665D01*
X1804548Y-4270783D02*
G01*
X1804548Y-4337585D01*
X1804548Y-4270783D02*
G01*
X1833250Y-4270783D01*
X1842648Y-4274085D01*
X1845950Y-4277133D01*
X1848998Y-4283483D01*
X1848998Y-4293135D01*
X1845950Y-4299485D01*
X1842648Y-4302533D01*
X1833250Y-4305835D01*
X1804548Y-4305835D01*
X1870080Y-4270783D02*
G01*
X1870080Y-4337585D01*
X1870080Y-4270783D02*
G01*
X1898782Y-4270783D01*
X1908180Y-4274085D01*
X1911482Y-4277133D01*
X1914530Y-4283483D01*
X1914530Y-4289833D01*
X1911482Y-4296183D01*
X1908180Y-4299485D01*
X1898782Y-4302533D01*
X1870080Y-4302533D02*
G01*
X1898782Y-4302533D01*
X1908180Y-4305835D01*
X1911482Y-4308883D01*
X1914530Y-4315233D01*
X1914530Y-4324885D01*
X1911482Y-4331235D01*
X1908180Y-4334537D01*
X1898782Y-4337585D01*
X1870080Y-4337585D01*
X1935612Y-4283483D02*
G01*
X1941962Y-4280435D01*
X1951614Y-4270783D01*
X1951614Y-4337585D01*
X1991746Y-4270783D02*
G01*
X1982094Y-4274085D01*
X1975744Y-4283483D01*
X1972442Y-4299485D01*
X1972442Y-4308883D01*
X1975744Y-4324885D01*
X1982094Y-4334537D01*
X1991746Y-4337585D01*
X1998096Y-4337585D01*
X2007494Y-4334537D01*
X2013844Y-4324885D01*
X2017146Y-4308883D01*
X2017146Y-4299485D01*
X2013844Y-4283483D01*
X2007494Y-4274085D01*
X1998096Y-4270783D01*
X1991746Y-4270783D01*
X1807088Y-4527323D02*
G01*
X1807088Y-4594125D01*
X1807088Y-4527323D02*
G01*
X1835790Y-4527323D01*
X1845188Y-4530625D01*
X1848490Y-4533673D01*
X1851538Y-4540023D01*
X1851538Y-4549675D01*
X1848490Y-4556025D01*
X1845188Y-4559073D01*
X1835790Y-4562375D01*
X1807088Y-4562375D01*
X1872620Y-4527323D02*
G01*
X1872620Y-4594125D01*
X1872620Y-4527323D02*
G01*
X1901322Y-4527323D01*
X1910720Y-4530625D01*
X1914022Y-4533673D01*
X1917070Y-4540023D01*
X1917070Y-4546373D01*
X1914022Y-4552723D01*
X1910720Y-4556025D01*
X1901322Y-4559073D01*
X1872620Y-4559073D02*
G01*
X1901322Y-4559073D01*
X1910720Y-4562375D01*
X1914022Y-4565423D01*
X1917070Y-4571773D01*
X1917070Y-4581425D01*
X1914022Y-4587775D01*
X1910720Y-4591077D01*
X1901322Y-4594125D01*
X1872620Y-4594125D01*
X1938152Y-4540023D02*
G01*
X1944502Y-4536975D01*
X1954154Y-4527323D01*
X1954154Y-4594125D01*
X1974982Y-4540023D02*
G01*
X1981332Y-4536975D01*
X1990984Y-4527323D01*
X1990984Y-4594125D01*
X1810395Y-4787907D02*
G01*
X1810395Y-4854709D01*
X1810395Y-4787907D02*
G01*
X1839097Y-4787907D01*
X1848495Y-4790955D01*
X1851797Y-4794257D01*
X1854845Y-4800607D01*
X1854845Y-4806957D01*
X1851797Y-4813307D01*
X1848495Y-4816355D01*
X1839097Y-4819657D01*
X1810395Y-4819657D01*
X1832747Y-4819657D02*
G01*
X1854845Y-4854709D01*
X1920377Y-4797305D02*
G01*
X1914027Y-4790955D01*
X1904629Y-4787907D01*
X1891929Y-4787907D01*
X1882277Y-4790955D01*
X1875927Y-4797305D01*
X1875927Y-4803655D01*
X1879229Y-4810005D01*
X1882277Y-4813307D01*
X1888627Y-4816355D01*
X1907677Y-4822705D01*
X1914027Y-4826007D01*
X1917329Y-4829309D01*
X1920377Y-4835659D01*
X1920377Y-4845057D01*
X1914027Y-4851407D01*
X1904629Y-4854709D01*
X1891929Y-4854709D01*
X1882277Y-4851407D01*
X1875927Y-4845057D01*
X1963811Y-4787907D02*
G01*
X1963811Y-4854709D01*
X1941459Y-4787907D02*
G01*
X1985909Y-4787907D01*
X1805818Y-5030243D02*
G01*
X1840870Y-5030243D01*
X1821820Y-5055643D01*
X1831218Y-5055643D01*
X1837568Y-5058945D01*
X1840870Y-5061993D01*
X1843918Y-5071645D01*
X1843918Y-5077995D01*
X1840870Y-5087647D01*
X1834520Y-5093997D01*
X1824868Y-5097045D01*
X1815470Y-5097045D01*
X1805818Y-5093997D01*
X1802516Y-5090695D01*
X1799468Y-5084345D01*
X1868048Y-5081297D02*
G01*
X1865000Y-5084345D01*
X1868048Y-5087647D01*
X1871350Y-5084345D01*
X1868048Y-5081297D01*
X1898782Y-5030243D02*
G01*
X1933834Y-5030243D01*
X1914530Y-5055643D01*
X1924182Y-5055643D01*
X1930532Y-5058945D01*
X1933834Y-5061993D01*
X1936882Y-5071645D01*
X1936882Y-5077995D01*
X1933834Y-5087647D01*
X1927484Y-5093997D01*
X1917832Y-5097045D01*
X1908180Y-5097045D01*
X1898782Y-5093997D01*
X1895480Y-5090695D01*
X1892432Y-5084345D01*
X1957964Y-5030243D02*
G01*
X1983364Y-5097045D01*
X2008764Y-5030243D02*
G01*
X1983364Y-5097045D01*
X1858147Y-5311655D02*
G01*
X1854845Y-5305305D01*
X1848495Y-5298955D01*
X1842145Y-5295907D01*
X1829445Y-5295907D01*
X1823095Y-5298955D01*
X1816745Y-5305305D01*
X1813697Y-5311655D01*
X1810395Y-5321307D01*
X1810395Y-5337309D01*
X1813697Y-5346707D01*
X1816745Y-5353057D01*
X1823095Y-5359407D01*
X1829445Y-5362709D01*
X1842145Y-5362709D01*
X1848495Y-5359407D01*
X1854845Y-5353057D01*
X1858147Y-5346707D01*
X1858147Y-5337309D01*
X1842145Y-5337309D02*
G01*
X1858147Y-5337309D01*
X1879229Y-5295907D02*
G01*
X1879229Y-5362709D01*
X1879229Y-5295907D02*
G01*
X1923679Y-5362709D01*
X1923679Y-5295907D02*
G01*
X1923679Y-5362709D01*
X1944761Y-5295907D02*
G01*
X1944761Y-5362709D01*
X1944761Y-5295907D02*
G01*
X1966859Y-5295907D01*
X1976511Y-5298955D01*
X1982861Y-5305305D01*
X1985909Y-5311655D01*
X1989211Y-5321307D01*
X1989211Y-5337309D01*
X1985909Y-5346707D01*
X1982861Y-5353057D01*
X1976511Y-5359407D01*
X1966859Y-5362709D01*
X1944761Y-5362709D01*
X1858147Y-5565655D02*
G01*
X1854845Y-5559305D01*
X1848495Y-5552955D01*
X1842145Y-5549907D01*
X1829445Y-5549907D01*
X1823095Y-5552955D01*
X1816745Y-5559305D01*
X1813697Y-5565655D01*
X1810395Y-5575307D01*
X1810395Y-5591309D01*
X1813697Y-5600707D01*
X1816745Y-5607057D01*
X1823095Y-5613407D01*
X1829445Y-5616709D01*
X1842145Y-5616709D01*
X1848495Y-5613407D01*
X1854845Y-5607057D01*
X1858147Y-5600707D01*
X1858147Y-5591309D01*
X1842145Y-5591309D02*
G01*
X1858147Y-5591309D01*
X1879229Y-5549907D02*
G01*
X1879229Y-5616709D01*
X1879229Y-5549907D02*
G01*
X1923679Y-5616709D01*
X1923679Y-5549907D02*
G01*
X1923679Y-5616709D01*
X1944761Y-5549907D02*
G01*
X1944761Y-5616709D01*
X1944761Y-5549907D02*
G01*
X1966859Y-5549907D01*
X1976511Y-5552955D01*
X1982861Y-5559305D01*
X1985909Y-5565655D01*
X1989211Y-5575307D01*
X1989211Y-5591309D01*
X1985909Y-5600707D01*
X1982861Y-5607057D01*
X1976511Y-5613407D01*
X1966859Y-5616709D01*
X1944761Y-5616709D01*
X3848773Y-742142D02*
G01*
X3883825Y-742142D01*
X3864775Y-767542D01*
X3874173Y-767542D01*
X3880523Y-770844D01*
X3883825Y-773892D01*
X3886873Y-783544D01*
X3886873Y-789894D01*
X3883825Y-799546D01*
X3877475Y-805896D01*
X3867823Y-808944D01*
X3858425Y-808944D01*
X3848773Y-805896D01*
X3845471Y-802594D01*
X3842423Y-796244D01*
X3911003Y-793196D02*
G01*
X3907955Y-796244D01*
X3911003Y-799546D01*
X3914305Y-796244D01*
X3911003Y-793196D01*
X3941737Y-742142D02*
G01*
X3976789Y-742142D01*
X3957485Y-767542D01*
X3967137Y-767542D01*
X3973487Y-770844D01*
X3976789Y-773892D01*
X3979837Y-783544D01*
X3979837Y-789894D01*
X3976789Y-799546D01*
X3970439Y-805896D01*
X3960787Y-808944D01*
X3951135Y-808944D01*
X3941737Y-805896D01*
X3938435Y-802594D01*
X3935387Y-796244D01*
X4000919Y-742142D02*
G01*
X4026319Y-808944D01*
X4051719Y-742142D02*
G01*
X4026319Y-808944D01*
X3890154Y-993658D02*
G01*
X3886852Y-987308D01*
X3880502Y-980958D01*
X3874152Y-977910D01*
X3861452Y-977910D01*
X3855102Y-980958D01*
X3848752Y-987308D01*
X3845704Y-993658D01*
X3842402Y-1003310D01*
X3842402Y-1019312D01*
X3845704Y-1028710D01*
X3848752Y-1035060D01*
X3855102Y-1041410D01*
X3861452Y-1044712D01*
X3874152Y-1044712D01*
X3880502Y-1041410D01*
X3886852Y-1035060D01*
X3890154Y-1028710D01*
X3890154Y-1019312D01*
X3874152Y-1019312D02*
G01*
X3890154Y-1019312D01*
X3911236Y-977910D02*
G01*
X3911236Y-1044712D01*
X3911236Y-977910D02*
G01*
X3955686Y-1044712D01*
X3955686Y-977910D02*
G01*
X3955686Y-1044712D01*
X3976768Y-977910D02*
G01*
X3976768Y-1044712D01*
X3976768Y-977910D02*
G01*
X3998866Y-977910D01*
X4008518Y-980958D01*
X4014868Y-987308D01*
X4017916Y-993658D01*
X4021218Y-1003310D01*
X4021218Y-1019312D01*
X4017916Y-1028710D01*
X4014868Y-1035060D01*
X4008518Y-1041410D01*
X3998866Y-1044712D01*
X3976768Y-1044712D01*
X3888353Y-1229415D02*
G01*
X3856603Y-1229415D01*
X3853301Y-1258117D01*
X3856603Y-1254815D01*
X3866255Y-1251767D01*
X3875653Y-1251767D01*
X3885305Y-1254815D01*
X3891655Y-1261165D01*
X3894703Y-1270817D01*
X3894703Y-1277167D01*
X3891655Y-1286819D01*
X3885305Y-1293169D01*
X3875653Y-1296217D01*
X3866255Y-1296217D01*
X3856603Y-1293169D01*
X3853301Y-1289867D01*
X3850253Y-1283517D01*
X3915785Y-1229415D02*
G01*
X3941185Y-1296217D01*
X3966585Y-1229415D02*
G01*
X3941185Y-1296217D01*
X3842405Y-1478767D02*
G01*
X3842405Y-1545569D01*
X3842405Y-1478767D02*
G01*
X3871107Y-1478767D01*
X3880505Y-1481815D01*
X3883807Y-1485117D01*
X3886855Y-1491467D01*
X3886855Y-1501119D01*
X3883807Y-1507469D01*
X3880505Y-1510517D01*
X3871107Y-1513819D01*
X3842405Y-1513819D01*
X3907937Y-1478767D02*
G01*
X3907937Y-1545569D01*
X3907937Y-1478767D02*
G01*
X3936639Y-1478767D01*
X3946037Y-1481815D01*
X3949339Y-1485117D01*
X3952387Y-1491467D01*
X3952387Y-1497817D01*
X3949339Y-1504167D01*
X3946037Y-1507469D01*
X3936639Y-1510517D01*
X3907937Y-1510517D02*
G01*
X3936639Y-1510517D01*
X3946037Y-1513819D01*
X3949339Y-1516867D01*
X3952387Y-1523217D01*
X3952387Y-1532869D01*
X3949339Y-1539219D01*
X3946037Y-1542521D01*
X3936639Y-1545569D01*
X3907937Y-1545569D01*
X4014871Y-1501119D02*
G01*
X4011569Y-1510517D01*
X4005219Y-1516867D01*
X3995821Y-1520169D01*
X3992519Y-1520169D01*
X3983121Y-1516867D01*
X3976771Y-1510517D01*
X3973469Y-1501119D01*
X3973469Y-1497817D01*
X3976771Y-1488419D01*
X3983121Y-1481815D01*
X3992519Y-1478767D01*
X3995821Y-1478767D01*
X4005219Y-1481815D01*
X4011569Y-1488419D01*
X4014871Y-1501119D01*
X4014871Y-1516867D01*
X4011569Y-1532869D01*
X4005219Y-1542521D01*
X3995821Y-1545569D01*
X3989471Y-1545569D01*
X3979819Y-1542521D01*
X3976771Y-1535917D01*
X3839077Y-1735891D02*
G01*
X3839077Y-1802693D01*
X3839077Y-1735891D02*
G01*
X3867779Y-1735891D01*
X3877177Y-1738939D01*
X3880479Y-1742241D01*
X3883527Y-1748591D01*
X3883527Y-1758243D01*
X3880479Y-1764593D01*
X3877177Y-1767641D01*
X3867779Y-1770943D01*
X3839077Y-1770943D01*
X3904609Y-1735891D02*
G01*
X3904609Y-1802693D01*
X3904609Y-1735891D02*
G01*
X3933311Y-1735891D01*
X3942709Y-1738939D01*
X3946011Y-1742241D01*
X3949059Y-1748591D01*
X3949059Y-1754941D01*
X3946011Y-1761291D01*
X3942709Y-1764593D01*
X3933311Y-1767641D01*
X3904609Y-1767641D02*
G01*
X3933311Y-1767641D01*
X3942709Y-1770943D01*
X3946011Y-1773991D01*
X3949059Y-1780341D01*
X3949059Y-1789993D01*
X3946011Y-1796343D01*
X3942709Y-1799645D01*
X3933311Y-1802693D01*
X3904609Y-1802693D01*
X3986143Y-1735891D02*
G01*
X3976491Y-1738939D01*
X3973443Y-1745543D01*
X3973443Y-1751893D01*
X3976491Y-1758243D01*
X3982841Y-1761291D01*
X3995541Y-1764593D01*
X4005193Y-1767641D01*
X4011543Y-1773991D01*
X4014591Y-1780341D01*
X4014591Y-1789993D01*
X4011543Y-1796343D01*
X4008241Y-1799645D01*
X3998843Y-1802693D01*
X3986143Y-1802693D01*
X3976491Y-1799645D01*
X3973443Y-1796343D01*
X3970141Y-1789993D01*
X3970141Y-1780341D01*
X3973443Y-1773991D01*
X3979793Y-1767641D01*
X3989191Y-1764593D01*
X4001891Y-1761291D01*
X4008241Y-1758243D01*
X4011543Y-1751893D01*
X4011543Y-1745543D01*
X4008241Y-1738939D01*
X3998843Y-1735891D01*
X3986143Y-1735891D01*
X3851777Y-1979731D02*
G01*
X3851777Y-2046533D01*
X3851777Y-1979731D02*
G01*
X3880479Y-1979731D01*
X3889877Y-1982779D01*
X3893179Y-1986081D01*
X3896227Y-1992431D01*
X3896227Y-2002083D01*
X3893179Y-2008433D01*
X3889877Y-2011481D01*
X3880479Y-2014783D01*
X3851777Y-2014783D01*
X3917309Y-1979731D02*
G01*
X3917309Y-2046533D01*
X3917309Y-1979731D02*
G01*
X3946011Y-1979731D01*
X3955409Y-1982779D01*
X3958711Y-1986081D01*
X3961759Y-1992431D01*
X3961759Y-1998781D01*
X3958711Y-2005131D01*
X3955409Y-2008433D01*
X3946011Y-2011481D01*
X3917309Y-2011481D02*
G01*
X3946011Y-2011481D01*
X3955409Y-2014783D01*
X3958711Y-2017831D01*
X3961759Y-2024181D01*
X3961759Y-2033833D01*
X3958711Y-2040183D01*
X3955409Y-2043485D01*
X3946011Y-2046533D01*
X3917309Y-2046533D01*
X4027291Y-1979731D02*
G01*
X3995541Y-2046533D01*
X3982841Y-1979731D02*
G01*
X4027291Y-1979731D01*
X3839077Y-2254051D02*
G01*
X3839077Y-2320853D01*
X3839077Y-2254051D02*
G01*
X3867779Y-2254051D01*
X3877177Y-2257099D01*
X3880479Y-2260401D01*
X3883527Y-2266751D01*
X3883527Y-2276403D01*
X3880479Y-2282753D01*
X3877177Y-2285801D01*
X3867779Y-2289103D01*
X3839077Y-2289103D01*
X3904609Y-2254051D02*
G01*
X3904609Y-2320853D01*
X3904609Y-2254051D02*
G01*
X3933311Y-2254051D01*
X3942709Y-2257099D01*
X3946011Y-2260401D01*
X3949059Y-2266751D01*
X3949059Y-2273101D01*
X3946011Y-2279451D01*
X3942709Y-2282753D01*
X3933311Y-2285801D01*
X3904609Y-2285801D02*
G01*
X3933311Y-2285801D01*
X3942709Y-2289103D01*
X3946011Y-2292151D01*
X3949059Y-2298501D01*
X3949059Y-2308153D01*
X3946011Y-2314503D01*
X3942709Y-2317805D01*
X3933311Y-2320853D01*
X3904609Y-2320853D01*
X4008241Y-2263703D02*
G01*
X4005193Y-2257099D01*
X3995541Y-2254051D01*
X3989191Y-2254051D01*
X3979793Y-2257099D01*
X3973443Y-2266751D01*
X3970141Y-2282753D01*
X3970141Y-2298501D01*
X3973443Y-2311201D01*
X3979793Y-2317805D01*
X3989191Y-2320853D01*
X3992493Y-2320853D01*
X4001891Y-2317805D01*
X4008241Y-2311201D01*
X4011543Y-2301803D01*
X4011543Y-2298501D01*
X4008241Y-2289103D01*
X4001891Y-2282753D01*
X3992493Y-2279451D01*
X3989191Y-2279451D01*
X3979793Y-2282753D01*
X3973443Y-2289103D01*
X3970141Y-2298501D01*
X3841617Y-2510591D02*
G01*
X3841617Y-2577393D01*
X3841617Y-2510591D02*
G01*
X3870319Y-2510591D01*
X3879717Y-2513639D01*
X3883019Y-2516941D01*
X3886067Y-2523291D01*
X3886067Y-2532943D01*
X3883019Y-2539293D01*
X3879717Y-2542341D01*
X3870319Y-2545643D01*
X3841617Y-2545643D01*
X3907149Y-2510591D02*
G01*
X3907149Y-2577393D01*
X3907149Y-2510591D02*
G01*
X3935851Y-2510591D01*
X3945249Y-2513639D01*
X3948551Y-2516941D01*
X3951599Y-2523291D01*
X3951599Y-2529641D01*
X3948551Y-2535991D01*
X3945249Y-2539293D01*
X3935851Y-2542341D01*
X3907149Y-2542341D02*
G01*
X3935851Y-2542341D01*
X3945249Y-2545643D01*
X3948551Y-2548691D01*
X3951599Y-2555041D01*
X3951599Y-2564693D01*
X3948551Y-2571043D01*
X3945249Y-2574345D01*
X3935851Y-2577393D01*
X3907149Y-2577393D01*
X4010781Y-2510591D02*
G01*
X3979031Y-2510591D01*
X3975983Y-2539293D01*
X3979031Y-2535991D01*
X3988683Y-2532943D01*
X3998081Y-2532943D01*
X4007733Y-2535991D01*
X4014083Y-2542341D01*
X4017131Y-2551993D01*
X4017131Y-2558343D01*
X4014083Y-2567741D01*
X4007733Y-2574345D01*
X3998081Y-2577393D01*
X3988683Y-2577393D01*
X3979031Y-2574345D01*
X3975983Y-2571043D01*
X3972681Y-2564693D01*
X3841617Y-2741731D02*
G01*
X3841617Y-2808533D01*
X3841617Y-2741731D02*
G01*
X3870319Y-2741731D01*
X3879717Y-2744779D01*
X3883019Y-2748081D01*
X3886067Y-2754431D01*
X3886067Y-2764083D01*
X3883019Y-2770433D01*
X3879717Y-2773481D01*
X3870319Y-2776783D01*
X3841617Y-2776783D01*
X3907149Y-2741731D02*
G01*
X3907149Y-2808533D01*
X3907149Y-2741731D02*
G01*
X3935851Y-2741731D01*
X3945249Y-2744779D01*
X3948551Y-2748081D01*
X3951599Y-2754431D01*
X3951599Y-2760781D01*
X3948551Y-2767131D01*
X3945249Y-2770433D01*
X3935851Y-2773481D01*
X3907149Y-2773481D02*
G01*
X3935851Y-2773481D01*
X3945249Y-2776783D01*
X3948551Y-2779831D01*
X3951599Y-2786181D01*
X3951599Y-2795833D01*
X3948551Y-2802183D01*
X3945249Y-2805485D01*
X3935851Y-2808533D01*
X3907149Y-2808533D01*
X4004431Y-2741731D02*
G01*
X3972681Y-2786181D01*
X4020433Y-2786181D01*
X4004431Y-2741731D02*
G01*
X4004431Y-2808533D01*
X3842405Y-3028167D02*
G01*
X3842405Y-3094969D01*
X3842405Y-3028167D02*
G01*
X3871107Y-3028167D01*
X3880505Y-3031215D01*
X3883807Y-3034517D01*
X3886855Y-3040867D01*
X3886855Y-3050519D01*
X3883807Y-3056869D01*
X3880505Y-3059917D01*
X3871107Y-3063219D01*
X3842405Y-3063219D01*
X3907937Y-3028167D02*
G01*
X3907937Y-3094969D01*
X3907937Y-3028167D02*
G01*
X3936639Y-3028167D01*
X3946037Y-3031215D01*
X3949339Y-3034517D01*
X3952387Y-3040867D01*
X3952387Y-3047217D01*
X3949339Y-3053567D01*
X3946037Y-3056869D01*
X3936639Y-3059917D01*
X3907937Y-3059917D02*
G01*
X3936639Y-3059917D01*
X3946037Y-3063219D01*
X3949339Y-3066267D01*
X3952387Y-3072617D01*
X3952387Y-3082269D01*
X3949339Y-3088619D01*
X3946037Y-3091921D01*
X3936639Y-3094969D01*
X3907937Y-3094969D01*
X3979819Y-3028167D02*
G01*
X4014871Y-3028167D01*
X3995821Y-3053567D01*
X4005219Y-3053567D01*
X4011569Y-3056869D01*
X4014871Y-3059917D01*
X4017919Y-3069569D01*
X4017919Y-3075919D01*
X4014871Y-3085317D01*
X4008521Y-3091921D01*
X3998869Y-3094969D01*
X3989471Y-3094969D01*
X3979819Y-3091921D01*
X3976771Y-3088619D01*
X3973469Y-3082269D01*
X3842415Y-3256765D02*
G01*
X3842415Y-3323567D01*
X3842415Y-3256765D02*
G01*
X3871117Y-3256765D01*
X3880515Y-3259813D01*
X3883817Y-3263115D01*
X3886865Y-3269465D01*
X3886865Y-3279117D01*
X3883817Y-3285467D01*
X3880515Y-3288515D01*
X3871117Y-3291817D01*
X3842415Y-3291817D01*
X3933347Y-3256765D02*
G01*
X3907947Y-3323567D01*
X3933347Y-3256765D02*
G01*
X3958747Y-3323567D01*
X3917599Y-3301215D02*
G01*
X3949349Y-3301215D01*
X3979829Y-3269465D02*
G01*
X3986179Y-3266417D01*
X3995831Y-3256765D01*
X3995831Y-3323567D01*
X4055013Y-3256765D02*
G01*
X4023009Y-3256765D01*
X4019961Y-3285467D01*
X4023009Y-3282165D01*
X4032661Y-3279117D01*
X4042313Y-3279117D01*
X4051711Y-3282165D01*
X4058061Y-3288515D01*
X4061363Y-3298167D01*
X4061363Y-3304517D01*
X4058061Y-3313915D01*
X4051711Y-3320519D01*
X4042313Y-3323567D01*
X4032661Y-3323567D01*
X4023009Y-3320519D01*
X4019961Y-3317217D01*
X4016659Y-3310867D01*
X3842415Y-3536165D02*
G01*
X3842415Y-3602967D01*
X3842415Y-3536165D02*
G01*
X3871117Y-3536165D01*
X3880515Y-3539213D01*
X3883817Y-3542515D01*
X3886865Y-3548865D01*
X3886865Y-3558517D01*
X3883817Y-3564867D01*
X3880515Y-3567915D01*
X3871117Y-3571217D01*
X3842415Y-3571217D01*
X3933347Y-3536165D02*
G01*
X3907947Y-3602967D01*
X3933347Y-3536165D02*
G01*
X3958747Y-3602967D01*
X3917599Y-3580615D02*
G01*
X3949349Y-3580615D01*
X3979829Y-3548865D02*
G01*
X3986179Y-3545817D01*
X3995831Y-3536165D01*
X3995831Y-3602967D01*
X4019961Y-3552167D02*
G01*
X4019961Y-3548865D01*
X4023009Y-3542515D01*
X4026311Y-3539213D01*
X4032661Y-3536165D01*
X4045361Y-3536165D01*
X4051711Y-3539213D01*
X4055013Y-3542515D01*
X4058061Y-3548865D01*
X4058061Y-3555215D01*
X4055013Y-3561565D01*
X4048663Y-3571217D01*
X4016659Y-3602967D01*
X4061363Y-3602967D01*
X3842415Y-3764765D02*
G01*
X3842415Y-3831567D01*
X3842415Y-3764765D02*
G01*
X3871117Y-3764765D01*
X3880515Y-3767813D01*
X3883817Y-3771115D01*
X3886865Y-3777465D01*
X3886865Y-3787117D01*
X3883817Y-3793467D01*
X3880515Y-3796515D01*
X3871117Y-3799817D01*
X3842415Y-3799817D01*
X3933347Y-3764765D02*
G01*
X3907947Y-3831567D01*
X3933347Y-3764765D02*
G01*
X3958747Y-3831567D01*
X3917599Y-3809215D02*
G01*
X3949349Y-3809215D01*
X3979829Y-3777465D02*
G01*
X3986179Y-3774417D01*
X3995831Y-3764765D01*
X3995831Y-3831567D01*
X4016659Y-3777465D02*
G01*
X4023009Y-3774417D01*
X4032661Y-3764765D01*
X4032661Y-3831567D01*
X3842415Y-4018765D02*
G01*
X3842415Y-4085567D01*
X3842415Y-4018765D02*
G01*
X3871117Y-4018765D01*
X3880515Y-4021813D01*
X3883817Y-4025115D01*
X3886865Y-4031465D01*
X3886865Y-4041117D01*
X3883817Y-4047467D01*
X3880515Y-4050515D01*
X3871117Y-4053817D01*
X3842415Y-4053817D01*
X3933347Y-4018765D02*
G01*
X3907947Y-4085567D01*
X3933347Y-4018765D02*
G01*
X3958747Y-4085567D01*
X3917599Y-4063215D02*
G01*
X3949349Y-4063215D01*
X3979829Y-4031465D02*
G01*
X3986179Y-4028417D01*
X3995831Y-4018765D01*
X3995831Y-4085567D01*
X4035963Y-4018765D02*
G01*
X4026311Y-4021813D01*
X4019961Y-4031465D01*
X4016659Y-4047467D01*
X4016659Y-4056865D01*
X4019961Y-4072867D01*
X4026311Y-4082519D01*
X4035963Y-4085567D01*
X4042313Y-4085567D01*
X4051711Y-4082519D01*
X4058061Y-4072867D01*
X4061363Y-4056865D01*
X4061363Y-4047467D01*
X4058061Y-4031465D01*
X4051711Y-4021813D01*
X4042313Y-4018765D01*
X4035963Y-4018765D01*
X3840612Y-4254019D02*
G01*
X3840612Y-4320821D01*
X3840612Y-4254019D02*
G01*
X3869314Y-4254019D01*
X3878712Y-4257067D01*
X3882014Y-4260369D01*
X3885062Y-4266719D01*
X3885062Y-4276371D01*
X3882014Y-4282721D01*
X3878712Y-4285769D01*
X3869314Y-4289071D01*
X3840612Y-4289071D01*
X3931544Y-4254019D02*
G01*
X3906144Y-4320821D01*
X3931544Y-4254019D02*
G01*
X3956944Y-4320821D01*
X3915796Y-4298469D02*
G01*
X3947546Y-4298469D01*
X4019428Y-4276371D02*
G01*
X4016126Y-4285769D01*
X4009776Y-4292119D01*
X4000378Y-4295421D01*
X3997076Y-4295421D01*
X3987678Y-4292119D01*
X3981328Y-4285769D01*
X3978026Y-4276371D01*
X3978026Y-4273069D01*
X3981328Y-4263671D01*
X3987678Y-4257067D01*
X3997076Y-4254019D01*
X4000378Y-4254019D01*
X4009776Y-4257067D01*
X4016126Y-4263671D01*
X4019428Y-4276371D01*
X4019428Y-4292119D01*
X4016126Y-4308121D01*
X4009776Y-4317773D01*
X4000378Y-4320821D01*
X3994028Y-4320821D01*
X3984376Y-4317773D01*
X3981328Y-4311169D01*
X3842415Y-4526765D02*
G01*
X3842415Y-4593567D01*
X3842415Y-4526765D02*
G01*
X3871117Y-4526765D01*
X3880515Y-4529813D01*
X3883817Y-4533115D01*
X3886865Y-4539465D01*
X3886865Y-4549117D01*
X3883817Y-4555467D01*
X3880515Y-4558515D01*
X3871117Y-4561817D01*
X3842415Y-4561817D01*
X3933347Y-4526765D02*
G01*
X3907947Y-4593567D01*
X3933347Y-4526765D02*
G01*
X3958747Y-4593567D01*
X3917599Y-4571215D02*
G01*
X3949349Y-4571215D01*
X3995831Y-4526765D02*
G01*
X3986179Y-4529813D01*
X3983131Y-4536417D01*
X3983131Y-4542767D01*
X3986179Y-4549117D01*
X3992529Y-4552165D01*
X4005229Y-4555467D01*
X4014881Y-4558515D01*
X4021231Y-4564865D01*
X4024533Y-4571215D01*
X4024533Y-4580867D01*
X4021231Y-4587217D01*
X4017929Y-4590519D01*
X4008531Y-4593567D01*
X3995831Y-4593567D01*
X3986179Y-4590519D01*
X3983131Y-4587217D01*
X3979829Y-4580867D01*
X3979829Y-4571215D01*
X3983131Y-4564865D01*
X3989481Y-4558515D01*
X3998879Y-4555467D01*
X4011579Y-4552165D01*
X4017929Y-4549117D01*
X4021231Y-4542767D01*
X4021231Y-4536417D01*
X4017929Y-4529813D01*
X4008531Y-4526765D01*
X3995831Y-4526765D01*
X3842415Y-4780765D02*
G01*
X3842415Y-4847567D01*
X3842415Y-4780765D02*
G01*
X3871117Y-4780765D01*
X3880515Y-4783813D01*
X3883817Y-4787115D01*
X3886865Y-4793465D01*
X3886865Y-4803117D01*
X3883817Y-4809467D01*
X3880515Y-4812515D01*
X3871117Y-4815817D01*
X3842415Y-4815817D01*
X3907947Y-4780765D02*
G01*
X3907947Y-4847567D01*
X3907947Y-4780765D02*
G01*
X3936649Y-4780765D01*
X3946047Y-4783813D01*
X3949349Y-4787115D01*
X3952397Y-4793465D01*
X3952397Y-4799815D01*
X3949349Y-4806165D01*
X3946047Y-4809467D01*
X3936649Y-4812515D01*
X3907947Y-4812515D02*
G01*
X3936649Y-4812515D01*
X3946047Y-4815817D01*
X3949349Y-4818865D01*
X3952397Y-4825215D01*
X3952397Y-4834867D01*
X3949349Y-4841217D01*
X3946047Y-4844519D01*
X3936649Y-4847567D01*
X3907947Y-4847567D01*
X3973479Y-4793465D02*
G01*
X3979829Y-4790417D01*
X3989481Y-4780765D01*
X3989481Y-4847567D01*
X4048663Y-4780765D02*
G01*
X4016659Y-4780765D01*
X4013611Y-4809467D01*
X4016659Y-4806165D01*
X4026311Y-4803117D01*
X4035963Y-4803117D01*
X4045361Y-4806165D01*
X4051711Y-4812515D01*
X4055013Y-4822167D01*
X4055013Y-4828517D01*
X4051711Y-4837915D01*
X4045361Y-4844519D01*
X4035963Y-4847567D01*
X4026311Y-4847567D01*
X4016659Y-4844519D01*
X4013611Y-4841217D01*
X4010309Y-4834867D01*
X3842415Y-5034765D02*
G01*
X3842415Y-5101567D01*
X3842415Y-5034765D02*
G01*
X3871117Y-5034765D01*
X3880515Y-5037813D01*
X3883817Y-5041115D01*
X3886865Y-5047465D01*
X3886865Y-5057117D01*
X3883817Y-5063467D01*
X3880515Y-5066515D01*
X3871117Y-5069817D01*
X3842415Y-5069817D01*
X3907947Y-5034765D02*
G01*
X3907947Y-5101567D01*
X3907947Y-5034765D02*
G01*
X3936649Y-5034765D01*
X3946047Y-5037813D01*
X3949349Y-5041115D01*
X3952397Y-5047465D01*
X3952397Y-5053815D01*
X3949349Y-5060165D01*
X3946047Y-5063467D01*
X3936649Y-5066515D01*
X3907947Y-5066515D02*
G01*
X3936649Y-5066515D01*
X3946047Y-5069817D01*
X3949349Y-5072865D01*
X3952397Y-5079215D01*
X3952397Y-5088867D01*
X3949349Y-5095217D01*
X3946047Y-5098519D01*
X3936649Y-5101567D01*
X3907947Y-5101567D01*
X3973479Y-5047465D02*
G01*
X3979829Y-5044417D01*
X3989481Y-5034765D01*
X3989481Y-5101567D01*
X4042313Y-5034765D02*
G01*
X4010309Y-5079215D01*
X4058061Y-5079215D01*
X4042313Y-5034765D02*
G01*
X4042313Y-5101567D01*
X3833987Y-5309191D02*
G01*
X3833987Y-5375993D01*
X3833987Y-5309191D02*
G01*
X3862689Y-5309191D01*
X3872087Y-5312239D01*
X3875389Y-5315541D01*
X3878437Y-5321891D01*
X3878437Y-5331289D01*
X3875389Y-5337639D01*
X3872087Y-5340941D01*
X3862689Y-5343989D01*
X3833987Y-5343989D01*
X3899519Y-5309191D02*
G01*
X3899519Y-5375993D01*
X3899519Y-5309191D02*
G01*
X3928221Y-5309191D01*
X3937619Y-5312239D01*
X3940921Y-5315541D01*
X3943969Y-5321891D01*
X3943969Y-5328241D01*
X3940921Y-5334591D01*
X3937619Y-5337639D01*
X3928221Y-5340941D01*
X3899519Y-5340941D02*
G01*
X3928221Y-5340941D01*
X3937619Y-5343989D01*
X3940921Y-5347291D01*
X3943969Y-5353641D01*
X3943969Y-5363293D01*
X3940921Y-5369643D01*
X3937619Y-5372691D01*
X3928221Y-5375993D01*
X3899519Y-5375993D01*
X3965051Y-5321891D02*
G01*
X3971401Y-5318589D01*
X3981053Y-5309191D01*
X3981053Y-5375993D01*
X4008231Y-5309191D02*
G01*
X4043283Y-5309191D01*
X4024233Y-5334591D01*
X4033885Y-5334591D01*
X4040235Y-5337639D01*
X4043283Y-5340941D01*
X4046585Y-5350593D01*
X4046585Y-5356943D01*
X4043283Y-5366341D01*
X4036933Y-5372691D01*
X4027535Y-5375993D01*
X4017883Y-5375993D01*
X4008231Y-5372691D01*
X4005183Y-5369643D01*
X4001881Y-5363293D01*
X3836527Y-5558111D02*
G01*
X3836527Y-5624913D01*
X3836527Y-5558111D02*
G01*
X3865229Y-5558111D01*
X3874627Y-5561159D01*
X3877929Y-5564461D01*
X3880977Y-5570811D01*
X3880977Y-5580209D01*
X3877929Y-5586559D01*
X3874627Y-5589861D01*
X3865229Y-5592909D01*
X3836527Y-5592909D01*
X3902059Y-5558111D02*
G01*
X3902059Y-5624913D01*
X3902059Y-5558111D02*
G01*
X3930761Y-5558111D01*
X3940159Y-5561159D01*
X3943461Y-5564461D01*
X3946509Y-5570811D01*
X3946509Y-5577161D01*
X3943461Y-5583511D01*
X3940159Y-5586559D01*
X3930761Y-5589861D01*
X3902059Y-5589861D02*
G01*
X3930761Y-5589861D01*
X3940159Y-5592909D01*
X3943461Y-5596211D01*
X3946509Y-5602561D01*
X3946509Y-5612213D01*
X3943461Y-5618563D01*
X3940159Y-5621611D01*
X3930761Y-5624913D01*
X3902059Y-5624913D01*
X3967591Y-5570811D02*
G01*
X3973941Y-5567509D01*
X3983593Y-5558111D01*
X3983593Y-5624913D01*
X4007723Y-5573859D02*
G01*
X4007723Y-5570811D01*
X4010771Y-5564461D01*
X4014073Y-5561159D01*
X4020423Y-5558111D01*
X4033123Y-5558111D01*
X4039473Y-5561159D01*
X4042775Y-5564461D01*
X4045823Y-5570811D01*
X4045823Y-5577161D01*
X4042775Y-5583511D01*
X4036425Y-5592909D01*
X4004421Y-5624913D01*
X4049125Y-5624913D01*
D10*
X7093000Y-1110256D02*
G01*
X7093000Y-1304058D01*
X7093000Y-1110256D02*
G01*
X7176058Y-1110256D01*
X7203744Y-1119400D01*
X7213142Y-1128544D01*
X7222286Y-1147086D01*
X7222286Y-1165628D01*
X7213142Y-1184170D01*
X7203744Y-1193314D01*
X7176058Y-1202458D01*
X7093000Y-1202458D02*
G01*
X7176058Y-1202458D01*
X7203744Y-1211856D01*
X7213142Y-1221000D01*
X7222286Y-1239542D01*
X7222286Y-1267228D01*
X7213142Y-1285770D01*
X7203744Y-1294914D01*
X7176058Y-1304058D01*
X7093000Y-1304058D01*
X7283246Y-1110256D02*
G01*
X7283246Y-1304058D01*
X7412532Y-1110256D02*
G01*
X7412532Y-1304058D01*
X7283246Y-1202458D02*
G01*
X7412532Y-1202458D01*
X7473492Y-1147086D02*
G01*
X7492034Y-1137942D01*
X7519720Y-1110256D01*
X7519720Y-1304058D01*
X7709966Y-1110256D02*
G01*
X7617510Y-1304058D01*
X7580680Y-1110256D02*
G01*
X7709966Y-1110256D01*
X7881670Y-1110256D02*
G01*
X7789468Y-1110256D01*
X7780070Y-1193314D01*
X7789468Y-1184170D01*
X7817154Y-1174772D01*
X7844840Y-1174772D01*
X7872526Y-1184170D01*
X7891068Y-1202458D01*
X7900212Y-1230144D01*
X7900212Y-1248686D01*
X7891068Y-1276372D01*
X7872526Y-1294914D01*
X7844840Y-1304058D01*
X7817154Y-1304058D01*
X7789468Y-1294914D01*
X7780070Y-1285770D01*
X7770926Y-1267228D01*
X8016544Y-1110256D02*
G01*
X7988858Y-1119400D01*
X7970570Y-1147086D01*
X7961172Y-1193314D01*
X7961172Y-1221000D01*
X7970570Y-1267228D01*
X7988858Y-1294914D01*
X8016544Y-1304058D01*
X8035086Y-1304058D01*
X8062772Y-1294914D01*
X8081314Y-1267228D01*
X8090458Y-1221000D01*
X8090458Y-1193314D01*
X8081314Y-1147086D01*
X8062772Y-1119400D01*
X8035086Y-1110256D01*
X8016544Y-1110256D01*
X8057641Y-2222500D02*
G01*
X8202929Y-2167128D01*
X8057641Y-2111755D02*
G01*
X8202929Y-2167128D01*
X8092186Y-1962150D02*
G01*
X8078470Y-1969007D01*
X8064500Y-1982723D01*
X8057641Y-1996694D01*
X8057641Y-2024379D01*
X8064500Y-2038350D01*
X8078470Y-2052065D01*
X8092186Y-2058923D01*
X8113013Y-2066036D01*
X8147558Y-2066036D01*
X8168386Y-2058923D01*
X8182356Y-2052065D01*
X8196072Y-2038350D01*
X8202929Y-2024379D01*
X8202929Y-1996694D01*
X8196072Y-1982723D01*
X8182356Y-1969007D01*
X8168386Y-1962150D01*
X8092186Y-1812289D02*
G01*
X8078470Y-1819402D01*
X8064500Y-1833118D01*
X8057641Y-1847087D01*
X8057641Y-1874773D01*
X8064500Y-1888489D01*
X8078470Y-1902460D01*
X8092186Y-1909318D01*
X8113013Y-1916429D01*
X8147558Y-1916429D01*
X8168386Y-1909318D01*
X8182356Y-1902460D01*
X8196072Y-1888489D01*
X8202929Y-1874773D01*
X8202929Y-1847087D01*
X8196072Y-1833118D01*
X8182356Y-1819402D01*
X8168386Y-1812289D01*
X7838186Y-2118613D02*
G01*
X7824470Y-2125471D01*
X7810500Y-2139442D01*
X7803641Y-2153157D01*
X7803641Y-2180844D01*
X7810500Y-2194813D01*
X7824470Y-2208529D01*
X7838186Y-2215642D01*
X7859013Y-2222500D01*
X7893558Y-2222500D01*
X7914386Y-2215642D01*
X7928356Y-2208529D01*
X7942072Y-2194813D01*
X7948929Y-2180844D01*
X7948929Y-2153157D01*
X7942072Y-2139442D01*
X7928356Y-2125471D01*
X7914386Y-2118613D01*
X7893558Y-2118613D01*
X7893558Y-2153157D02*
G01*
X7893558Y-2118613D01*
X7803641Y-2072894D02*
G01*
X7948929Y-2072894D01*
X7803641Y-2072894D02*
G01*
X7948929Y-1975865D01*
X7803641Y-1975865D02*
G01*
X7948929Y-1975865D01*
X7803641Y-1930145D02*
G01*
X7948929Y-1930145D01*
X7803641Y-1930145D02*
G01*
X7803641Y-1881631D01*
X7810500Y-1860804D01*
X7824470Y-1847087D01*
X7838186Y-1840229D01*
X7859013Y-1833118D01*
X7893558Y-1833118D01*
X7914386Y-1840229D01*
X7928356Y-1847087D01*
X7942072Y-1860804D01*
X7948929Y-1881631D01*
X7948929Y-1930145D01*
X7570470Y-2125471D02*
G01*
X7556500Y-2139442D01*
X7549641Y-2160270D01*
X7549641Y-2187955D01*
X7556500Y-2208529D01*
X7570470Y-2222500D01*
X7584186Y-2222500D01*
X7598156Y-2215642D01*
X7605013Y-2208529D01*
X7611872Y-2194813D01*
X7625841Y-2153157D01*
X7632700Y-2139442D01*
X7639558Y-2132329D01*
X7653527Y-2125471D01*
X7674356Y-2125471D01*
X7688072Y-2139442D01*
X7694929Y-2160270D01*
X7694929Y-2187955D01*
X7688072Y-2208529D01*
X7674356Y-2222500D01*
X7584186Y-1975865D02*
G01*
X7570470Y-1982723D01*
X7556500Y-1996694D01*
X7549641Y-2010410D01*
X7549641Y-2038350D01*
X7556500Y-2052065D01*
X7570470Y-2066036D01*
X7584186Y-2072894D01*
X7605013Y-2079752D01*
X7639558Y-2079752D01*
X7660386Y-2072894D01*
X7674356Y-2066036D01*
X7688072Y-2052065D01*
X7694929Y-2038350D01*
X7694929Y-2010410D01*
X7688072Y-1996694D01*
X7674356Y-1982723D01*
X7660386Y-1975865D01*
X7549641Y-1930145D02*
G01*
X7694929Y-1930145D01*
X7694929Y-1930145D02*
G01*
X7694929Y-1847087D01*
X7316470Y-2125471D02*
G01*
X7302500Y-2139442D01*
X7295641Y-2160270D01*
X7295641Y-2187955D01*
X7302500Y-2208529D01*
X7316470Y-2222500D01*
X7330186Y-2222500D01*
X7344156Y-2215642D01*
X7351013Y-2208529D01*
X7357872Y-2194813D01*
X7371841Y-2153157D01*
X7378700Y-2139442D01*
X7385558Y-2132329D01*
X7399527Y-2125471D01*
X7420356Y-2125471D01*
X7434072Y-2139442D01*
X7440929Y-2160270D01*
X7440929Y-2187955D01*
X7434072Y-2208529D01*
X7420356Y-2222500D01*
X7295641Y-2079752D02*
G01*
X7440929Y-2079752D01*
X7295641Y-2079752D02*
G01*
X7295641Y-2031237D01*
X7302500Y-2010410D01*
X7316470Y-1996694D01*
X7330186Y-1989836D01*
X7351013Y-1982723D01*
X7385558Y-1982723D01*
X7406386Y-1989836D01*
X7420356Y-1996694D01*
X7434072Y-2010410D01*
X7440929Y-2031237D01*
X7440929Y-2079752D01*
X7295641Y-1881631D02*
G01*
X7440929Y-1937004D01*
X7295641Y-1881631D02*
G01*
X7440929Y-1826260D01*
X7392670Y-1916429D02*
G01*
X7392670Y-1847087D01*
X7041641Y-2167128D02*
G01*
X7186929Y-2222500D01*
X7041641Y-2167128D02*
G01*
X7186929Y-2111755D01*
X7138670Y-2201671D02*
G01*
X7138670Y-2132329D01*
X7041641Y-2066036D02*
G01*
X7186929Y-2066036D01*
X7041641Y-2066036D02*
G01*
X7041641Y-2017521D01*
X7048500Y-1996694D01*
X7062470Y-1982723D01*
X7076186Y-1975865D01*
X7097013Y-1969007D01*
X7131558Y-1969007D01*
X7152386Y-1975865D01*
X7166356Y-1982723D01*
X7180072Y-1996694D01*
X7186929Y-2017521D01*
X7186929Y-2066036D01*
X7041641Y-1923287D02*
G01*
X7186929Y-1923287D01*
X7041641Y-1923287D02*
G01*
X7041641Y-1874773D01*
X7048500Y-1853945D01*
X7062470Y-1840229D01*
X7076186Y-1833118D01*
X7097013Y-1826260D01*
X7131558Y-1826260D01*
X7152386Y-1833118D01*
X7166356Y-1840229D01*
X7180072Y-1853945D01*
X7186929Y-1874773D01*
X7186929Y-1923287D01*
X7041641Y-1780539D02*
G01*
X7186929Y-1780539D01*
X7041641Y-1780539D02*
G01*
X7041641Y-1718310D01*
X7048500Y-1697481D01*
X7055358Y-1690370D01*
X7069327Y-1683512D01*
X7083043Y-1683512D01*
X7097013Y-1690370D01*
X7103872Y-1697481D01*
X7110729Y-1718310D01*
X7110729Y-1780539D01*
X7110729Y-1732026D02*
G01*
X7186929Y-1683512D01*
D11*
X6768084Y-1524000D02*
G01*
X6846061Y-1524000D01*
X6861556Y-1518920D01*
X6871970Y-1508505D01*
X6877050Y-1492757D01*
X6877050Y-1482344D01*
X6871970Y-1466850D01*
X6861556Y-1456436D01*
X6846061Y-1451355D01*
X6768084Y-1451355D01*
X6793991Y-1411731D02*
G01*
X6788911Y-1411731D01*
X6778497Y-1406652D01*
X6773163Y-1401318D01*
X6768084Y-1390904D01*
X6768084Y-1370329D01*
X6773163Y-1359915D01*
X6778497Y-1354581D01*
X6788911Y-1349502D01*
X6799325Y-1349502D01*
X6809740Y-1354581D01*
X6825234Y-1364995D01*
X6877050Y-1417065D01*
X6877050Y-1344168D01*
X7961884Y-5308600D02*
G01*
X8039861Y-5308600D01*
X8055356Y-5303520D01*
X8065770Y-5293105D01*
X8070850Y-5277357D01*
X8070850Y-5266944D01*
X8065770Y-5251450D01*
X8055356Y-5241036D01*
X8039861Y-5235955D01*
X7961884Y-5235955D01*
X7961884Y-5191252D02*
G01*
X7961884Y-5134102D01*
X8003540Y-5165089D01*
X8003540Y-5149595D01*
X8008620Y-5139181D01*
X8013700Y-5134102D01*
X8029447Y-5128768D01*
X8039861Y-5128768D01*
X8055356Y-5134102D01*
X8065770Y-5144515D01*
X8070850Y-5160010D01*
X8070850Y-5175504D01*
X8065770Y-5191252D01*
X8060690Y-5196331D01*
X8050275Y-5201665D01*
X9714229Y-4749800D02*
G01*
X9800843Y-4749800D01*
X9818370Y-4743957D01*
X9829800Y-4732528D01*
X9835641Y-4715255D01*
X9835641Y-4703571D01*
X9829800Y-4686300D01*
X9818370Y-4674870D01*
X9800843Y-4669028D01*
X9714229Y-4669028D01*
X9731756Y-4550155D02*
G01*
X9720072Y-4561586D01*
X9714229Y-4578857D01*
X9714229Y-4601971D01*
X9720072Y-4619244D01*
X9731756Y-4630928D01*
X9743186Y-4630928D01*
X9754870Y-4625086D01*
X9760458Y-4619244D01*
X9766300Y-4607813D01*
X9777729Y-4573270D01*
X9783572Y-4561586D01*
X9789413Y-4555744D01*
X9800843Y-4550155D01*
X9818370Y-4550155D01*
X9829800Y-4561586D01*
X9835641Y-4578857D01*
X9835641Y-4601971D01*
X9829800Y-4619244D01*
X9818370Y-4630928D01*
X9714229Y-4512055D02*
G01*
X9835641Y-4512055D01*
X9714229Y-4512055D02*
G01*
X9714229Y-4459986D01*
X9720072Y-4442713D01*
X9725913Y-4436871D01*
X9737343Y-4431029D01*
X9749027Y-4431029D01*
X9760458Y-4436871D01*
X9766300Y-4442713D01*
X9772141Y-4459986D01*
X9772141Y-4512055D02*
G01*
X9772141Y-4459986D01*
X9777729Y-4442713D01*
X9783572Y-4436871D01*
X9795256Y-4431029D01*
X9812527Y-4431029D01*
X9823958Y-4436871D01*
X9829800Y-4442713D01*
X9835641Y-4459986D01*
X9835641Y-4512055D01*
X8426958Y-5168137D02*
G01*
X8465058Y-5168137D01*
X8444229Y-5195823D01*
X8454643Y-5195823D01*
X8461756Y-5199379D01*
X8465058Y-5202936D01*
X8468613Y-5213350D01*
X8468613Y-5220207D01*
X8465058Y-5230621D01*
X8458200Y-5237479D01*
X8447786Y-5241036D01*
X8437372Y-5241036D01*
X8426958Y-5237479D01*
X8423656Y-5233923D01*
X8420100Y-5227065D01*
X8491474Y-5168137D02*
G01*
X8519159Y-5241036D01*
X8546845Y-5168137D02*
G01*
X8519159Y-5241036D01*
X8576563Y-5168137D02*
G01*
X8614663Y-5168137D01*
X8594090Y-5195823D01*
X8604250Y-5195823D01*
X8611361Y-5199379D01*
X8614663Y-5202936D01*
X8618220Y-5213350D01*
X8618220Y-5220207D01*
X8614663Y-5230621D01*
X8607806Y-5237479D01*
X8597391Y-5241036D01*
X8586977Y-5241036D01*
X8576563Y-5237479D01*
X8573261Y-5233923D01*
X8569706Y-5227065D01*
X8432800Y-4901437D02*
G01*
X8432800Y-4974336D01*
X8432800Y-4901437D02*
G01*
X8456929Y-4901437D01*
X8467343Y-4904994D01*
X8474456Y-4911852D01*
X8477758Y-4918710D01*
X8481313Y-4929123D01*
X8481313Y-4946650D01*
X8477758Y-4956810D01*
X8474456Y-4963921D01*
X8467343Y-4970779D01*
X8456929Y-4974336D01*
X8432800Y-4974336D01*
X8528304Y-4901437D02*
G01*
X8528304Y-4974336D01*
X8504174Y-4901437D02*
G01*
X8552688Y-4901437D01*
X8575547Y-4901437D02*
G01*
X8575547Y-4974336D01*
X8575547Y-4901437D02*
G01*
X8606790Y-4901437D01*
X8616950Y-4904994D01*
X8620506Y-4908550D01*
X8624061Y-4915407D01*
X8624061Y-4922265D01*
X8620506Y-4929123D01*
X8616950Y-4932679D01*
X8606790Y-4936236D01*
X8575547Y-4936236D01*
X8599677Y-4936236D02*
G01*
X8624061Y-4974336D01*
X8420100Y-4660137D02*
G01*
X8420100Y-4733036D01*
X8420100Y-4660137D02*
G01*
X8451341Y-4660137D01*
X8461756Y-4663694D01*
X8465058Y-4667250D01*
X8468613Y-4674107D01*
X8468613Y-4680965D01*
X8465058Y-4687823D01*
X8461756Y-4691379D01*
X8451341Y-4694936D01*
X8420100Y-4694936D01*
X8444229Y-4694936D02*
G01*
X8468613Y-4733036D01*
X8491474Y-4660137D02*
G01*
X8539988Y-4733036D01*
X8539988Y-4660137D02*
G01*
X8491474Y-4733036D01*
X8562847Y-4660137D02*
G01*
X8562847Y-4733036D01*
X8444229Y-4393437D02*
G01*
X8444229Y-4466336D01*
X8420100Y-4393437D02*
G01*
X8468613Y-4393437D01*
X8491474Y-4393437D02*
G01*
X8539988Y-4466336D01*
X8539988Y-4393437D02*
G01*
X8491474Y-4466336D01*
X8583675Y-4393437D02*
G01*
X8576563Y-4396994D01*
X8569706Y-4403852D01*
X8566150Y-4410710D01*
X8562847Y-4421123D01*
X8562847Y-4438650D01*
X8566150Y-4448810D01*
X8569706Y-4455921D01*
X8576563Y-4462779D01*
X8583675Y-4466336D01*
X8597391Y-4466336D01*
X8604250Y-4462779D01*
X8611361Y-4455921D01*
X8614663Y-4448810D01*
X8618220Y-4438650D01*
X8618220Y-4421123D01*
X8614663Y-4410710D01*
X8611361Y-4403852D01*
X8604250Y-4396994D01*
X8597391Y-4393437D01*
X8583675Y-4393437D01*
X8472170Y-4169410D02*
G01*
X8468613Y-4162552D01*
X8461756Y-4155694D01*
X8454643Y-4152137D01*
X8440927Y-4152137D01*
X8434070Y-4155694D01*
X8426958Y-4162552D01*
X8423656Y-4169410D01*
X8420100Y-4179823D01*
X8420100Y-4197350D01*
X8423656Y-4207510D01*
X8426958Y-4214621D01*
X8434070Y-4221479D01*
X8440927Y-4225036D01*
X8454643Y-4225036D01*
X8461756Y-4221479D01*
X8468613Y-4214621D01*
X8472170Y-4207510D01*
X8472170Y-4197350D01*
X8454643Y-4197350D02*
G01*
X8472170Y-4197350D01*
X8495029Y-4152137D02*
G01*
X8495029Y-4225036D01*
X8495029Y-4152137D02*
G01*
X8543290Y-4225036D01*
X8543290Y-4152137D02*
G01*
X8543290Y-4225036D01*
X8566150Y-4152137D02*
G01*
X8566150Y-4225036D01*
X8566150Y-4152137D02*
G01*
X8590534Y-4152137D01*
X8600947Y-4155694D01*
X8607806Y-4162552D01*
X8611361Y-4169410D01*
X8614663Y-4179823D01*
X8614663Y-4197350D01*
X8611361Y-4207510D01*
X8607806Y-4214621D01*
X8600947Y-4221479D01*
X8590534Y-4225036D01*
X8566150Y-4225036D01*
X8451341Y-3895852D02*
G01*
X8451341Y-3958336D01*
X8420100Y-3927094D02*
G01*
X8482329Y-3927094D01*
X8546845Y-3885437D02*
G01*
X8512302Y-3885437D01*
X8508745Y-3916679D01*
X8512302Y-3913123D01*
X8522715Y-3909821D01*
X8533129Y-3909821D01*
X8543290Y-3913123D01*
X8550402Y-3920236D01*
X8553704Y-3930650D01*
X8553704Y-3937507D01*
X8550402Y-3947921D01*
X8543290Y-3954779D01*
X8533129Y-3958336D01*
X8522715Y-3958336D01*
X8512302Y-3954779D01*
X8508745Y-3951223D01*
X8505190Y-3944365D01*
X8576563Y-3885437D02*
G01*
X8604250Y-3958336D01*
X8632190Y-3885437D02*
G01*
X8604250Y-3958336D01*
X8927084Y-2565400D02*
G01*
X9036050Y-2565400D01*
X8927084Y-2492755D02*
G01*
X8999727Y-2565400D01*
X8973820Y-2539492D02*
G01*
X9036050Y-2492755D01*
X8947911Y-2458465D02*
G01*
X8942577Y-2448052D01*
X8927084Y-2432304D01*
X9036050Y-2432304D01*
X8927084Y-1295400D02*
G01*
X9036050Y-1295400D01*
X8927084Y-1222755D02*
G01*
X8999727Y-1295400D01*
X8973820Y-1269492D02*
G01*
X9036050Y-1222755D01*
X8952991Y-1183131D02*
G01*
X8947911Y-1183131D01*
X8937497Y-1178052D01*
X8932163Y-1172718D01*
X8927084Y-1162304D01*
X8927084Y-1141729D01*
X8932163Y-1131315D01*
X8937497Y-1125981D01*
X8947911Y-1120902D01*
X8958325Y-1120902D01*
X8968740Y-1125981D01*
X8984234Y-1136395D01*
X9036050Y-1188465D01*
X9036050Y-1115568D01*
D14*
X4953000Y-1270000D02*
G01*
X6223000Y-1270000D01*
X6223000Y-2159000D01*
X4953000Y-2159000D01*
X4953000Y-1270000D01*
X5080000Y-1143000D02*
G01*
X5080000Y-508000D01*
X5207000Y-508000D01*
X5207000Y-762000D01*
X5334000Y-762000D01*
X5334000Y-508000D01*
X5461000Y-508000D01*
X5461000Y-762000D01*
X5588000Y-762000D01*
X5588000Y-508000D01*
X5969000Y-508000D01*
X6350000Y-381000D02*
G01*
X4826000Y-381000D01*
X4826000Y-2794000D01*
X6350000Y-2794000D02*
G01*
X6350000Y-381000D01*
X4826000Y-2794000D02*
G01*
X6324600Y-2794000D01*
D10*
X890277Y-2413000D02*
G01*
X890277Y-2159000D01*
X1141737Y-2159000D01*
X1141737Y-2921000D01*
X890277Y-2921000D01*
X890277Y-2413000D01*
X890277Y-889000D02*
G01*
X890277Y-635000D01*
X1141737Y-635000D01*
X1141737Y-1397000D01*
X890277Y-1397000D01*
X890277Y-889000D01*
D14*
X1145999Y-3587003D02*
G01*
X886000Y-3587003D01*
X7575918Y-3872252D02*
G01*
X7575918Y-3071896D01*
X7376020Y-5272303D02*
G01*
X7376020Y-3872252D01*
X7575821Y-3872252D02*
G01*
X7375918Y-3872252D01*
X7575918Y-5272257D02*
G01*
X7376020Y-5272257D01*
X5321160Y-4826251D02*
G01*
X4686160Y-4826251D01*
X4675875Y-4572251D02*
G01*
X5321160Y-4572251D01*
X5321160Y-4318251D02*
G01*
X4686160Y-4318251D01*
X5321160Y-4047261D02*
G01*
X4675746Y-4047261D01*
X5325861Y-5097241D02*
G01*
X5325986Y-4261868D01*
X5325861Y-4047261D01*
X4675875Y-5097241D02*
G01*
X5321160Y-5097241D01*
X4675898Y-6071897D02*
G01*
X4675898Y-3372258D01*
X7575918Y-5772251D02*
G01*
X7575918Y-5272257D01*
X4975867Y-3071896D02*
G01*
X7575872Y-3071896D01*
X4675898Y-6071897D02*
G01*
X7275870Y-6071897D01*
X901004Y-5669650D02*
G01*
X901004Y-5362140D01*
X901004Y-5019644D01*
X1131006Y-5019644D02*
G01*
X1131006Y-5669650D01*
X904006Y-5019644D02*
G01*
X1128003Y-5019644D01*
X1131006Y-5669650D02*
G01*
X901004Y-5669650D01*
D10*
X1778000Y-508000D02*
G01*
X4078000Y-508000D01*
X4078000Y-5842000D01*
X1778000Y-5842000D01*
X1778000Y-508000D01*
X3232800Y-5842000D02*
G01*
X3225180Y-5842000D01*
X3225180Y-5425439D01*
X2623200Y-5425439D01*
X2623200Y-5839180D01*
X2630820Y-5836920D01*
D14*
X6921500Y-2476500D02*
G01*
X6921500Y-571500D01*
X8318500Y-571500D01*
X8318500Y-2476500D01*
X6921500Y-2476500D01*
X7480300Y-1587500D02*
G01*
X7480300Y-1333500D01*
X7734300Y-1333500D01*
X7734300Y-1587500D01*
X7480300Y-1587500D01*
X10160000Y-4953000D02*
G01*
X10287000Y-4953000D01*
X10287000Y-4191000D01*
X10160000Y-4191000D01*
X9525000Y-4191000D01*
X9525000Y-4953000D01*
X10160000Y-4953000D01*
X10160000Y-5334000D01*
X8128000Y-5334000D01*
X8128000Y-3810000D01*
X10160000Y-3810000D01*
X10160000Y-4191000D01*
X8128000Y-4381500D02*
G01*
X8191500Y-4318000D01*
X8128000Y-4254500D01*
X8318500Y-3810000D02*
G01*
X8382000Y-3873500D01*
X8382000Y-4000500D01*
X8318500Y-4064000D01*
X8382000Y-4127500D01*
X8382000Y-4254500D01*
X8318500Y-4318000D01*
X8382000Y-4381500D01*
X8382000Y-4508500D01*
X8318500Y-4572000D01*
X8382000Y-4635500D01*
X8382000Y-4762500D01*
X8318500Y-4826000D01*
X8382000Y-4889500D01*
X8382000Y-5016500D01*
X8318500Y-5080000D01*
X8382000Y-5143500D01*
X8382000Y-5270500D01*
X8318500Y-5334000D01*
X8191500Y-5334000D02*
G01*
X8128000Y-5270500D01*
X8128000Y-5143500D02*
G01*
X8191500Y-5080000D01*
X8128000Y-5016500D01*
X8128000Y-4889500D02*
G01*
X8191500Y-4826000D01*
X8128000Y-4762500D01*
X8128000Y-4635500D02*
G01*
X8191500Y-4572000D01*
X8128000Y-4508500D01*
X8191500Y-3810000D02*
G01*
X8128000Y-3873500D01*
X8128000Y-4000500D02*
G01*
X8191500Y-4064000D01*
X8128000Y-4127500D01*
X9285955Y-2209800D02*
G01*
X9510044Y-2209800D01*
X9093200Y-2785013D02*
G01*
X9093200Y-2294986D01*
X9285955Y-2870200D02*
G01*
X9510044Y-2870200D01*
X9702800Y-2785013D02*
G01*
X9702800Y-2294986D01*
X9285955Y-939800D02*
G01*
X9510044Y-939800D01*
X9093200Y-1515013D02*
G01*
X9093200Y-1024986D01*
X9285955Y-1600200D02*
G01*
X9510044Y-1600200D01*
X9702800Y-1515013D02*
G01*
X9702800Y-1024986D01*
G75*
G01*
X877824Y-3589833D02*
G03*
X1154176Y-3589833I138176J-220244D01*
G75*
G01*
X4675746Y-3372101D02*
G02*
X4975977Y-3072130I300000J-28D01*
G75*
G01*
X7575918Y-5772147D02*
G02*
X7275949Y-6072127I-299999J20D01*
G75*
G01
X9271000Y-2730500D02*
G03X9271000Y-2730500I-50800J0D01*
G75*
G01
X9626600Y-2743200D02*
G03X9626600Y-2743200I-50800J0D01*
G75*
G01
X9271000Y-2349500D02*
G03X9271000Y-2349500I-50800J0D01*
G75*
G01
X9626600Y-2362200D02*
G03X9626600Y-2362200I-50800J0D01*
G75*
G01
X9512300Y-2540000D02*
G03X9512300Y-2540000I-114300J0D01*
G75*
G01
X9548114Y-2540000D02*
G03X9548114Y-2540000I-150114J0D01*
G75*
G01
X9271000Y-1460500D02*
G03X9271000Y-1460500I-50800J0D01*
G75*
G01
X9626600Y-1473200D02*
G03X9626600Y-1473200I-50800J0D01*
G75*
G01
X9271000Y-1079500D02*
G03X9271000Y-1079500I-50800J0D01*
G75*
G01
X9626600Y-1092200D02*
G03X9626600Y-1092200I-50800J0D01*
G75*
G01
X9512300Y-1270000D02*
G03X9512300Y-1270000I-114300J0D01*
G75*
G01
X9548114Y-1270000D02*
G03X9548114Y-1270000I-150114J0D01*
M02*
