G04 Layer: TopSolderMaskLayer*
G04 EasyEDA v6.5.9, 2022-08-04 21:53:36*
G04 243b00ffacdd401494d35e99a464f0bf,3bbe445d3a7142a2ab69e160ea9428b9,10*
G04 Gerber Generator version 0.2*
G04 Scale: 100 percent, Rotated: No, Reflected: No *
G04 Dimensions in millimeters *
G04 leading zeros omitted , absolute positions ,4 integer and 5 decimal *
%FSLAX45Y45*%
%MOMM*%

%ADD10C,1.6532*%
%ADD11C,2.1016*%
%ADD12R,1.6764X1.6764*%
%ADD13C,1.6764*%
%ADD14C,1.7526*%
%ADD15C,1.7516*%
%ADD16C,1.9812*%
%ADD17C,1.7272*%
%ADD18C,1.5011*%
%ADD19C,1.9016*%

%LPD*%
D10*
X2113511Y-3048000D02*
G01*
X2218509Y-3048000D01*
X2113511Y-2794000D02*
G01*
X2218509Y-2794000D01*
X2113511Y-2540000D02*
G01*
X2218509Y-2540000D01*
X2113511Y-2286000D02*
G01*
X2218509Y-2286000D01*
X2113511Y-2032000D02*
G01*
X2218509Y-2032000D01*
X2113511Y-1778000D02*
G01*
X2218509Y-1778000D01*
X2113511Y-1524000D02*
G01*
X2218509Y-1524000D01*
X2113511Y-1270000D02*
G01*
X2218509Y-1270000D01*
X2113511Y-1016000D02*
G01*
X2218509Y-1016000D01*
X2113511Y-762000D02*
G01*
X2218509Y-762000D01*
X2113511Y-3302000D02*
G01*
X2218509Y-3302000D01*
X2113511Y-3556000D02*
G01*
X2218509Y-3556000D01*
X2113511Y-3810000D02*
G01*
X2218509Y-3810000D01*
X2113511Y-4064000D02*
G01*
X2218509Y-4064000D01*
X2113511Y-4318000D02*
G01*
X2218509Y-4318000D01*
X2113511Y-4572000D02*
G01*
X2218509Y-4572000D01*
X2113511Y-4826000D02*
G01*
X2218509Y-4826000D01*
X2113511Y-5080000D02*
G01*
X2218509Y-5080000D01*
X2113511Y-5334000D02*
G01*
X2218509Y-5334000D01*
X2113511Y-5588000D02*
G01*
X2218509Y-5588000D01*
X3637511Y-5588000D02*
G01*
X3742509Y-5588000D01*
X3637511Y-5334000D02*
G01*
X3742509Y-5334000D01*
X3637511Y-5080000D02*
G01*
X3742509Y-5080000D01*
X3637511Y-4826000D02*
G01*
X3742509Y-4826000D01*
X3637511Y-4572000D02*
G01*
X3742509Y-4572000D01*
X3637511Y-4318000D02*
G01*
X3742509Y-4318000D01*
X3637511Y-4064000D02*
G01*
X3742509Y-4064000D01*
X3637511Y-3810000D02*
G01*
X3742509Y-3810000D01*
X3637511Y-3556000D02*
G01*
X3742509Y-3556000D01*
X3637511Y-3302000D02*
G01*
X3742509Y-3302000D01*
X3637511Y-3048000D02*
G01*
X3742509Y-3048000D01*
X3637511Y-2794000D02*
G01*
X3742509Y-2794000D01*
X3637511Y-2540000D02*
G01*
X3742509Y-2540000D01*
X3637511Y-2286000D02*
G01*
X3742509Y-2286000D01*
X3637511Y-2032000D02*
G01*
X3742509Y-2032000D01*
X3637511Y-1778000D02*
G01*
X3742509Y-1778000D01*
X3637511Y-1524000D02*
G01*
X3742509Y-1524000D01*
X3637511Y-1270000D02*
G01*
X3742509Y-1270000D01*
X3637511Y-1016000D02*
G01*
X3742509Y-1016000D01*
X3637511Y-762000D02*
G01*
X3742509Y-762000D01*
D11*
G01*
X5207000Y-2667000D03*
G01*
X5461000Y-2667000D03*
G01*
X5715000Y-2667000D03*
G01*
X5969000Y-2667000D03*
G01*
X5969000Y-2413000D03*
G01*
X5715000Y-2413000D03*
G01*
X5461000Y-2413000D03*
G01*
X5207000Y-2413000D03*
D12*
G01*
X1017277Y-2794000D03*
D13*
G01*
X1017277Y-2540000D03*
G01*
X1017277Y-2286000D03*
D12*
G01*
X1017277Y-1270000D03*
D13*
G01*
X1017277Y-1016000D03*
G01*
X1017277Y-762000D03*
D14*
G01*
X1016000Y-3937000D03*
G01*
X1016000Y-3683000D03*
D15*
G01*
X4825872Y-4191000D03*
G01*
X4825872Y-4445000D03*
G01*
X4825872Y-4699000D03*
G01*
X4826127Y-4953000D03*
D16*
G01*
X1015994Y-4819642D03*
G01*
X1015994Y-5848342D03*
D17*
G01*
X8115300Y-2349500D03*
G01*
X7861300Y-2349500D03*
G01*
X7607300Y-2349500D03*
G01*
X7353300Y-2349500D03*
G01*
X7099300Y-2349500D03*
G36*
X8180070Y-5282184D02*
G01*
X8180070Y-5132070D01*
X8330184Y-5132070D01*
X8330184Y-5282184D01*
G37*
D18*
G01*
X8255000Y-4953000D03*
G01*
X8255000Y-4699000D03*
G01*
X8255000Y-4445000D03*
G01*
X8255000Y-4191000D03*
G01*
X8255000Y-3937000D03*
D19*
G01*
X9172956Y-2865120D03*
G01*
X9623043Y-2865120D03*
G01*
X9172956Y-2214879D03*
G01*
X9623043Y-2214879D03*
G01*
X9172956Y-1595120D03*
G01*
X9623043Y-1595120D03*
G01*
X9172956Y-944879D03*
G01*
X9623043Y-944879D03*
M02*
